<svg xmlns="http://www.w3.org/2000/svg" width="924.19" height="33.558" viewBox="0 0 924.19 33.558">
  <g id="sublinhado" transform="translate(-539.907 -1214.569)">
    <path id="Caminho_381" data-name="Caminho 381" d="M540,1248.127c69.44-6,138.936-11.406,208.5-15.727,61.387-3.812,122.831-6.775,184.313-8.5q85.422-2.4,170.892-1.391,83.058,1.068,166.022,5.609c57.39,3.106,114.712,7.374,171.959,12.464q11.158.992,22.312,2.025c-.177-.017.29-7.588,0-7.615-57.727-5.334-115.527-9.9-173.4-13.308q-83.032-4.895-166.215-6.469-84.907-1.539-169.828.512c-60.709,1.413-121.385,4.073-182.005,7.612-68.38,3.991-136.692,9.085-204.946,14.82q-13.8,1.161-27.606,2.355c-.273.024.16,7.6,0,7.615Z" fill="#fff"/>
  </g>
</svg>
