<svg xmlns="http://www.w3.org/2000/svg" width="667" height="145" viewBox="0 0 667 145">
  <g id="titulo_2" transform="translate(-624 -1234)">
    <path id="Caminho_8" data-name="Caminho 8" d="M1290.2,1370.28c-10.106-23.234-39.128-45.141-63.106-64.8a3.506,3.506,0,0,0,1.913-.78c22.772-19.93,42.093-41.538,60.2-62.8,1.381-1.62-.832-3.124-3.272-3.386-.61-.769-1.889-1.384-3.867-1.436-109.737-2.9-219.671-3.34-329.52-2.955q-80.867.283-161.722,1.047c-54.237.457-109.381-.51-163.453,1.893-3.492.155-4.285,2.282-2.325,3.284.012.018.013.035.026.053,15.744,22.707,33.332,45.8,57.378,66.35a2.859,2.859,0,0,0,.357.209c-5.822,3.591-8.946,8.272-12.822,12.538-5.467,6.016-10.952,12.027-16.387,18.052-10.076,11.169-20.312,22.311-28.89,33.848l0,.01c-1.382,1.013-.5,2.772,2.587,2.932,54.94,2.844,111.137,2.036,166.3,2.757,54.465.713,108.934,1.373,163.413,1.7,109.921.659,219.906-.1,329.58-4.4C1290.78,1374.233,1291.988,1371.661,1290.2,1370.28Zm-333.189,3.654c-54.479-.307-108.948-.948-163.413-1.642-53.915-.686-108.674-2.88-162.6-1.664,10.233-9.55,19.267-19.451,28.374-29.325,4.61-5,9.176-10.006,13.751-15.012,4.873-5.332,9.247-12.247,16.429-16.766,2.174-1.368.715-3.115-1.585-3.666a1.138,1.138,0,0,0-.3-.759c-18.24-21.316-37.561-42.111-53.025-64.09,51.836,1.124,104.374-.638,156.188-1.066q80.857-.669,161.722-1.021c109.184-.361,218.337.319,327.425,2.913-18.775,20.356-38.6,40.561-56.294,61.18a1.057,1.057,0,0,0-.268.931c-3.1-.171-6.406,1.517-4.263,3.356,12.211,10.48,24.823,20.814,36.187,31.577,10.533,9.976,18.913,20.489,28.727,30.633C1175.23,1373.755,1066.088,1374.55,957.009,1373.934Z" fill="#285011"/>
    <path id="Caminho_9" data-name="Caminho 9" d="M757.1,1303.978a84.821,84.821,0,0,0-7.933,5.733c-2.553-5.977-5.117-11.951-7.632-17.937-.407-.968-2.514-1.1-2.832,0-1.888,6.5-3.975,12.96-6.206,19.4-2.91-1.663-5.9-3.205-9.075-4.625-1.225-.549-2.592.354-2.307,1.31,1.188,3.989,2.435,7.969,3.808,11.926-.692.5-.45,1.519.811,1.563,9.444.328,18.989.11,28.43-.2a1.509,1.509,0,0,0,1.423-.781,1.344,1.344,0,0,0,.793-.714,40.7,40.7,0,0,0,3.32-14.872C759.742,1303.736,758.052,1303.372,757.1,1303.978Z" fill="#285011"/>
    <path id="Caminho_10" data-name="Caminho 10" d="M1179.1,1303.978a84.812,84.812,0,0,0-7.933,5.733c-2.553-5.977-5.117-11.951-7.632-17.937-.407-.968-2.514-1.1-2.832,0-1.888,6.5-3.975,12.96-6.206,19.4-2.91-1.663-5.9-3.205-9.075-4.625-1.225-.549-2.592.354-2.307,1.31,1.188,3.989,2.435,7.969,3.808,11.926-.692.5-.45,1.519.811,1.563,9.444.328,18.989.11,28.43-.2a1.509,1.509,0,0,0,1.423-.781,1.345,1.345,0,0,0,.793-.714,40.7,40.7,0,0,0,3.32-14.872C1181.742,1303.736,1180.052,1303.372,1179.1,1303.978Z" fill="#285011"/>
  </g>
</svg>
