<svg xmlns="http://www.w3.org/2000/svg" width="1953.282" height="245.509" viewBox="0 0 1953.282 245.509">
  <g id="receitas" transform="translate(26.406 -200.245)">
    <g id="Agrupar_132" data-name="Agrupar 132">
      <path id="Caminho_488" data-name="Caminho 488" d="M1.42,240.1c-5.14-.552-11.16,1.634-16.518,6a32.193,32.193,0,0,0-9.4,11.921,22.6,22.6,0,0,0-1.873,7.633c-.354,5.859,1.868,11.461,6.428,16.2,5.47,5.684,15.4,9.541,31.631-4.365,5.849-5.009,9.069-10.773,9.836-17.622.608-5.418-2.117-7.419-5.274-9.737a23.26,23.26,0,0,1-4.688-4.17A14.744,14.744,0,0,0,1.42,240.1Zm4.711,19.67A23.522,23.522,0,0,1-.727,269.2a11.545,11.545,0,0,1-3.2,1.849c-.975.374-2.8,1.489-3.852,1.1-1.122-.42,1.451-2.4,1.924-2.744a37.351,37.351,0,0,0,8.916-9.631c.75-1.063,1.67-2.964,2.977-3.466C7.732,255.65,6.339,259.248,6.131,259.767ZM.14,255c-.756,4.185-3.14,8.061-5.79,11.321-.389.48-3.914,4.845-4.373,3.737-.4-.975.618-2.573,1.066-3.461,1.111-2.193,2.445-4.258,3.581-6.43.495-.946,3.917-9.759,4.736-9.88C.951,250.05.231,254.495.14,255Z" fill="#ff921f"/>
      <path id="Caminho_489" data-name="Caminho 489" d="M77,317.783c4.4-3.543,7.356-9.88,8.123-17.388a35.147,35.147,0,0,0-1.948-16.463,24.663,24.663,0,0,0-4.449-7.342c-4.25-4.8-10.292-7.408-17.474-7.547-8.614-.165-19.258,4.522-21.057,27.8-.648,8.386,1.317,15.323,6.014,21.2,3.713,4.654,7.363,4.1,11.591,3.447a25.4,25.4,0,0,1,6.841-.4A16.1,16.1,0,0,0,77,317.783ZM58.174,306.231a25.7,25.7,0,0,1-1.985-12.578,12.623,12.623,0,0,1,1.042-3.9c.464-1.042,1.009-3.31,2.128-3.821,1.19-.543.735,2.976.633,3.605a40.768,40.768,0,0,0,.553,14.322c.241,1.4,1,3.579.377,4.976C60.117,310.646,58.414,306.793,58.174,306.231Zm8.31-.943c-2.647-3.815-3.8-8.65-4.271-13.214-.07-.671-.719-6.765.492-6.263,1.063.442,1.509,2.464,1.848,3.5.837,2.552,1.4,5.176,2.2,7.731.348,1.112,4.511,10.562,3.972,11.287C69.678,309.735,66.8,305.746,66.484,305.288Z" fill="#ff921f"/>
    </g>
    <path id="Caminho_490" data-name="Caminho 490" d="M449.521,276.3a125,125,0,0,0,13.378-10.42,20.932,20.932,0,0,1-3.179-17.994c2.206-7.741,7.483-15.644,12.042-22.167a54.33,54.33,0,0,1,8.178-9.416c4.844-4.337,11.24-6.966,13.215-13.7a1.52,1.52,0,0,1,2.1-1.025,3.123,3.123,0,0,1,1.5-1.238,1.179,1.179,0,0,1,1.378.337c9.867,12.687,18.33,30.347,14.248,46.743-3.437,13.8-17.928,26.9-32.568,27.076a20.229,20.229,0,0,1-14-5.341A130.965,130.965,0,0,1,452.1,279.78C451.232,278.628,450.386,277.461,449.521,276.3ZM486.8,215.493c-.926.7-1.807,1.415-2.667,2.148,1.6,1.117,2.37,4.08,2.917,5.7.668,1.977,2.008,5.191.829,7.106a.48.48,0,0,1-.754.018c-.8-.786-.815-1.8-1.082-2.86a35.045,35.045,0,0,0-1.249-4.022c-.524-1.367-1.829-3.066-2.151-4.634a57.746,57.746,0,0,0-8.351,9.617c2.417,5.64,3.834,12.127,5.254,18.081a95.741,95.741,0,0,0,14.579-38A32.543,32.543,0,0,1,486.8,215.493Zm14.848-3.379c-.205-.388-2.427-4.261-4.105-6.644a70.827,70.827,0,0,1-1.231,13.489c.824-.488,1.656-.959,2.475-1.434a20.89,20.89,0,0,1,4.41-2.345C502.685,214.153,502.178,213.126,501.644,212.114Zm4,8.4c-.4-.964-.843-1.909-1.279-2.857a22.946,22.946,0,0,1-4.5,2.324c-1.383.666-2.763,1.35-4.184,1.924a76.666,76.666,0,0,1-5.226,15.069c2.153-1.132,4.347-2.176,6.6-3.162,3.558-1.558,7.642-3.859,11.552-4.023A56.533,56.533,0,0,0,505.641,220.51Zm3.851,21.32a37.245,37.245,0,0,0-.417-9.616c-2.928,1.986-6.837,2.857-10.122,4.056s-6.562,2.442-9.888,3.54a92.928,92.928,0,0,1-10.217,15.645c4.844-.97,9.682-1.945,14.506-3.026,4.605-1.032,9.6-3,14.379-3.326A27.671,27.671,0,0,0,509.492,241.83Zm-33.2,28.5c11.931,2.158,23.793-6.5,29.606-17.247a95.467,95.467,0,0,1-11.1,2.385c-6.016,1.2-12.117,2.128-18.223,2.73a111.744,111.744,0,0,1-8.021,8.43A16.245,16.245,0,0,0,476.3,270.327Zm-8.27-9.356a96.857,96.857,0,0,0,10.623-13.014.831.831,0,0,1-.856-.542,136.647,136.647,0,0,1-5.368-16.037c-.116.185-.236.365-.352.552-3.543,5.72-7.983,12.206-9.15,18.942a17.032,17.032,0,0,0,2.7,12.477C466.433,262.569,467.237,261.783,468.027,260.971Z" fill="#ff921f"/>
    <path id="Caminho_491" data-name="Caminho 491" d="M1376.1,441.093a124.8,124.8,0,0,0,13.378-10.42,20.932,20.932,0,0,1-3.179-17.994c2.206-7.741,7.483-15.644,12.042-22.167a54.332,54.332,0,0,1,8.178-9.416c4.844-4.337,11.24-6.966,13.215-13.7a1.52,1.52,0,0,1,2.1-1.025,3.123,3.123,0,0,1,1.5-1.238,1.179,1.179,0,0,1,1.378.337c9.868,12.687,18.331,30.347,14.248,46.743-3.436,13.8-17.928,26.9-32.568,27.076a20.225,20.225,0,0,1-14-5.341,131.068,131.068,0,0,1-13.708,10.621C1377.811,443.415,1376.965,442.249,1376.1,441.093Zm37.275-60.812c-.926.7-1.807,1.415-2.667,2.148,1.6,1.117,2.37,4.08,2.918,5.7.667,1.977,2.007,5.191.828,7.106a.48.48,0,0,1-.754.018c-.8-.786-.815-1.8-1.082-2.86a35.252,35.252,0,0,0-1.248-4.022c-.525-1.367-1.829-3.066-2.151-4.634a57.76,57.76,0,0,0-8.352,9.617c2.417,5.64,3.835,12.127,5.255,18.081A95.772,95.772,0,0,0,1420.7,373.44,32.569,32.569,0,0,1,1413.375,380.281Zm14.848-3.379c-.205-.388-2.427-4.261-4.1-6.644a70.913,70.913,0,0,1-1.23,13.489c.823-.488,1.655-.959,2.474-1.434a20.886,20.886,0,0,1,4.41-2.345C1429.265,378.941,1428.758,377.914,1428.223,376.9Zm4,8.4c-.4-.964-.843-1.909-1.279-2.857a22.947,22.947,0,0,1-4.5,2.324c-1.383.666-2.762,1.35-4.184,1.924a76.671,76.671,0,0,1-5.225,15.069c2.152-1.132,4.346-2.176,6.6-3.162,3.558-1.558,7.642-3.859,11.552-4.023A56.536,56.536,0,0,0,1432.22,385.3Zm3.851,21.32a37.246,37.246,0,0,0-.417-9.616c-2.927,1.986-6.836,2.857-10.121,4.056s-6.563,2.442-9.889,3.54a92.872,92.872,0,0,1-10.217,15.645c4.844-.97,9.682-1.945,14.506-3.026,4.6-1.032,9.6-3,14.38-3.326A27.71,27.71,0,0,0,1436.071,406.618Zm-33.194,28.5c11.93,2.158,23.792-6.5,29.605-17.247a95.467,95.467,0,0,1-11.1,2.385c-6.015,1.2-12.116,2.128-18.223,2.73a111.914,111.914,0,0,1-8.02,8.43A16.24,16.24,0,0,0,1402.877,435.115Zm-8.271-9.356a96.938,96.938,0,0,0,10.624-13.014.832.832,0,0,1-.857-.542,136.466,136.466,0,0,1-5.367-16.037c-.117.185-.237.365-.353.552-3.543,5.72-7.982,12.206-9.15,18.942a17.028,17.028,0,0,0,2.7,12.477C1393.012,427.357,1393.817,426.571,1394.606,425.759Z" fill="#ff921f"/>
    <g id="Agrupar_133" data-name="Agrupar 133">
      <path id="Caminho_492" data-name="Caminho 492" d="M1842.949,363.931c-5.14-.552-11.16,1.634-16.518,6a32.194,32.194,0,0,0-9.4,11.921,22.573,22.573,0,0,0-1.873,7.633c-.355,5.859,1.867,11.461,6.427,16.2,5.47,5.684,15.4,9.541,31.632-4.365,5.849-5.009,9.069-10.773,9.835-17.622.609-5.418-2.116-7.418-5.273-9.737a23.26,23.26,0,0,1-4.688-4.17A14.748,14.748,0,0,0,1842.949,363.931Zm4.711,19.67a23.531,23.531,0,0,1-6.858,9.429,11.56,11.56,0,0,1-3.2,1.849c-.975.374-2.8,1.489-3.852,1.1-1.122-.42,1.451-2.4,1.924-2.744a37.327,37.327,0,0,0,8.915-9.631c.751-1.063,1.671-2.964,2.978-3.466C1849.26,379.484,1847.868,383.082,1847.66,383.6Zm-5.991-4.77c-.757,4.185-3.141,8.061-5.79,11.321-.389.48-3.915,4.845-4.374,3.737-.4-.975.619-2.573,1.067-3.461,1.111-2.193,2.444-4.258,3.581-6.43.494-.946,3.917-9.759,4.736-9.88C1842.48,373.884,1841.76,378.329,1841.669,378.831Z" fill="#ff921f"/>
      <path id="Caminho_493" data-name="Caminho 493" d="M1918.532,441.617c4.4-3.543,7.356-9.88,8.123-17.388a35.16,35.16,0,0,0-1.948-16.463,24.663,24.663,0,0,0-4.449-7.342c-4.25-4.8-10.292-7.408-17.474-7.547-8.614-.165-19.258,4.522-21.057,27.8-.648,8.386,1.316,15.323,6.014,21.2,3.713,4.654,7.363,4.1,11.591,3.447a25.4,25.4,0,0,1,6.841-.4A16.1,16.1,0,0,0,1918.532,441.617ZM1899.7,430.065a25.687,25.687,0,0,1-1.985-12.578,12.592,12.592,0,0,1,1.041-3.9c.464-1.042,1.01-3.31,2.129-3.821,1.19-.543.735,2.976.633,3.6a40.77,40.77,0,0,0,.553,14.322c.241,1.4,1,3.579.376,4.976C1901.646,434.48,1899.943,430.627,1899.7,430.065Zm8.31-.943c-2.647-3.815-3.8-8.65-4.271-13.214-.07-.671-.719-6.764.491-6.263,1.064.442,1.509,2.464,1.849,3.5.836,2.552,1.4,5.176,2.2,7.731.349,1.112,4.512,10.562,3.972,11.287C1911.207,433.569,1908.331,429.58,1908.013,429.122Z" fill="#ff921f"/>
    </g>
    <path id="Caminho_494" data-name="Caminho 494" d="M1695.372,305.331a124.741,124.741,0,0,0,13.378-10.42,20.935,20.935,0,0,1-3.18-17.994c2.206-7.741,7.484-15.644,12.043-22.166a54.292,54.292,0,0,1,8.178-9.417c4.844-4.337,11.239-6.966,13.214-13.7a1.521,1.521,0,0,1,2.1-1.024,3.119,3.119,0,0,1,1.5-1.239,1.181,1.181,0,0,1,1.378.338c9.867,12.687,18.33,30.347,14.248,46.742-3.437,13.8-17.928,26.9-32.568,27.077a20.236,20.236,0,0,1-14-5.341,130.933,130.933,0,0,1-13.707,10.62C1697.083,307.654,1696.236,306.487,1695.372,305.331Zm37.275-60.812c-.926.7-1.807,1.416-2.667,2.149,1.6,1.116,2.37,4.079,2.917,5.7.668,1.977,2.008,5.19.828,7.1a.48.48,0,0,1-.754.019c-.8-.786-.815-1.8-1.082-2.86a35.033,35.033,0,0,0-1.248-4.022c-.524-1.368-1.829-3.067-2.151-4.635a57.711,57.711,0,0,0-8.351,9.618c2.416,5.639,3.834,12.127,5.254,18.08a95.756,95.756,0,0,0,14.579-38A32.564,32.564,0,0,1,1732.647,244.519Zm14.847-3.379c-.205-.388-2.426-4.261-4.1-6.643a70.992,70.992,0,0,1-1.231,13.488c.823-.487,1.656-.959,2.474-1.434a20.909,20.909,0,0,1,4.41-2.344C1748.536,243.18,1748.029,242.152,1747.494,241.14Zm4,8.4c-.4-.964-.844-1.909-1.28-2.857a22.891,22.891,0,0,1-4.5,2.324c-1.383.667-2.762,1.351-4.183,1.924A76.715,76.715,0,0,1,1736.305,266c2.152-1.132,4.346-2.175,6.6-3.162,3.557-1.558,7.642-3.859,11.552-4.023A56.63,56.63,0,0,0,1751.492,249.536Zm3.851,21.321a37.329,37.329,0,0,0-.417-9.616c-2.928,1.985-6.837,2.856-10.122,4.055s-6.562,2.443-9.888,3.541a93,93,0,0,1-10.217,15.645c4.843-.97,9.682-1.946,14.506-3.027,4.605-1.032,9.6-3,14.379-3.325A27.684,27.684,0,0,0,1755.343,270.857Zm-33.2,28.5c11.931,2.158,23.792-6.5,29.605-17.247a95.173,95.173,0,0,1-11.1,2.385c-6.015,1.2-12.116,2.129-18.222,2.73a111.941,111.941,0,0,1-8.021,8.431A16.249,16.249,0,0,0,1722.148,299.353Zm-8.27-9.355a97.086,97.086,0,0,0,10.623-13.015.831.831,0,0,1-.856-.541,136.6,136.6,0,0,1-5.368-16.037c-.117.184-.236.364-.352.551-3.543,5.72-7.983,12.206-9.15,18.943a17.029,17.029,0,0,0,2.7,12.477C1712.284,291.6,1713.088,290.809,1713.878,290Z" fill="#ff921f"/>
    <path id="Caminho_495" data-name="Caminho 495" d="M674.918,350.79s-95.828,6.853-73.621-35.961c8.364-16.127,28.728-15.871,39.554,6.365C646.887,333.591,651.412,343.234,674.918,350.79Z" fill="#ff921f"/>
    <path id="Caminho_496" data-name="Caminho 496" d="M282.149,360.331S257.561,453.2,224.26,418.314c-12.544-13.142-5.7-32.322,18.847-35.354C256.792,381.27,267.381,380.116,282.149,360.331Z" fill="#ff921f"/>
    <path id="Caminho_497" data-name="Caminho 497" d="M1219.506,357.211s41.714-86.544,67.813-45.985c9.831,15.278-.519,32.817-25.195,31.15C1248.367,341.447,1237.75,340.576,1219.506,357.211Z" fill="#ff921f"/>
  </g>
</svg>
