<svg xmlns="http://www.w3.org/2000/svg" width="522.991" height="125.106" viewBox="0 0 522.991 125.106">
  <g id="titulo_arearestritia_3" transform="translate(-700.995 -329.136)">
    <path id="Caminho_21" data-name="Caminho 21" d="M1208.652,356.164c0-2.73,7.994-5.534,10-9,1.834-3.167-6.166-7.167-12.666-14.167-34.643,1.729-73.024,2.423-107.667,3.5-65.215,2.065-133.768,3.18-199,3-62.871-.179-132.176.3-195-4.5,3.263,4.759-.516.056,3,4.5.607.749,3.4,3.042,2.5,5l8.125,6.625-6,5.25a73.354,73.354,0,0,1-8.5,9.5c1.625,3.125,4.146,4.442,4.875,5.25,3.247,3.547,12.146,5.273,11.75,12.5-.412,7.5-8.985,8.22-12.375,13a9.064,9.064,0,0,0-1.625,5c.079,1.235,7.121,8.112,7.77,8.92,4.98,3.33,5.818,2.149,9.73,5.83,1.473,1.37-4.74,4.925-6,6.75-5.951,8.623-16.114,14.366-9.448,31.12,36.069-3.569,72.565-2.671,108.7-3.479q58.286-1.314,116.57-2.133a.667.667,0,0,1,1.188-.022c90.64-1.324,196.436-.425,287.075-.111l-9-21.666,9.334-17.334-10.278-18.552,12.278-14.114-9.667-12Z" fill="#ef5a24"/>
    <g id="Agrupar_25" data-name="Agrupar 25">
      <path id="Caminho_22" data-name="Caminho 22" d="M709.807,337.114c3.263,3.522,6.51,7.028,10.027,10.317a2.931,2.931,0,0,1,0,4L709.68,361.7c-.95.947-2.693,1.877-2.63,3.223.032.615,4.325,3.506,5.054,4.1,3.247,2.625,11.864,6.928,11.468,12.277-.412,5.549-9.979,10.8-13.369,14.338-.729.764-2.345,1.611-2.234,2.94.079.914,4.721,4.669,5.37,5.267a108.037,108.037,0,0,0,11.215,8.838,2.916,2.916,0,0,1,.539,4.386c-5.655,6.529-11.326,13.075-17.472,19.122,36.069-2.641,72.565-1.977,108.7-2.575q58.286-.972,116.57-1.578a.79.79,0,0,1,1.188-.017q135.96-1.47,271.92-1.129a163.718,163.718,0,0,0-14.938-13.723,3,3,0,0,1,0-4.087,155.27,155.27,0,0,0,14.066-14.221,114.238,114.238,0,0,0-14.019-12.145,3.05,3.05,0,0,1-.57-4.585,203.045,203.045,0,0,0,15.54-17l-14.162-9.769c-2-1.379-5.481-2.907-5.766-5.864-.475-4.835,6.511-10.6,12.229-14.537q-51.964,1.918-103.946,3.14Q996.608,340.4,898.753,340.2C835.882,340.071,772.63,340.669,709.807,337.114Zm8.284,113.67a54.5,54.5,0,0,1-11.817-9.9c-.443-.016-.9-.016-1.346-.033-2.186-.083-2.6-2.708-1.331-3.887a1.368,1.368,0,0,1,.174-1.28c4.768-6.994,10.091-13.54,15.461-20.036a110,110,0,0,1-9.726-7.775c-2.186-1.977-6.02-4.6-6.986-7.559-2.408-7.509,9.3-12.842,13.211-17.461,2.376-2.824,2-1.811-.412-4.037-2.2-2.06-4.72-3.854-7.065-5.748-2.249-1.828-6.605-3.987-7.191-7.377-.365-2.143.792-3.688,2-5.233,3.1-3.937,7.16-7.459,10.85-10.982a99.786,99.786,0,0,1-11.769-13.025c-1.7-.98-1.41-4.136.95-4.153h.27a2.4,2.4,0,0,1,1.6-.017c36.117-.2,72.249,1.2,108.366,1.662q195.67,2.566,391.293-4.8a2.435,2.435,0,0,1,2.567,2.476,2.9,2.9,0,0,1-.333,4.569.056.056,0,0,0-.032.016c1.473,1.064,2.915,2.177,4.372,3.256a29.748,29.748,0,0,1,5.37,4.4.7.7,0,0,1-.808,1.113c-2.217-1.08-4.087-2.924-6-4.5-1.014-.814-2.028-1.645-3.042-2.475-.095-.084-.6-.482-1.219-.964-1.489.964-3.073,2.027-4.658,3.173a47.867,47.867,0,0,1,8.079,7.044c.507.6-.158,1.645-.839,1.147a94.893,94.893,0,0,1-8.443-7.277,41.784,41.784,0,0,0-4.119,3.622c3.026,2.359,6.257,4.485,9.029,7.11.523.5-.142,1.246-.713.964-3.31-1.7-6.336-4.5-9.155-7.161a21.676,21.676,0,0,0-2.5,3.257c2.233,2.309,7.3,4.7,9.314,6.1,3.39,2.326,6.764,4.652,10.154,6.994a3.049,3.049,0,0,1,.57,4.569c-.507.648-1.03,1.262-1.537,1.894a25.756,25.756,0,0,1,7.208,6.263c.38.515-.364,1.3-.855.914-1.569-1.246-2.915-2.808-4.436-4.12-.855-.765-1.758-1.462-2.661-2.143-1.3,1.561-2.614,3.123-3.944,4.651,3.485,2.708,7.191,5.367,10.169,8.573.507.548-.158,1.495-.776,1.08-3.612-2.476-6.859-5.782-10.106-8.855-1.41,1.6-2.82,3.206-4.277,4.751,3.247,3.34,6.732,6.3,10.217,9.37.539.482-.174,1.429-.76,1.03a58.8,58.8,0,0,1-10.2-9.619c-1.14,1.2-2.265,2.376-3.437,3.539a121.888,121.888,0,0,1,14.13,12.776,3.08,3.08,0,0,1,0,4.12c-.079.1-.174.2-.27.3a21.349,21.349,0,0,1,7.7,6.944c.38.615-.507,1.313-.966.781a35.564,35.564,0,0,0-7.414-6.944c-1.045,1.213-2.106,2.425-3.184,3.605a97.187,97.187,0,0,1,9.853,9.27c.491.565-.174,1.6-.792,1.1a102.37,102.37,0,0,1-9.773-9.6c-1.394,1.495-2.8,2.974-4.262,4.419,3.406,3.572,7.1,6.779,10.455,10.384.444.482-.142,1.312-.7.947-4.023-2.675-7.508-6.546-10.645-10.417-1.235,1.213-2.487,2.392-3.77,3.572a117.371,117.371,0,0,1,13.354,14.969,2.153,2.153,0,0,1,.174,2.376,3.458,3.458,0,0,1,.174,2.043c.666.665,1.315,1.346,2,1.994,1.917,1.811,4.056,3.4,5.909,5.283.633.648-.19,1.777-.951,1.279a40.1,40.1,0,0,1-7.888-6.994,2.575,2.575,0,0,1-1.632.565c-3.4-.017-6.811,0-10.2-.017.935.914,1.822,1.877,2.709,2.741,1.742,1.678,4.134,3.439,5.211,5.665a.624.624,0,0,1-.824.864c-2.154-1.046-3.928-3.522-5.575-5.266-1.236-1.3-2.63-2.575-3.786-4h-9.6a42.144,42.144,0,0,1,8.127,6.662c.7.764-.222,2.077-1.093,1.495-3.739-2.508-7.192-5.449-10.82-8.157-4.055,0-8.094-.017-12.149-.017a26.6,26.6,0,0,1,4.625,3.174,73.02,73.02,0,0,0,9.932,7.127c.713.432.174,1.4-.523,1.3-7.1-1.1-10.724-9.62-17.63-11.6h-7.6c4.2,3.207,8.665,6.4,12.134,10.317.507.565-.142,1.462-.792,1.08-5.116-2.99-9.6-7.509-14.129-11.4-3.311,0-6.622-.016-9.933,0,4.879,3.921,9.98,7.476,14.891,11.347.712.565.11,1.745-.713,1.3-5.925-3.289-11.405-7.958-16.411-12.643h-9.172c5.117,4.021,10.249,8.091,15.049,12.494.665.614-.238,1.827-.951,1.3-5.766-4.287-11.246-9.055-16.68-13.79h-7.983c4.387,4.037,8.854,8.357,13.923,10.982.666.349.159,1.279-.459,1.163-3.1-.515-5.322-3.107-7.588-5.184-2.518-2.309-5.021-4.635-7.524-6.944h-9.076c3.991,3.489,8.015,6.978,11.674,10.815.523.549-.19,1.562-.792,1.08-4.594-3.655-8.855-7.808-13.132-11.895-2.9.017-5.8,0-8.7.017,1.219,1.3,2.471,2.558,3.77,3.754,2.8,2.592,6.225,4.552,8.855,7.294.4.4,0,1.212-.555,1-3.2-1.229-6.051-3.954-8.6-6.3a65.127,65.127,0,0,1-5.449-5.748H1096.9c-1.489.016-2.978.016-4.467.033,3.785,3.455,7.777,6.878,11.04,10.815.491.6-.19,1.7-.871,1.163-4.372-3.489-8.221-7.908-12.165-11.978l-7.113.05c3.754,4.1,7.936,7.293,12.324,10.782a.667.667,0,0,1-.649,1.163c-5.117-2.609-9.647-7.26-13.243-11.945-2.471.016-4.958.016-7.445.033,1.631,1.661,3.3,3.306,4.99,4.884,2.154,1.994,4.657,3.738,6.621,5.931.475.515-.127,1.346-.713.981a38.043,38.043,0,0,1-6.479-5.632c-1.995-1.978-3.9-4.021-5.734-6.148-2.36.017-4.72.017-7.081.034q2.781,2.74,5.529,5.515c2.217,2.243,4.72,4.37,6.494,7.028.46.681-.443,1.6-1.093,1.146-2.582-1.761-4.7-4.352-6.906-6.6-2.3-2.359-4.578-4.7-6.843-7.078-2.994.017-5.972.017-8.95.05,1.378,1.23,2.772,2.476,4.15,3.722,2.36,2.126,5.829,6.678,9,7.227.728.132.586,1.212,0,1.412-2.915,1.013-5.37-2.509-7.335-4.336q-4.229-3.989-8.443-8.025l-7.318.05c4.515,3.422,9.077,7.111,12.593,11.414.491.581-.142,1.611-.823,1.129-5.164-3.638-9.837-8.273-14.637-12.526-3.58.016-7.176.033-10.756.066a126.575,126.575,0,0,1,14.985,12.793c.6.631-.206,1.794-.934,1.262-5.925-4.27-11.374-9.353-17.013-14.038-3.089.016-6.162.033-9.251.066,1.537,1.495,3.1,2.941,4.736,4.336,3.327,2.841,7.113,5.1,10.344,8.025.729.648-.206,1.611-.934,1.262-6.083-2.857-11.786-8.29-16.617-13.606l-8.506.05c4.134,3.439,8.522,6.479,12.989,9.552a.763.763,0,0,1-.745,1.329,62.341,62.341,0,0,1-15.048-10.848c-3.77.033-7.54.05-11.31.083a179.514,179.514,0,0,0,13.971,11.762c.681.549.111,1.645-.7,1.23-5.893-3.124-11.025-7.908-15.555-12.975-3.39.016-6.764.049-10.154.066,1.821,1.695,3.659,3.339,5.56,4.918,1.014.847,9.346,6.147,9.346,7.376a.729.729,0,0,1,1.457.033,3.91,3.91,0,0,1,.016.432.812.812,0,0,1-.555.764c-2.724,1-6.336-3.173-8.316-4.768a118.555,118.555,0,0,1-9.583-8.738c-2.281.033-4.562.033-6.844.066,3.834,3.705,7.952,7.044,11.8,10.782a.72.72,0,0,1-.84,1.147c-4.9-3.007-9.2-7.477-13.1-11.912-2.883.016-5.782.033-8.681.066a49.133,49.133,0,0,0,5.434,5.881c2.5,2.243,5.37,3.838,7.92,5.948a.615.615,0,0,1-.554,1.03c-5.687-2.027-10.93-7.642-14.336-12.842-2.867.016-5.719.033-8.586.066a133.5,133.5,0,0,1,13.053,11.131c.38.382-.111,1.064-.555.764a102.809,102.809,0,0,1-8.015-6.578c-1.536-1.346-3.089-2.692-4.609-4.054-.46-.4-.919-.831-1.379-1.246-3.231.033-6.447.05-9.678.083,1.061,1.046,2.107,2.077,3.184,3.09,2.994,2.791,6.558,5.25,9.2,8.39a.92.92,0,0,1-1.077,1.462c-3.406-1.894-6.352-5.067-9.188-7.775q-2.613-2.493-5.084-5.134c-2.392.033-4.768.05-7.16.083,3.548,2.692,7.1,5.649,9.552,9.138a.812.812,0,0,1-1.078,1.129c-2.455-1.661-4.53-3.987-6.748-6-1.584-1.446-3.184-2.858-4.815-4.253-2.424.033-4.847.05-7.271.083a107.13,107.13,0,0,1,11.579,10.616c.555.615-.19,1.728-.887,1.213-4.736-3.423-8.981-7.692-13.2-11.8-2.614.017-5.227.05-7.841.083,4.34,3.838,9.077,7.609,12.688,12.161.523.665-.158,1.8-.934,1.263-5.259-3.622-9.79-8.789-14.415-13.258a.771.771,0,0,1-.1-.149c-1.537.033-3.089.033-4.626.05-.269.016-.554.016-.839.016,1.362,1.246,2.74,2.476,4.15,3.672,2.725,2.326,5.845,4.436,8.237,7.144a.733.733,0,0,1-.855,1.163c-3.042-1.562-5.735-4.17-8.317-6.446-2.011-1.762-3.976-3.606-5.892-5.5-2.725.05-5.434.083-8.158.117a92.442,92.442,0,0,1,11.817,9.968c.57.581-.158,1.578-.84,1.146a103.175,103.175,0,0,1-13.733-11.064c-2.868.033-5.735.066-8.6.116,4.277,3.489,8.792,6.629,12.847,10.35.649.582-.174,1.512-.855,1.163-5.26-2.741-10.075-7.21-14.447-11.48-2.867.05-5.75.083-8.617.116,1.5,1.23,3.009,2.443,4.546,3.606,2.756,2.076,5.766,3.837,8.364,6.13.586.532-.159,1.3-.745,1.03-5.085-2.392-10.043-6.529-14.415-10.732l-10.344.149c4.024,3.223,8.285,6,12.546,8.988a.819.819,0,0,1-.792,1.429c-5.211-2.442-9.964-6.313-14.256-10.384-2.091.034-4.182.05-6.273.083a47.116,47.116,0,0,1,9.758,8.108c.38.432-.111,1.213-.618.847-3.945-2.758-7.525-6.031-11.405-8.921-2.693.049-5.37.083-8.063.116,1.758,1.412,3.469,2.891,5.259,4.253,2.186,1.661,4.594,3.057,6.669,4.884.6.549-.175,1.363-.792,1.08a36.359,36.359,0,0,1-7.081-4.984,47.551,47.551,0,0,1-5.655-5.216l-9.235.149a122.62,122.62,0,0,0,11.326,9.154.8.8,0,0,1-.776,1.4,45.215,45.215,0,0,1-13.085-10.517c-2.312.034-4.641.067-6.954.117,1.125.963,2.265,1.91,3.374,2.874,2.313,2.01,5.053,3.9,6.859,6.413.618.863-.538,1.794-1.315,1.379-2.661-1.462-4.878-4.038-7.144-6.1-1.631-1.495-3.263-3.007-4.879-4.519l-6.843.1a73.562,73.562,0,0,1,9.441,8.606c.618.714-.19,1.96-1.013,1.379-3.961-2.741-7.588-6.463-11.073-9.935l-7.207.149c1.378,1.3,2.772,2.559,4.15,3.871,2.376,2.243,5.005,4.386,6.938,7.078a.747.747,0,0,1-.982,1.046c-2.709-1.827-4.927-4.469-7.239-6.778-1.679-1.711-3.343-3.439-5.006-5.167-2.17.05-4.324.083-6.495.15.65.565,1.3,1.146,1.965,1.694,2.233,1.861,4.768,3.373,6.89,5.367.713.664-.206,1.694-.982,1.312-3.675-1.861-7.1-5.05-10.106-8.323-2.645.066-5.291.133-7.952.216.808.747,1.6,1.511,2.408,2.259,2.043,1.911,4.467,3.672,6.1,6,.349.531-.316,1.063-.776.814-2.439-1.313-4.451-3.705-6.415-5.682-1.077-1.1-2.139-2.21-3.2-3.34l-7.857.2c3.9,3.156,7.794,6.346,11.342,9.852.618.614-.206,1.761-.9,1.229A168.038,168.038,0,0,1,764.615,440.5l-7.857.2c3.247,2.907,6.653,5.515,10.106,8.273.7.565.111,1.711-.7,1.263a45.889,45.889,0,0,1-11.31-9.486l-6.431.149a85.035,85.035,0,0,1,8.237,7.576c.57.631-.206,1.777-.919,1.246a101.981,101.981,0,0,1-9.678-8.789c-2.313.05-4.61.1-6.923.133a50.08,50.08,0,0,1,8.111,7.526.7.7,0,0,1-.951,1.014c-3.31-2.775-6.478-5.716-9.742-8.523-2.423.033-4.863.05-7.286.05a48.55,48.55,0,0,1,8.142,8.041c.523.7-.285,1.545-.935.98-3.342-2.924-6.463-6.048-9.742-9.021-3.1,0-6.193-.017-9.3-.05a81.8,81.8,0,0,1,10.3,8.473.666.666,0,0,1-.919.963c-3.817-3.156-7.524-6.4-11.389-9.469-2-.034-4.008-.05-6-.1,3.279,2.791,6.59,5.565,9.584,8.606A.778.778,0,0,1,718.091,450.784Z" fill="#fff"/>
    </g>
  </g>
</svg>
