<svg xmlns="http://www.w3.org/2000/svg" width="596.548" height="187.173" viewBox="0 0 596.548 187.173">
  <g id="titulo_4" transform="translate(-661.726 -3496)">
    <g id="Agrupar_7" data-name="Agrupar 7">
      <g id="Agrupar_6" data-name="Agrupar 6">
        <path id="Caminho_4" data-name="Caminho 4" d="M960,3681.077c-8.253-15.571-35.629-23.449-63.2-25.944-37.887-3.429-78.516-1.7-115.857,2.748-19.931,2.373-42.193,5.485-61.359-.135-21.943-6.433-19.509-20.005-17.27-31.587,2.093-10.829-.674-27.3-19.775-32.037,17.351-5.906,25.965-18.093,27.416-29.255,1.591-12.23-3.584-24.732.718-36.866,5.987-16.886,31.786-18.275,57.7-14.725,56.226,7.7,148.294,20.084,186.111-13.752,2.923-2.615-4.576-5-7.492-2.4-19.073,17.041-58.689,20.4-92.333,19.922a500.775,500.775,0,0,1-63.892-5.013c-15.488-2.226-31.15-5.331-47.39-5.055-84.52,1.432-.7,78.738-78.754,86.083-4.495.423-3.5,4.741,1.088,4.406,46.525-3.4,21.407,38.423,29.751,51.643,8.091,12.818,33.551,17.157,56.213,16.153,15.121-.669,29.687-3.141,44.565-4.613a599.585,599.585,0,0,1,61.448-2.642c36.138.153,81.613,2.526,96.247,23.982C955.332,3684.028,961.146,3683.241,960,3681.077Z" fill="#285011"/>
        <path id="Caminho_5" data-name="Caminho 5" d="M960,3681.077c8.253-15.571,35.629-23.449,63.2-25.944,37.887-3.429,78.516-1.7,115.857,2.748,19.931,2.373,42.193,5.485,61.359-.135,21.943-6.433,19.509-20.005,17.27-31.587-2.093-10.829.674-27.3,19.775-32.037-17.351-5.906-25.965-18.093-27.416-29.255-1.591-12.23,3.584-24.732-.718-36.866-5.987-16.886-31.786-18.275-57.7-14.725-56.226,7.7-148.294,20.084-186.111-13.752-2.923-2.615,4.576-5,7.492-2.4,19.073,17.041,58.689,20.4,92.333,19.922a500.776,500.776,0,0,0,63.892-5.013c15.488-2.226,31.15-5.331,47.39-5.055,84.52,1.432.7,78.738,78.754,86.083,4.495.423,3.5,4.741-1.088,4.406-46.525-3.4-21.407,38.423-29.751,51.643-8.091,12.818-33.551,17.157-56.213,16.153-15.121-.669-29.687-3.141-44.565-4.613a599.584,599.584,0,0,0-61.448-2.642c-36.138.153-81.613,2.526-96.247,23.982C964.668,3684.028,958.854,3683.241,960,3681.077Z" fill="#285011"/>
      </g>
    </g>
    <path id="Caminho_6" data-name="Caminho 6" d="M819.4,3591.711c-3.367-4.866-9.473-6.078-14.012-3.1-4.792,1.077-8.072,7.076-6.7,12.182,1.87,6.957,9.54,10.087,16.019,7.5C821.506,3605.587,823.5,3597.633,819.4,3591.711Z" transform="translate(-56 -9)" fill="#285011"/>
    <path id="Caminho_7" data-name="Caminho 7" d="M1111.4,3591.711c-3.367-4.866-9.473-6.078-14.012-3.1-4.792,1.077-8.072,7.076-6.7,12.182,1.87,6.957,9.54,10.087,16.019,7.5C1113.506,3605.587,1115.5,3597.633,1111.4,3591.711Z" transform="translate(66.868 -9)" fill="#285011"/>
  </g>
</svg>
