<svg xmlns="http://www.w3.org/2000/svg" width="667" height="145" viewBox="0 0 667 145">
  <g id="titulo_3" transform="translate(-626 -456.032)">
    <path id="Caminho_11" data-name="Caminho 11" d="M1292.2,592.312c-10.106-23.234-39.128-45.141-63.106-64.8a3.5,3.5,0,0,0,1.913-.779c22.772-19.931,42.093-41.539,60.2-62.8,1.381-1.621-.832-3.124-3.272-3.386-.61-.77-1.889-1.384-3.867-1.436-109.737-2.9-219.671-3.34-329.52-2.955q-80.867.283-161.722,1.047c-54.237.457-109.381-.51-163.453,1.892-3.492.155-4.285,2.282-2.325,3.285.012.018.013.034.026.052,15.744,22.708,33.332,45.8,57.378,66.35a2.75,2.75,0,0,0,.357.209c-5.822,3.592-8.946,8.273-12.822,12.539-5.467,6.016-10.952,12.027-16.387,18.051-10.076,11.169-20.312,22.312-28.89,33.849l0,.009c-1.382,1.013-.5,2.773,2.587,2.933,54.94,2.843,111.137,2.035,166.3,2.757,54.465.713,108.934,1.373,163.413,1.7,109.921.659,219.906-.1,329.58-4.395C1292.78,596.265,1293.988,593.693,1292.2,592.312Zm-333.189,3.654c-54.479-.307-108.948-.949-163.413-1.642-53.915-.687-108.674-2.88-162.6-1.664,10.233-9.551,19.267-19.451,28.374-29.325,4.61-5,9.176-10.006,13.751-15.013,4.873-5.332,9.247-12.246,16.429-16.765,2.174-1.368.715-3.115-1.585-3.666a1.136,1.136,0,0,0-.3-.759c-18.24-21.317-37.561-42.111-53.025-64.09,51.836,1.123,104.374-.639,156.188-1.067q80.857-.669,161.722-1.02c109.184-.362,218.337.318,327.425,2.913-18.775,20.355-38.6,40.561-56.294,61.179a1.058,1.058,0,0,0-.268.932c-3.1-.171-6.406,1.517-4.263,3.355,12.211,10.481,24.823,20.815,36.187,31.578,10.533,9.975,18.913,20.489,28.727,30.632C1177.23,595.786,1068.088,596.581,959.009,595.966Z" fill="#fff"/>
    <path id="Caminho_12" data-name="Caminho 12" d="M767.263,523.261a8.337,8.337,0,0,0-11.507-2.543c-3.935.884-6.629,5.811-5.5,10.005,1.536,5.712,7.834,8.283,13.155,6.16C768.994,534.656,770.628,528.124,767.263,523.261Z" fill="#fff"/>
    <path id="Caminho_13" data-name="Caminho 13" d="M1155.267,523.261a8.337,8.337,0,0,0-11.507-2.543c-3.935.884-6.629,5.811-5.5,10.005,1.537,5.712,7.834,8.283,13.156,6.16C1157,534.656,1158.632,528.124,1155.267,523.261Z" fill="#fff"/>
  </g>
</svg>
