<svg xmlns="http://www.w3.org/2000/svg" width="425.883" height="126.673" viewBox="0 0 425.883 126.673">
  <g id="titulo_7" transform="translate(-734.643 -288.407)">
    <g id="Agrupar_19" data-name="Agrupar 19" transform="translate(-2 -12)">
      <g id="Agrupar_16" data-name="Agrupar 16">
        <g id="Agrupar_15" data-name="Agrupar 15">
          <path id="Caminho_15" data-name="Caminho 15" d="M1127.263,364.69c11.384-10.811,25.863-21.895,33.78-33.128.013-.019,0-.036.01-.055,2.379-.561,1.888-2.017-1.555-2.175-23.225-1.064-47.777-.216-71.143.147.014-9.237-1.615-18.42-7.1-27.2-.007-.9-1.537-1.787-4.6-1.785-101.444.088-18.488.176-119.932.263-101.13.088-33.056-1.274-134.048.836-2.126.045-3.1.677-2.991,1.278a.583.583,0,0,0-.294.555q2.119,12.16,3.815,24.278c-12.22-1.038-25.342-.919-37.817-1.119-15.124-.243-30.453-.571-45.524.025-1.509.06-2.479.608-2.447,1.1-.761.314-1.063.763-.454,1.309,11.987,10.722,23.42,21.6,36.916,32.075-13.964,9.929-22.634,21.76-31.863,32.424-.4.463.06.994.935,1.333a7.214,7.214,0,0,0,2.24.59c-2.008.584-1.362,1.983,1.85,2.106,25.8.991,56.393,1.738,81.9-.254.054-.005.084-.016.137-.021.232,9.433.246,18.881-.031,28.359-.041,1.4,3.984,1.757,6.3,1.13,49.953.724,77.788-1.757,126.718-1.794,99.13-.074,13.619,1.466,112.691,2.113,5.013.033,5.963-2.219,3.017-3.211,1.392-6.846,2.381-13.713,3.191-20.588,24.885,1.146,49.987.848,74.907-.053,2.339-.085,3.534-.8,3.627-1.5,1.135.21,2.866-.006,2.7-.583-3.535-12.033-20.263-25.486-36.206-35.936A2.575,2.575,0,0,0,1127.263,364.69ZM751.628,334.407c23.062.517,46.165.992,69.26,1.234,4.172.044,4.17-2.4,0-2.445-23.393-.235-46.829-.231-70.228-.186a4.457,4.457,0,0,0-.552.042c-1.561-1.391-3.127-2.783-4.68-4.173,12.126.709,24.472.911,36.714,1.145,13.66.261,27.817.9,41.4.2.4,2.962.707,5.921,1.04,8.882-22.9-.263-45.495.1-68.4-.629Q753.908,336.439,751.628,334.407Zm6.126,5.475c21.911,1.207,45.16,2.031,67.035.938.158,1.45.359,2.9.509,4.35a6.577,6.577,0,0,0-.774-.069c-19.93-.433-40.378.312-60.44.473C762,343.672,759.875,341.777,757.754,339.882Zm7.6,6.844c19.516.438,39.929,1.009,59.169.076a6.269,6.269,0,0,0,.93-.11c.186,1.84.387,3.68.562,5.519-17.554-.909-36.436-.175-54.138.636Q768.686,349.776,765.355,346.726Zm7.41,6.993c17.791-.089,35.748.462,53.4.066.134,1.442.292,2.884.419,4.326-16.282-.1-32.662.2-48.931.394l-.011,0C776.075,356.9,774.407,355.312,772.765,353.719Zm7.727,7.754c-.576-.617-1.185-1.23-1.776-1.846,15.978.192,32.061.476,48.046.38.116,1.366.267,2.733.376,4.1-16.221-.413-33.161.281-49.512.443.469-.629.987-1.255,1.394-1.888C780.163,362.452,780.993,362.011,780.492,361.473Zm-3.768,4.3c16.509.356,34.181.977,50.578.207.08,1.033.2,2.066.272,3.1-18.207.71-36.094,1-54.356.72C774.477,368.459,775.64,367.117,776.724,365.77Zm-4.454,5.014a547.444,547.444,0,0,0,55.43.02c.081,1.159.18,2.317.255,3.476a4.239,4.239,0,0,0-1.574-.211c-19.631.572-38.725,1.292-58.4,1.018Q770.18,372.945,772.27,370.784Zm-10.867,10.8c.181-.188.374-.377.558-.565,20.414.861,40.95.89,61.33-.147,2.824-.144,2.187-2.021-.68-1.9-19.873.868-39.5,1.232-59.479.857,1.17-1.172,2.379-2.346,3.591-3.523,19.9.653,40.6.892,60.291-.474a3.593,3.593,0,0,0,1.017-.209c.2,3.281.414,6.562.565,9.845-22.89-.939-46.737-1.368-69.757-1.229C759.69,383.353,760.55,382.468,761.4,381.581Zm-3.421,3.547c23.142,1.238,47.329,1.955,70.7,2.093.039.891.1,1.782.137,2.673a2.451,2.451,0,0,0-.749-.139c-24.24-.725-49.578-.707-74.075-.495C755.341,387.885,756.658,386.506,757.982,385.128ZM828.122,395c-25.514-1.265-54.36-.386-80.159.154a.623.623,0,0,0,.338-.375c.013-.07.027-.139.041-.209.16,0,.286,0,.317,0,.844-.1,2.4-2.327,2.7-2.622.373-.37.723-.743,1.092-1.114,24.789.966,51.5,1.118,75.965-.125a1.567,1.567,0,0,0,.438-.1c.056,1.5.152,3,.195,4.5A7.249,7.249,0,0,0,828.122,395ZM1076.3,362.057c-2.276,20.383-6.184,40.852-6.657,61.254-97.012-2.109-10.446-2.009-107.573-1.936-48.93.037-75.93.946-125,3.174a281.879,281.879,0,0,0-11.515-120.535c100.078,1.865,31,.373,131.174.3,101.444-.075,18.488-.15,119.932-.225.04,0,.072,0,.112,0C1076.657,323.449,1078.466,342.656,1076.3,362.057Zm76.888-30.111c-1.031.736-1.951,1.506-2.922,2.26-19.483-.789-41.527.387-61,1.161a3.036,3.036,0,0,0-1.174.239c.093-1.344.211-2.688.248-4.033C1109.606,331.9,1131.848,332.619,1153.188,331.946Zm-65.139,4.4a2.892,2.892,0,0,0,1.219.224c18.635.259,39.592.773,58.281-.264q-2.725,2.275-5.172,4.63c-17.181,1.064-33.838,2.066-51.3,2.281-2.421.03-2.4,1.365,0,1.414a409.859,409.859,0,0,0,49.348-1.718c-2.514,2.539-4.888,5.11-7.081,7.7a5.121,5.121,0,0,0-.774-.09c-6.793-.269-13.908.218-20.734.319-6.923.1-13.836.1-20.76.019-2.269-.025-2.219,1.256,0,1.319,12.832.363,28.375,1.116,41.045-.111q-2.481,2.992-4.8,5.969c-.066-.346-.779-.689-1.821-.7-7.18-.052-14.4.858-21.588,1.07-6.2.183-12.376.15-18.559-.021C1086.256,351.179,1087.489,343.775,1088.049,336.347Zm60.794,54.606a60.647,60.647,0,0,1,9.186,9.591,7.637,7.637,0,0,0-2.153-.2c-24.9.9-49.694.914-74.664.918.111-.987.2-1.974.3-2.96a669.683,669.683,0,0,0,68.021-1.4c3.947-.275,2.262-2.525-1.657-2.266-22,1.457-43.927,2.044-66.2,2.074.175-1.727.312-3.454.474-5.18,21.1.586,42.946.846,64.014.257C1147.391,391.752,1148.606,391.428,1148.843,390.953Zm-16.5-13.154c-7.482.134-14.891.684-22.405.818-8.168.146-16.215.01-24.371-.144-1.658-.032-2.066.988-.4,1.107,15.3,1.086,34.293,1.7,49.409-.032,4.288,3.345,8.688,6.675,12.7,10.057a4.576,4.576,0,0,0-.788-.049l-.721.024c-1.454.049-2.452.589-1.683,1.107-3.226-2.173-25.307-.658-30.854-.6-10.326.109-20.662.165-30.983.319.149-1.608.289-3.215.433-4.822.089.2.475.394,1.183.417,17.339.571,37.536,1.188,54.56-.414,2.315-.218,1.756-1.514-.551-1.539-17.822-.187-36.062.954-54.009,1-.664,0-1.04.149-1.164.326.367-4.1.726-8.192,1.106-12.285.025,0,.042.007.067.008a342.987,342.987,0,0,0,38.5.021c2.544-.173,1.931-1.714-.606-1.689-12.63.123-25.187.624-37.862.636.154-1.653.336-3.3.5-4.953,10.686.314,23,.325,32.709-1.363,1.432-.249.729-1.16-.805-1.122-10.728.268-20.979,1.26-31.793,1.379.178-1.767.339-3.535.536-5.3.037-.326.088-.66.127-.986,13.144.671,29.626,1.174,41.249-1.077a2.268,2.268,0,0,0,.549-.17c-1.493,1.911-2.965,3.812-4.419,5.673-2.093-.022-4.264.629-3.464,1.562A97.033,97.033,0,0,0,1132.347,377.8Z" fill="#285011"/>
        </g>
      </g>
    </g>
  </g>
</svg>
