<svg xmlns="http://www.w3.org/2000/svg" width="677" height="122.677" viewBox="0 0 677 122.677">
  <g id="titulo_fenilalanina" transform="translate(-622 -297.134)">
    <path id="Caminho_564" data-name="Caminho 564" d="M633.517,305.111c4.265,3.522,8.509,7.027,13.1,10.317a2.458,2.458,0,0,1,0,4L633.351,329.7c-1.242.947-3.519,1.877-3.436,3.223.041.615,5.651,3.505,6.6,4.1,4.244,2.625,15.506,6.928,14.988,12.278-.538,5.549-13.042,10.8-17.473,14.337-.952.765-3.063,1.612-2.919,2.941.1.914,6.17,4.668,7.019,5.266a142.194,142.194,0,0,0,14.657,8.839c1.925,1.013,2.277,3.007.7,4.386-7.391,6.529-14.8,13.075-22.835,19.122,47.139-2.641,94.838-1.977,142.06-2.575q76.175-.972,152.348-1.578a1.253,1.253,0,0,1,1.553-.017q177.688-1.47,355.377-1.13a203.906,203.906,0,0,0-19.522-13.722,2.516,2.516,0,0,1,0-4.087,186.323,186.323,0,0,0,18.384-14.222,145.608,145.608,0,0,0-18.322-12.144c-1.843-1.03-2.567-3.223-.745-4.586a236.47,236.47,0,0,0,20.309-16.995l-18.508-9.769c-2.609-1.379-7.163-2.907-7.536-5.865-.621-4.834,8.509-10.6,15.982-14.536q-67.914,1.919-135.849,3.139Q1008.344,308.4,880.455,308.2C798.287,308.068,715.623,308.666,633.517,305.111Zm10.827,113.67a70.207,70.207,0,0,1-15.444-9.9c-.579-.016-1.18-.016-1.759-.033-2.857-.083-3.4-2.708-1.739-3.888a1.1,1.1,0,0,1,.227-1.279c6.232-6.994,13.188-13.54,20.206-20.036a144.184,144.184,0,0,1-12.711-7.775c-2.857-1.977-7.867-4.6-9.13-7.559-3.147-7.51,12.152-12.843,17.266-17.461,3.1-2.824,2.608-1.811-.539-4.037-2.877-2.06-6.169-3.855-9.233-5.749-2.94-1.827-8.633-3.987-9.4-7.376-.476-2.143,1.035-3.688,2.609-5.233,4.057-3.938,9.357-7.46,14.181-10.982A115.454,115.454,0,0,1,623.5,304.446c-2.215-.98-1.843-4.137,1.242-4.153h.352a4.051,4.051,0,0,1,2.091-.017c47.2-.2,94.424,1.2,141.625,1.661q255.726,2.568,511.39-4.8c2.132-.066,3.25,1.163,3.354,2.476,1.553,1.179,1.925,3.422-.435,4.568a.075.075,0,0,0-.041.017c1.925,1.063,3.809,2.176,5.714,3.256,2.422,1.363,5.051,2.625,7.018,4.4.7.614-.166,1.445-1.056,1.113-2.9-1.08-5.341-2.924-7.846-4.5-1.325-.814-2.65-1.645-3.975-2.476-.124-.083-.787-.482-1.594-.963-1.946.963-4.017,2.026-6.087,3.173a60.677,60.677,0,0,1,10.558,7.044c.663.6-.207,1.645-1.1,1.146a121.3,121.3,0,0,1-11.034-7.276,52.82,52.82,0,0,0-5.383,3.621c3.954,2.359,8.178,4.486,11.8,7.111.683.5-.187,1.246-.932.964-4.327-1.7-8.281-4.5-11.966-7.161a23.638,23.638,0,0,0-3.271,3.256c2.919,2.31,9.544,4.7,12.173,6.1,4.43,2.325,8.84,4.651,13.27,6.994,2.091,1.1,2.277,3.073.746,4.569-.663.647-1.346,1.262-2.009,1.894,3.561,1.711,7.081,3.787,9.42,6.263.5.515-.476,1.3-1.118.914-2.05-1.246-3.809-2.808-5.8-4.121-1.118-.764-2.3-1.462-3.478-2.143-1.7,1.562-3.416,3.124-5.155,4.652,4.555,2.708,9.4,5.366,13.291,8.573.663.548-.207,1.495-1.014,1.08-4.72-2.476-8.964-5.782-13.208-8.855-1.843,1.594-3.685,3.206-5.59,4.751,4.244,3.339,8.8,6.3,13.353,9.37.7.482-.227,1.429-.993,1.03a72.536,72.536,0,0,1-13.333-9.619c-1.49,1.2-2.96,2.376-4.492,3.539a152.792,152.792,0,0,1,18.466,12.775,2.572,2.572,0,0,1,0,4.121c-.1.1-.227.2-.352.3,3.892,1.694,7.64,3.97,10.062,6.944.5.615-.663,1.313-1.263.781a43.988,43.988,0,0,0-9.689-6.945c-1.366,1.213-2.753,2.426-4.161,3.606,4.43,2.957,9.068,5.9,12.877,9.27.642.565-.228,1.6-1.035,1.1a124.248,124.248,0,0,1-12.774-9.6c-1.821,1.495-3.664,2.974-5.569,4.419,4.451,3.572,9.275,6.778,13.664,10.384.58.481-.186,1.312-.911.946a61.217,61.217,0,0,1-13.912-10.416c-1.615,1.213-3.25,2.392-4.927,3.572a135.146,135.146,0,0,1,17.452,14.969,1.749,1.749,0,0,1,.228,2.375,2.711,2.711,0,0,1,.228,2.044c.869.664,1.718,1.345,2.608,1.993,2.505,1.811,5.3,3.406,7.722,5.283.828.648-.248,1.778-1.242,1.28a50.557,50.557,0,0,1-10.31-6.995,4.039,4.039,0,0,1-2.132.565c-4.451-.016-8.9,0-13.333-.016,1.222.913,2.381,1.877,3.54,2.741,2.278,1.678,5.4,3.439,6.812,5.665.372.582-.373,1.13-1.077.864-2.815-1.047-5.134-3.522-7.287-5.266-1.615-1.3-3.437-2.576-4.948-4h-12.546A54.629,54.629,0,0,1,1266.8,411.3c.911.764-.29,2.076-1.429,1.495-4.886-2.509-9.4-5.449-14.14-8.157-5.3,0-10.578-.017-15.878-.017a36.661,36.661,0,0,1,6.045,3.173,99.009,99.009,0,0,0,12.98,7.127c.932.432.228,1.4-.683,1.3-9.275-1.1-14.015-9.619-23.042-11.6h-9.937c5.486,3.206,11.324,6.4,15.858,10.317.663.565-.186,1.462-1.035,1.08-6.687-2.99-12.546-7.509-18.466-11.4-4.327,0-8.654-.017-12.981,0,6.376,3.921,13.043,7.476,19.46,11.347.932.565.145,1.745-.931,1.3-7.743-3.29-14.906-7.958-21.448-12.643h-11.987c6.687,4.021,13.4,8.091,19.668,12.493.869.615-.311,1.828-1.242,1.3-7.536-4.286-14.7-9.054-21.8-13.789h-10.434c5.734,4.037,11.573,8.357,18.2,10.982.87.349.207,1.279-.6,1.163-4.058-.515-6.956-3.107-9.916-5.184-3.292-2.309-6.563-4.635-9.834-6.944h-11.863c5.217,3.489,10.476,6.977,15.258,10.815.683.548-.248,1.562-1.035,1.08-6-3.655-11.573-7.808-17.162-11.895-3.789.016-7.577,0-11.366.016,1.594,1.3,3.23,2.559,4.927,3.755,3.665,2.592,8.136,4.552,11.573,7.293.517.4,0,1.213-.725,1-4.182-1.229-7.908-3.954-11.241-6.3a77.05,77.05,0,0,1-7.122-5.749h-5.051c-1.946.017-3.892.017-5.838.034,4.948,3.455,10.165,6.878,14.429,10.815.642.6-.248,1.7-1.138,1.163-5.714-3.489-10.745-7.908-15.9-11.978l-9.3.049c4.906,4.1,10.372,7.294,16.106,10.783.849.515.145,1.545-.848,1.163-6.687-2.609-12.608-7.261-17.308-11.946-3.229.017-6.479.017-9.73.034,2.133,1.661,4.306,3.306,6.522,4.884,2.815,1.994,6.086,3.738,8.653,5.931.621.515-.165,1.346-.931.98-3.147-1.445-5.839-3.671-8.468-5.632-2.608-1.977-5.093-4.02-7.494-6.147-3.085.017-6.169.017-9.254.033q3.633,2.742,7.225,5.516c2.9,2.243,6.169,4.369,8.488,7.028.6.681-.58,1.6-1.428,1.146-3.375-1.761-6.149-4.353-9.027-6.6-3-2.359-5.983-4.7-8.943-7.077-3.913.017-7.8.017-11.7.05,1.8,1.229,3.623,2.475,5.424,3.721,3.085,2.127,7.619,6.679,11.759,7.227.952.133.766,1.213,0,1.412-3.809,1.014-7.018-2.508-9.585-4.336q-5.527-3.987-11.034-8.024l-9.565.05c5.9,3.422,11.863,7.11,16.458,11.413.642.582-.186,1.612-1.076,1.13-6.749-3.638-12.856-8.274-19.129-12.527-4.679.017-9.378.034-14.057.067,6.79,3.97,13.684,8.057,19.584,12.792.787.632-.269,1.794-1.221,1.263-7.743-4.27-14.864-9.354-22.234-14.039-4.037.017-8.054.034-12.09.067,2.008,1.495,4.057,2.94,6.19,4.336,4.347,2.841,9.3,5.1,13.518,8.024.952.648-.269,1.612-1.221,1.263-7.95-2.858-15.4-8.29-21.717-13.607l-11.117.05c5.4,3.439,11.138,6.48,16.976,9.553,1.056.565.145,1.761-.973,1.329a84.632,84.632,0,0,1-19.668-10.848c-4.927.033-9.854.049-14.781.083,5.735,4.269,11.966,7.941,18.259,11.762.891.548.145,1.645-.91,1.229-7.7-3.123-14.409-7.908-20.33-12.975-4.431.017-8.84.05-13.27.067,2.38,1.694,4.782,3.339,7.266,4.917,1.325.848,12.215,6.147,12.215,7.377.186-.914,1.863-.947,1.9.033a2.971,2.971,0,0,1,.021.432c.021.365-.331.648-.725.764-3.561,1-8.281-3.173-10.868-4.768a148.25,148.25,0,0,1-12.525-8.739c-2.982.033-5.963.033-8.944.067,5.01,3.7,10.393,7.044,15.423,10.782.787.581-.227,1.562-1.1,1.146-6.4-3.007-12.028-7.476-17.121-11.912q-5.652.025-11.345.067a57.479,57.479,0,0,0,7.1,5.881c3.271,2.243,7.018,3.838,10.352,5.948.6.382-.042,1.212-.725,1.03-7.432-2.027-14.285-7.643-18.736-12.843-3.747.017-7.473.034-11.22.067a171.037,171.037,0,0,1,17.058,11.131c.5.382-.145,1.063-.724.764-3.685-1.993-7.06-4.3-10.476-6.579-2.008-1.345-4.037-2.691-6.024-4.054-.6-.4-1.2-.83-1.8-1.246-4.223.034-8.426.05-12.649.084,1.387,1.046,2.753,2.076,4.161,3.09,3.913,2.791,8.571,5.25,12.028,8.39.89.8-.207,1.96-1.408,1.462-4.451-1.894-8.3-5.068-12.007-7.776q-3.416-2.492-6.646-5.133c-3.126.033-6.231.05-9.357.083,4.637,2.691,9.275,5.648,12.483,9.137.622.681-.579,1.562-1.407,1.13-3.209-1.661-5.921-3.987-8.82-6-2.07-1.446-4.161-2.858-6.293-4.254-3.168.034-6.335.05-9.5.084a133.653,133.653,0,0,1,15.133,10.616c.725.614-.248,1.727-1.159,1.212-6.19-3.422-11.739-7.692-17.245-11.8-3.416.016-6.832.05-10.248.083,5.672,3.838,11.862,7.609,16.583,12.161.683.665-.208,1.794-1.222,1.263-6.873-3.622-12.794-8.789-18.839-13.258a.782.782,0,0,1-.124-.15c-2.008.034-4.037.034-6.045.05-.352.017-.725.017-1.1.017,1.781,1.246,3.582,2.475,5.424,3.671,3.561,2.326,7.64,4.436,10.766,7.144.724.632-.187,1.529-1.118,1.163-3.975-1.561-7.495-4.17-10.869-6.446-2.629-1.761-5.2-3.605-7.7-5.5-3.561.05-7.1.083-10.662.116a118.886,118.886,0,0,1,15.444,9.969c.745.581-.207,1.578-1.1,1.146A134.814,134.814,0,0,1,865.3,406.337q-5.621.049-11.242.117c5.59,3.488,11.49,6.628,16.79,10.35.849.581-.228,1.512-1.118,1.163-6.873-2.741-13.167-7.211-18.881-11.48-3.747.05-7.514.083-11.262.116,1.967,1.229,3.934,2.442,5.942,3.605,3.6,2.077,7.536,3.838,10.931,6.131.766.531-.207,1.3-.973,1.03-6.646-2.393-13.126-6.529-18.839-10.733l-13.519.15c5.258,3.223,10.827,6,16.4,8.988,1.118.6.145,1.86-1.035,1.429a75.977,75.977,0,0,1-18.632-10.384c-2.733.033-5.465.05-8.2.083a60.789,60.789,0,0,1,12.753,8.108c.5.431-.145,1.212-.808.847-5.155-2.758-9.833-6.031-14.906-8.922-3.519.05-7.018.083-10.537.117,2.3,1.412,4.534,2.89,6.873,4.253,2.857,1.661,6,3.057,8.716,4.884.786.548-.228,1.362-1.035,1.08a49.718,49.718,0,0,1-9.254-4.984,59.116,59.116,0,0,1-7.391-5.217l-12.07.15a160.741,160.741,0,0,0,14.8,9.154c1.056.6.145,1.844-1.015,1.395a59.067,59.067,0,0,1-17.1-10.516c-3.022.033-6.066.066-9.088.116,1.47.964,2.96,1.911,4.409,2.874,3.023,2.011,6.6,3.9,8.964,6.413.808.864-.7,1.8-1.718,1.379-3.478-1.462-6.376-4.037-9.337-6.1-2.132-1.495-4.264-3.007-6.376-4.519l-8.943.1a91.948,91.948,0,0,1,12.338,8.606c.808.714-.248,1.96-1.325,1.379-5.175-2.742-9.916-6.463-14.471-9.935l-9.419.149c1.8,1.3,3.623,2.559,5.424,3.871,3.1,2.243,6.542,4.386,9.067,7.078.58.631-.538,1.428-1.283,1.046-3.54-1.827-6.439-4.469-9.461-6.778-2.2-1.711-4.368-3.439-6.542-5.167-2.836.05-5.652.083-8.488.15.849.564,1.7,1.146,2.567,1.694,2.919,1.861,6.232,3.373,9.006,5.366.931.665-.27,1.695-1.284,1.313a49.3,49.3,0,0,1-13.208-8.324c-3.457.067-6.915.133-10.393.216,1.056.748,2.091,1.512,3.147,2.26,2.671,1.91,5.838,3.671,7.971,6,.455.532-.415,1.064-1.015.814-3.188-1.312-5.817-3.7-8.384-5.681-1.408-1.1-2.8-2.21-4.182-3.34l-10.269.2c5.093,3.156,10.186,6.346,14.823,9.851.808.615-.269,1.761-1.18,1.23-5.9-3.34-11.407-7.194-16.893-11.015l-10.268.2c4.244,2.908,8.695,5.516,13.208,8.274.911.565.145,1.711-.911,1.263a59.1,59.1,0,0,1-14.782-9.487l-8.4.15a105.841,105.841,0,0,1,10.766,7.576c.745.631-.27,1.777-1.2,1.246a127.681,127.681,0,0,1-12.649-8.789c-3.023.05-6.025.1-9.047.133a61.99,61.99,0,0,1,10.6,7.526c.766.714-.372,1.578-1.242,1.013-4.327-2.774-8.467-5.715-12.732-8.523-3.167.034-6.355.05-9.523.05a58.764,58.764,0,0,1,10.641,8.041c.683.7-.372,1.545-1.221.981-4.368-2.924-8.447-6.048-12.732-9.022-4.058,0-8.1-.016-12.153-.05a106.334,106.334,0,0,1,13.457,8.473c.807.632-.373,1.5-1.2.964-4.989-3.157-9.833-6.4-14.885-9.47-2.608-.033-5.237-.05-7.846-.1,4.285,2.791,8.612,5.565,12.525,8.6C646.373,418.183,645.317,419.2,644.344,418.781Z" fill="#285011"/>
  </g>
</svg>
