<svg xmlns="http://www.w3.org/2000/svg" width="1953.282" height="254.255" viewBox="0 0 1953.282 254.255">
  <g id="trabalhe_conosco" transform="translate(26.405 -191.5)">
    <g id="Agrupar_128" data-name="Agrupar 128">
      <path id="Caminho_468" data-name="Caminho 468" d="M1899.051,405.9c5.14.552,11.16-1.634,16.518-6a32.194,32.194,0,0,0,9.4-11.921,22.573,22.573,0,0,0,1.873-7.633c.355-5.859-1.867-11.461-6.427-16.2-5.47-5.684-15.4-9.541-31.632,4.365-5.849,5.009-9.069,10.773-9.835,17.622-.609,5.418,2.116,7.419,5.273,9.737a23.26,23.26,0,0,1,4.688,4.17A14.748,14.748,0,0,0,1899.051,405.9Zm-4.711-19.67a23.531,23.531,0,0,1,6.858-9.429,11.56,11.56,0,0,1,3.2-1.849c.975-.374,2.8-1.489,3.852-1.1,1.122.42-1.451,2.4-1.924,2.744a37.328,37.328,0,0,0-8.915,9.631c-.751,1.063-1.671,2.964-2.978,3.466C1892.74,390.35,1894.132,386.752,1894.34,386.233Zm5.991,4.77c.757-4.184,3.141-8.061,5.79-11.321.389-.48,3.915-4.845,4.374-3.737.4.975-.619,2.573-1.067,3.461-1.111,2.193-2.444,4.258-3.581,6.43-.494.946-3.917,9.759-4.736,9.88C1899.52,395.95,1900.24,391.505,1900.331,391Z" fill="#00a9cd"/>
      <path id="Caminho_469" data-name="Caminho 469" d="M1823.468,328.217c-4.4,3.543-7.356,9.88-8.123,17.388a35.16,35.16,0,0,0,1.948,16.463,24.663,24.663,0,0,0,4.449,7.342c4.25,4.8,10.292,7.408,17.474,7.547,8.614.165,19.258-4.522,21.057-27.8.648-8.386-1.316-15.323-6.014-21.2-3.713-4.654-7.363-4.1-11.591-3.447a25.4,25.4,0,0,1-6.841.4A16.1,16.1,0,0,0,1823.468,328.217Zm18.829,11.552a25.687,25.687,0,0,1,1.985,12.578,12.591,12.591,0,0,1-1.041,3.9c-.464,1.042-1.01,3.31-2.129,3.821-1.19.543-.735-2.976-.633-3.605a40.77,40.77,0,0,0-.553-14.322c-.241-1.4-1-3.579-.376-4.976C1840.354,335.354,1842.057,339.207,1842.3,339.769Zm-8.31.943c2.647,3.815,3.8,8.65,4.271,13.214.07.671.719,6.765-.491,6.263-1.064-.442-1.509-2.464-1.849-3.5-.836-2.552-1.4-5.176-2.2-7.731-.349-1.112-4.512-10.562-3.972-11.287C1830.793,336.265,1833.669,340.254,1833.987,340.712Z" fill="#00a9cd"/>
    </g>
    <path id="Caminho_470" data-name="Caminho 470" d="M1450.95,369.7a125.006,125.006,0,0,0-13.378,10.42,20.935,20.935,0,0,1,3.18,17.994c-2.206,7.741-7.484,15.644-12.043,22.167a54.285,54.285,0,0,1-8.178,9.416c-4.844,4.337-11.24,6.966-13.214,13.7a1.521,1.521,0,0,1-2.1,1.025,3.118,3.118,0,0,1-1.5,1.238,1.179,1.179,0,0,1-1.378-.337c-9.867-12.687-18.33-30.347-14.248-46.743,3.437-13.8,17.928-26.9,32.568-27.076a20.227,20.227,0,0,1,14,5.341,131.074,131.074,0,0,1,13.707-10.621C1449.239,367.373,1450.086,368.539,1450.95,369.7Zm-37.275,60.812c.926-.695,1.807-1.415,2.667-2.148-1.6-1.117-2.37-4.08-2.917-5.7-.668-1.977-2.008-5.191-.828-7.106a.48.48,0,0,1,.754-.018c.8.786.815,1.8,1.082,2.86a35.031,35.031,0,0,0,1.248,4.022c.524,1.367,1.829,3.066,2.151,4.634a57.7,57.7,0,0,0,8.351-9.617c-2.416-5.64-3.834-12.127-5.254-18.081a95.757,95.757,0,0,0-14.579,37.995A32.564,32.564,0,0,1,1413.675,430.507Zm-14.847,3.379c.2.388,2.426,4.261,4.1,6.644a70.983,70.983,0,0,1,1.231-13.489c-.823.488-1.656.959-2.474,1.434a20.913,20.913,0,0,1-4.41,2.345C1397.786,431.847,1398.293,432.874,1398.828,433.886Zm-4-8.4c.4.964.844,1.909,1.28,2.857a22.89,22.89,0,0,1,4.5-2.324c1.383-.666,2.762-1.35,4.183-1.924a76.73,76.73,0,0,1,5.226-15.069c-2.152,1.132-4.346,2.176-6.6,3.162-3.557,1.558-7.642,3.859-11.552,4.023A56.629,56.629,0,0,0,1394.83,425.49Zm-3.851-21.32a37.29,37.29,0,0,0,.417,9.616c2.928-1.986,6.837-2.857,10.122-4.056s6.562-2.442,9.888-3.54a92.923,92.923,0,0,1,10.217-15.645c-4.843.97-9.682,1.945-14.506,3.026-4.6,1.032-9.6,3-14.379,3.326A27.674,27.674,0,0,0,1390.979,404.17Zm33.195-28.5c-11.931-2.158-23.792,6.5-29.6,17.247a95.4,95.4,0,0,1,11.1-2.385c6.016-1.2,12.117-2.128,18.223-2.73a111.929,111.929,0,0,1,8.021-8.43A16.241,16.241,0,0,0,1424.174,375.673Zm8.27,9.356a97.007,97.007,0,0,0-10.623,13.014.831.831,0,0,1,.856.542,136.472,136.472,0,0,1,5.368,16.037c.117-.185.236-.365.352-.552,3.543-5.72,7.983-12.206,9.15-18.942a17.028,17.028,0,0,0-2.7-12.477C1434.038,383.431,1433.234,384.217,1432.444,385.029Z" fill="#00a9cd"/>
    <path id="Caminho_471" data-name="Caminho 471" d="M524.371,204.907a125.005,125.005,0,0,0-13.378,10.42,20.932,20.932,0,0,1,3.179,17.994c-2.206,7.741-7.483,15.644-12.042,22.167a54.329,54.329,0,0,1-8.178,9.416c-4.844,4.337-11.24,6.966-13.215,13.7a1.52,1.52,0,0,1-2.1,1.025,3.123,3.123,0,0,1-1.5,1.238,1.179,1.179,0,0,1-1.378-.337c-9.867-12.687-18.33-30.347-14.248-46.743,3.437-13.8,17.928-26.9,32.568-27.076a20.229,20.229,0,0,1,14,5.341,130.962,130.962,0,0,1,13.707-10.621C522.66,202.585,523.506,203.751,524.371,204.907ZM487.1,265.719c.926-.7,1.807-1.415,2.667-2.148-1.6-1.117-2.37-4.08-2.917-5.7-.668-1.977-2.008-5.191-.829-7.106a.48.48,0,0,1,.754-.018c.8.786.815,1.8,1.082,2.86a35.043,35.043,0,0,0,1.249,4.022c.524,1.367,1.829,3.066,2.151,4.634a57.746,57.746,0,0,0,8.351-9.617c-2.417-5.64-3.835-12.127-5.255-18.081a95.754,95.754,0,0,0-14.578,37.995A32.543,32.543,0,0,1,487.1,265.719ZM472.248,269.1c.205.389,2.427,4.261,4.105,6.644a70.824,70.824,0,0,1,1.231-13.489c-.824.488-1.656.959-2.475,1.434a20.89,20.89,0,0,1-4.41,2.345C471.207,267.059,471.714,268.086,472.248,269.1Zm-4-8.4c.4.964.843,1.909,1.279,2.857a22.947,22.947,0,0,1,4.5-2.324c1.383-.666,2.763-1.35,4.184-1.924a76.666,76.666,0,0,1,5.226-15.069c-2.153,1.132-4.347,2.176-6.6,3.162-3.558,1.558-7.642,3.859-11.552,4.023A56.533,56.533,0,0,0,468.251,260.7Zm-3.851-21.32a37.245,37.245,0,0,0,.417,9.616c2.928-1.986,6.837-2.857,10.121-4.056s6.563-2.442,9.889-3.54a92.928,92.928,0,0,1,10.217-15.645c-4.844.97-9.682,1.945-14.506,3.026-4.6,1.032-9.6,3-14.379,3.326A27.673,27.673,0,0,0,464.4,239.382Zm33.2-28.5c-11.931-2.158-23.793,6.5-29.606,17.247a95.462,95.462,0,0,1,11.1-2.385c6.016-1.2,12.117-2.128,18.223-2.73a111.926,111.926,0,0,1,8.02-8.43A16.237,16.237,0,0,0,497.6,210.885Zm8.27,9.356a96.856,96.856,0,0,0-10.623,13.014.831.831,0,0,1,.856.542,136.641,136.641,0,0,1,5.368,16.037c.116-.185.236-.365.352-.552,3.543-5.72,7.983-12.206,9.15-18.942a17.032,17.032,0,0,0-2.7-12.477C507.459,218.643,506.655,219.429,505.865,220.241Z" fill="#00a9cd"/>
    <g id="Agrupar_129" data-name="Agrupar 129">
      <path id="Caminho_472" data-name="Caminho 472" d="M57.523,282.069c5.139.552,11.16-1.634,16.517-6a32.183,32.183,0,0,0,9.4-11.921,22.572,22.572,0,0,0,1.873-7.633c.355-5.859-1.867-11.461-6.427-16.2-5.47-5.684-15.4-9.541-31.632,4.365-5.849,5.009-9.068,10.773-9.835,17.622-.609,5.418,2.116,7.418,5.274,9.737a23.287,23.287,0,0,1,4.688,4.17A14.744,14.744,0,0,0,57.523,282.069ZM52.811,262.4a23.534,23.534,0,0,1,6.859-9.429,11.54,11.54,0,0,1,3.2-1.849c.975-.374,2.8-1.489,3.852-1.1,1.122.42-1.451,2.4-1.923,2.744A37.316,37.316,0,0,0,55.88,262.4c-.75,1.063-1.67,2.964-2.978,3.466C51.211,266.516,52.6,262.918,52.811,262.4Zm5.992,4.77c.756-4.185,3.14-8.061,5.79-11.321.389-.48,3.914-4.845,4.373-3.737.4.975-.619,2.573-1.067,3.461-1.111,2.193-2.444,4.258-3.581,6.43-.494.946-3.917,9.759-4.736,9.88C57.991,272.116,58.712,267.671,58.8,267.169Z" fill="#00a9cd"/>
      <path id="Caminho_473" data-name="Caminho 473" d="M-18.06,204.383c-4.4,3.543-7.356,9.88-8.123,17.388a35.147,35.147,0,0,0,1.947,16.463,24.663,24.663,0,0,0,4.449,7.342c4.25,4.8,10.292,7.408,17.475,7.547,8.613.165,19.258-4.522,21.056-27.8.649-8.386-1.316-15.323-6.013-21.2-3.714-4.654-7.364-4.1-11.592-3.447a25.394,25.394,0,0,1-6.84.4A16.1,16.1,0,0,0-18.06,204.383ZM.768,215.935a25.7,25.7,0,0,1,1.986,12.578,12.623,12.623,0,0,1-1.042,3.9c-.464,1.042-1.01,3.31-2.128,3.821-1.191.543-.735-2.976-.634-3.6A40.767,40.767,0,0,0-1.6,218.3c-.242-1.4-1-3.579-.377-4.976C-1.175,211.52.528,215.373.768,215.935Zm-8.31.943c2.648,3.815,3.8,8.65,4.271,13.214.071.671.719,6.765-.491,6.263-1.064-.442-1.509-2.464-1.849-3.5-.836-2.552-1.4-5.176-2.2-7.731-.349-1.112-4.512-10.562-3.972-11.287C-10.735,212.431-7.86,216.42-7.542,216.878Z" fill="#00a9cd"/>
    </g>
    <path id="Caminho_474" data-name="Caminho 474" d="M205.1,340.669a124.664,124.664,0,0,0-13.379,10.42,20.928,20.928,0,0,1,3.18,17.994c-2.206,7.741-7.484,15.644-12.043,22.166a54.251,54.251,0,0,1-8.178,9.417c-4.844,4.337-11.239,6.966-13.214,13.7a1.519,1.519,0,0,1-2.1,1.024,3.124,3.124,0,0,1-1.5,1.239,1.182,1.182,0,0,1-1.379-.338c-9.867-12.687-18.33-30.347-14.248-46.742,3.437-13.8,17.928-26.9,32.568-27.077a20.236,20.236,0,0,1,14,5.341,130.937,130.937,0,0,1,13.708-10.62C203.389,338.346,204.235,339.513,205.1,340.669Zm-37.275,60.812c.925-.7,1.807-1.416,2.666-2.149-1.6-1.116-2.37-4.079-2.917-5.7-.667-1.977-2.008-5.19-.828-7.1a.48.48,0,0,1,.754-.019c.8.786.815,1.8,1.082,2.86a35.235,35.235,0,0,0,1.248,4.022c.525,1.368,1.829,3.067,2.151,4.635a57.707,57.707,0,0,0,8.351-9.618c-2.416-5.639-3.834-12.126-5.254-18.08A95.771,95.771,0,0,0,160.5,408.322,32.57,32.57,0,0,1,167.825,401.481Zm-14.848,3.379c.205.388,2.426,4.261,4.1,6.643a70.9,70.9,0,0,1,1.23-13.488c-.823.487-1.656.959-2.474,1.434a20.885,20.885,0,0,1-4.41,2.344C151.935,402.82,152.442,403.848,152.977,404.86Zm-4-8.4c.4.964.843,1.909,1.279,2.857a22.888,22.888,0,0,1,4.5-2.324c1.383-.667,2.762-1.351,4.183-1.924A76.709,76.709,0,0,1,164.166,380c-2.152,1.132-4.346,2.175-6.6,3.162-3.558,1.558-7.642,3.859-11.552,4.023A56.534,56.534,0,0,0,148.98,396.464Zm-3.851-21.321a37.283,37.283,0,0,0,.416,9.616c2.928-1.985,6.837-2.856,10.122-4.055s6.563-2.443,9.889-3.541a92.949,92.949,0,0,1,10.217-15.645c-4.844.97-9.682,1.946-14.507,3.027-4.605,1.032-9.6,3-14.379,3.325A27.679,27.679,0,0,0,145.129,375.143Zm33.194-28.5c-11.931-2.158-23.792,6.5-29.6,17.247a95.258,95.258,0,0,1,11.1-2.385c6.015-1.2,12.116-2.129,18.222-2.73a111.953,111.953,0,0,1,8.021-8.431A16.248,16.248,0,0,0,178.323,346.647ZM186.594,356a97.013,97.013,0,0,0-10.624,13.015.831.831,0,0,1,.856.541,136.4,136.4,0,0,1,5.368,16.037c.117-.184.237-.364.352-.551,3.543-5.72,7.983-12.206,9.151-18.943a17.029,17.029,0,0,0-2.7-12.477C188.188,354.4,187.383,355.191,186.594,356Z" fill="#00a9cd"/>
    <path id="Caminho_475" data-name="Caminho 475" d="M1264.034,248.456s95.827-6.853,73.621,35.961c-8.365,16.127-28.729,15.871-39.555-6.366C1292.064,265.654,1287.539,256.011,1264.034,248.456Z" fill="#00a9cd"/>
    <path id="Caminho_476" data-name="Caminho 476" d="M1448.243,257.323s24.589-92.873,57.889-57.984c12.544,13.143,5.7,32.323-18.847,35.354C1473.6,236.383,1463.012,237.537,1448.243,257.323Z" fill="#00a9cd"/>
    <path id="Caminho_477" data-name="Caminho 477" d="M626,347.364s-41.715,86.543-67.813,45.985c-9.831-15.279.519-32.818,25.2-31.15C597.139,363.128,607.755,364,626,347.364Z" fill="#00a9cd"/>
  </g>
</svg>
