<svg xmlns="http://www.w3.org/2000/svg" width="606" height="165.734" viewBox="0 0 606 165.734">
  <g id="titulo_5" transform="translate(531.222 -6044.721)">
    <g id="Agrupar_1" data-name="Agrupar 1">
      <path id="Caminho_1" data-name="Caminho 1" d="M-520.913,6055.5c3.818,4.758,7.617,9.494,11.731,13.938a4.42,4.42,0,0,1,0,5.409l-11.879,13.871c-1.112,1.279-3.15,2.536-3.076,4.354.037.83,5.059,4.736,5.911,5.544,3.8,3.546,13.88,9.359,13.417,16.586-.482,7.5-11.675,14.589-15.64,19.37-.853,1.032-2.743,2.177-2.613,3.973.092,1.234,5.522,6.307,6.282,7.115a131.17,131.17,0,0,0,13.12,11.94,4.332,4.332,0,0,1,.63,5.926c-6.616,8.82-13.25,17.663-20.44,25.833,42.2-3.568,84.892-2.671,127.161-3.479q68.186-1.312,136.372-2.132a.846.846,0,0,1,1.39-.022q159.053-1.988,318.107-1.527a205.526,205.526,0,0,0-17.475-18.539c-1.3-1.212-1.2-4.287,0-5.521a198.686,198.686,0,0,0,16.455-19.213,141.507,141.507,0,0,0-16.4-16.407c-1.649-1.391-2.3-4.354-.667-6.194a264.247,264.247,0,0,0,18.179-22.961l-16.567-13.2c-2.335-1.863-6.412-3.928-6.745-7.923-.556-6.531,7.616-14.319,14.306-19.639q-60.792,2.594-121.6,4.242-114.439,3.1-228.916,2.828C-373.423,6059.493-447.418,6060.3-520.913,6055.5Zm9.692,153.566c-4.985-3.3-9.692-8.327-13.824-13.377-.519-.023-1.056-.023-1.575-.045-2.558-.112-3.039-3.659-1.557-5.252a2.088,2.088,0,0,1,.2-1.729c5.578-9.449,11.8-18.292,18.086-27.068a134.023,134.023,0,0,1-11.378-10.5c-2.557-2.671-7.042-6.217-8.172-10.212-2.817-10.145,10.878-17.35,15.455-23.589,2.78-3.816,2.335-2.447-.482-5.454-2.576-2.784-5.522-5.208-8.265-7.766-2.631-2.469-7.727-5.387-8.413-9.966-.426-2.9.927-4.982,2.335-7.07,3.632-5.319,8.376-10.077,12.694-14.836a130.148,130.148,0,0,1-13.769-17.6c-1.983-1.324-1.649-5.589,1.112-5.611h.315a2.462,2.462,0,0,1,1.872-.023c42.251-.269,84.521,1.616,126.772,2.245q228.908,3.468,457.758-6.487c1.909-.09,2.91,1.571,3,3.345,1.39,1.593,1.724,4.623-.389,6.172-.018,0-.037.022-.037.022,1.724,1.437,3.41,2.94,5.115,4.4,2.168,1.841,4.521,3.547,6.282,5.948.63.831-.148,1.953-.945,1.5-2.6-1.459-4.781-3.95-7.024-6.083-1.186-1.1-2.372-2.222-3.558-3.344-.111-.112-.7-.651-1.426-1.3-1.742,1.3-3.6,2.739-5.449,4.287a59.321,59.321,0,0,1,9.451,9.517c.593.808-.185,2.222-.982,1.549a117.486,117.486,0,0,1-9.877-9.831,51.877,51.877,0,0,0-4.818,4.893c3.539,3.187,7.32,6.06,10.563,9.606.611.673-.167,1.683-.834,1.3-3.873-2.29-7.413-6.083-10.711-9.674a29.228,29.228,0,0,0-2.928,4.4c2.613,3.12,8.543,6.352,10.9,8.238,3.966,3.142,7.913,6.284,11.879,9.449a4.529,4.529,0,0,1,.667,6.172c-.593.875-1.2,1.706-1.8,2.559a31.9,31.9,0,0,1,8.432,8.461c.445.7-.426,1.751-1,1.235-1.834-1.684-3.409-3.793-5.188-5.567-1-1.032-2.057-1.975-3.114-2.9-1.519,2.11-3.057,4.22-4.614,6.285,4.077,3.658,8.413,7.249,11.9,11.581.593.741-.185,2.02-.908,1.459-4.225-3.344-8.024-7.811-11.823-11.963-1.649,2.155-3.3,4.332-5,6.419,3.8,4.511,7.875,8.507,11.952,12.659.63.651-.2,1.93-.889,1.391a74.126,74.126,0,0,1-11.934-13c-1.335,1.616-2.65,3.21-4.022,4.781a152.2,152.2,0,0,1,16.53,17.26,4.651,4.651,0,0,1,0,5.566c-.092.134-.2.269-.315.4a26.654,26.654,0,0,1,9.006,9.382c.445.83-.593,1.773-1.13,1.055-2.706-3.592-5.3-6.868-8.673-9.382-1.223,1.638-2.464,3.277-3.724,4.87,3.965,4,8.116,7.968,11.526,12.524.575.763-.2,2.155-.926,1.482-4.1-3.794-7.747-8.484-11.434-12.973-1.631,2.02-3.28,4.017-4.985,5.97,3.984,4.826,8.3,9.157,12.23,14.028.519.651-.166,1.773-.815,1.279-4.707-3.613-8.784-8.843-12.453-14.073-1.445,1.639-2.909,3.232-4.41,4.826a153.436,153.436,0,0,1,15.621,20.223,3.278,3.278,0,0,1,.2,3.209,5.351,5.351,0,0,1,.2,2.761c.778.9,1.538,1.818,2.335,2.693,2.242,2.447,4.744,4.6,6.912,7.138.741.875-.222,2.4-1.112,1.728a49.855,49.855,0,0,1-9.228-9.449,2.775,2.775,0,0,1-1.909.763c-3.984-.023-7.968,0-11.934-.023,1.093,1.235,2.131,2.537,3.169,3.7,2.038,2.267,4.836,4.646,6.1,7.653.333.786-.334,1.526-.964,1.167-2.52-1.414-4.6-4.758-6.523-7.115-1.445-1.75-3.076-3.479-4.429-5.409H36.451a51.544,51.544,0,0,1,9.507,9c.815,1.032-.26,2.805-1.279,2.02-4.373-3.39-8.413-7.362-12.657-11.021-4.744,0-9.469-.022-14.213-.022a31.33,31.33,0,0,1,5.411,4.287,86.8,86.8,0,0,0,11.619,9.628.975.975,0,0,1-.612,1.751c-8.3-1.481-12.545-13-20.625-15.666h-8.9c4.911,4.332,10.137,8.641,14.2,13.938.593.763-.167,1.975-.927,1.459-5.985-4.04-11.229-10.145-16.529-15.4-3.873,0-7.746-.023-11.619,0,5.707,5.3,11.674,10.1,17.419,15.329.834.764.13,2.357-.834,1.751-6.931-4.444-13.342-10.751-19.2-17.08h-10.73c5.986,5.431,11.99,10.93,17.605,16.878.778.831-.278,2.469-1.112,1.751-6.746-5.791-13.157-12.232-19.514-18.629h-9.339c5.133,5.454,10.359,11.289,16.289,14.836a.87.87,0,0,1-.538,1.571c-3.632-.7-6.226-4.2-8.876-7-2.947-3.12-5.875-6.262-8.8-9.382H-48.422c4.67,4.714,9.377,9.427,13.658,14.612.611.74-.223,2.109-.927,1.459-5.374-4.938-10.359-10.549-15.362-16.071-3.392.023-6.783,0-10.174.023,1.427,1.75,2.891,3.456,4.41,5.072,3.28,3.5,7.283,6.15,10.359,9.853.464.539,0,1.639-.648,1.347-3.743-1.661-7.079-5.342-10.063-8.506a84.252,84.252,0,0,1-6.374-7.766h-4.522c-1.742.022-3.484.022-5.226.045,4.429,4.668,9.1,9.292,12.916,14.611.575.808-.222,2.289-1.019,1.571-5.114-4.713-9.617-10.683-14.232-16.182l-8.32.067c4.392,5.544,9.284,9.853,14.417,14.566.76.7.13,2.088-.76,1.572-5.985-3.524-11.285-9.809-15.492-16.138-2.891.022-5.8.022-8.71.045,1.909,2.244,3.855,4.466,5.838,6.6,2.52,2.693,5.448,5.05,7.746,8.012.556.7-.148,1.818-.834,1.324-2.817-1.952-5.226-4.96-7.579-7.608-2.335-2.671-4.559-5.432-6.709-8.305-2.761.023-5.522.023-8.283.045q3.252,3.7,6.467,7.452c2.6,3.03,5.523,5.9,7.6,9.494.538.92-.519,2.155-1.279,1.549-3.02-2.38-5.5-5.881-8.079-8.911-2.687-3.187-5.356-6.352-8.006-9.561-3.5.022-6.986.022-10.47.067,1.612,1.661,3.243,3.344,4.855,5.028,2.762,2.872,6.82,9.022,10.526,9.763.853.179.686,1.638,0,1.908-3.41,1.369-6.282-3.389-8.58-5.858q-4.947-5.387-9.877-10.841l-8.561.067c5.281,4.624,10.618,9.607,14.732,15.42.574.785-.167,2.177-.964,1.526-6.041-4.915-11.508-11.177-17.123-16.923-4.188.022-8.394.045-12.582.089,6.078,5.365,12.249,10.886,17.53,17.283.7.853-.241,2.424-1.093,1.706-6.931-5.769-13.3-12.637-19.9-18.966-3.613.022-7.208.045-10.822.09,1.8,2.02,3.632,3.972,5.541,5.858,3.892,3.838,8.321,6.89,12.1,10.84.852.876-.241,2.178-1.093,1.706-7.116-3.86-13.788-11.2-19.44-18.382l-9.951.067c4.837,4.647,9.97,8.754,15.2,12.906.945.763.129,2.379-.871,1.8-6.431-3.614-12.287-8.888-17.6-14.657-4.41.045-8.821.068-13.231.113a221.354,221.354,0,0,0,16.344,15.89c.8.741.13,2.222-.815,1.661-6.894-4.219-12.9-10.683-18.2-17.529-3.965.022-7.913.067-11.878.09,2.131,2.289,4.28,4.511,6.5,6.643,1.186,1.145,10.934,8.3,10.934,9.966.166-1.235,1.667-1.28,1.7.045.019.2.019.381.019.583a1.1,1.1,0,0,1-.649,1.033c-3.187,1.346-7.412-4.287-9.729-6.442a148.65,148.65,0,0,1-11.211-11.806c-2.668.045-5.337.045-8.005.09,4.484,5,9.3,9.517,13.805,14.567.7.785-.2,2.109-.982,1.548-5.726-4.062-10.766-10.1-15.325-16.093-3.373.023-6.764.045-10.155.09a63.784,63.784,0,0,0,6.356,7.946c2.928,3.03,6.282,5.184,9.266,8.035.537.516-.037,1.638-.649,1.391-6.653-2.738-12.787-10.324-16.771-17.349-3.354.022-6.69.045-10.044.089a164.647,164.647,0,0,1,15.27,15.038c.445.517-.13,1.437-.649,1.033a125.889,125.889,0,0,1-9.376-8.888c-1.8-1.818-3.614-3.636-5.393-5.477-.537-.538-1.075-1.122-1.612-1.683-3.781.045-7.542.067-11.323.112,1.242,1.414,2.465,2.806,3.725,4.175,3.5,3.771,7.672,7.092,10.767,11.334.8,1.078-.186,2.649-1.26,1.976-3.985-2.559-7.431-6.846-10.749-10.505q-3.057-3.365-5.948-6.935c-2.8.045-5.578.067-8.376.112,4.151,3.636,8.3,7.631,11.174,12.345.556.92-.519,2.11-1.26,1.526-2.872-2.244-5.3-5.387-7.894-8.1-1.853-1.953-3.725-3.861-5.634-5.746-2.835.045-5.67.067-8.506.112a134.4,134.4,0,0,1,13.547,14.342c.648.83-.223,2.334-1.038,1.638-5.541-4.623-10.507-10.391-15.437-15.935-3.057.022-6.115.067-9.172.112,5.077,5.185,10.618,10.28,14.843,16.43.612.9-.185,2.424-1.093,1.705-6.153-4.893-11.453-11.873-16.864-17.91a1.149,1.149,0,0,1-.111-.2c-1.8.045-3.614.045-5.411.068-.315.022-.649.022-.982.022,1.593,1.684,3.206,3.345,4.855,4.961,3.187,3.142,6.838,5.992,9.636,9.651.649.853-.167,2.065-1,1.571-3.558-2.11-6.709-5.634-9.729-8.709-2.354-2.379-4.652-4.87-6.894-7.429-3.187.068-6.356.112-9.544.157a113.83,113.83,0,0,1,13.825,13.467c.667.786-.186,2.132-.982,1.549-5.652-4.13-10.989-9.607-16.067-14.948-3.354.045-6.708.089-10.062.157,5,4.713,10.284,8.955,15.028,13.983.76.785-.2,2.042-1,1.571-6.153-3.7-11.786-9.741-16.9-15.509-3.354.067-6.727.112-10.081.157,1.761,1.661,3.521,3.3,5.319,4.87,3.224,2.806,6.745,5.185,9.784,8.282.686.718-.185,1.751-.871,1.392-5.948-3.232-11.749-8.821-16.863-14.5l-12.1.2c4.707,4.354,9.692,8.1,14.677,12.142,1,.808.129,2.514-.927,1.93-6.1-3.3-11.656-8.529-16.678-14.027-2.446.044-4.892.067-7.338.112a57.747,57.747,0,0,1,11.415,10.953c.445.583-.13,1.638-.723,1.144-4.614-3.725-8.8-8.147-13.342-12.052-3.151.067-6.282.112-9.433.157,2.057,1.908,4.059,3.905,6.153,5.746,2.557,2.244,5.374,4.129,7.8,6.6.7.741-.2,1.841-.926,1.459-3-1.616-5.689-4.309-8.284-6.733a59.567,59.567,0,0,1-6.615-7.048l-10.8.2a149.714,149.714,0,0,0,13.25,12.367c.945.808.129,2.492-.908,1.885a55.04,55.04,0,0,1-15.307-14.207c-2.706.045-5.43.09-8.135.157,1.315,1.3,2.65,2.581,3.947,3.883,2.7,2.716,5.911,5.275,8.024,8.664.723,1.167-.63,2.424-1.538,1.863-3.113-1.976-5.708-5.454-8.358-8.238-1.909-2.02-3.817-4.062-5.707-6.1l-8.006.134a92.194,92.194,0,0,1,11.045,11.626c.722.966-.223,2.649-1.186,1.863-4.633-3.7-8.877-8.731-12.954-13.421l-8.431.2c1.612,1.75,3.243,3.456,4.855,5.229,2.78,3.03,5.856,5.925,8.117,9.562.518.852-.482,1.93-1.149,1.414-3.169-2.469-5.764-6.038-8.469-9.158-1.965-2.312-3.91-4.646-5.856-6.98-2.539.067-5.059.112-7.6.2.76.763,1.52,1.549,2.3,2.289,2.613,2.514,5.578,4.556,8.061,7.25.834.9-.241,2.289-1.149,1.773-4.3-2.514-8.3-6.823-11.823-11.245-3.094.09-6.189.18-9.3.292.945,1.01,1.871,2.042,2.816,3.052,2.391,2.582,5.226,4.961,7.135,8.1.408.718-.371,1.436-.908,1.1-2.854-1.773-5.207-5-7.505-7.676-1.26-1.482-2.5-2.985-3.744-4.512l-9.191.27c4.559,4.264,9.117,8.573,13.268,13.309.723.831-.241,2.379-1.056,1.661A207.223,207.223,0,0,1-456.8,6195.17l-9.191.27c3.8,3.928,7.783,7.451,11.823,11.177.815.763.13,2.312-.815,1.706-4.893-3.142-9.34-7.833-13.232-12.816l-7.523.2a106.74,106.74,0,0,1,9.636,10.235c.667.853-.241,2.4-1.075,1.683a127.584,127.584,0,0,1-11.323-11.873c-2.705.067-5.392.135-8.1.18a62.8,62.8,0,0,1,9.488,10.167c.686.965-.333,2.132-1.112,1.369-3.873-3.748-7.579-7.721-11.4-11.514-2.836.045-5.689.067-8.525.067a61.819,61.819,0,0,1,9.525,10.863c.612.943-.333,2.088-1.093,1.325-3.91-3.951-7.561-8.17-11.4-12.188-3.632,0-7.245-.022-10.878-.067a100.224,100.224,0,0,1,12.046,11.447c.722.853-.334,2.02-1.075,1.3-4.466-4.265-8.8-8.642-13.324-12.794-2.335-.045-4.688-.067-7.023-.135,3.836,3.771,7.709,7.519,11.211,11.627C-509.4,6208.256-510.35,6209.625-511.221,6209.064Z" fill="#285011"/>
    </g>
  </g>
</svg>
