<svg xmlns="http://www.w3.org/2000/svg" width="1927.878" height="277.234" viewBox="0 0 1927.878 277.234">
  <g id="ondetem" transform="translate(-1 -200.245)">
    <g id="Agrupar_134" data-name="Agrupar 134">
      <path id="Caminho_498" data-name="Caminho 498" d="M243.271,287.939c-5.14-.552-11.16,1.634-16.518,6a32.19,32.19,0,0,0-9.4,11.92,22.6,22.6,0,0,0-1.873,7.634c-.354,5.858,1.868,11.46,6.428,16.2,5.47,5.684,15.4,9.541,31.631-4.364,5.849-5.01,9.069-10.774,9.836-17.623.608-5.417-2.117-7.418-5.274-9.736a23.291,23.291,0,0,1-4.688-4.17A14.742,14.742,0,0,0,243.271,287.939Zm4.711,19.67a23.522,23.522,0,0,1-6.858,9.429,11.545,11.545,0,0,1-3.2,1.849c-.975.374-2.8,1.49-3.852,1.1-1.122-.419,1.451-2.4,1.924-2.744a37.351,37.351,0,0,0,8.916-9.631c.75-1.063,1.67-2.964,2.977-3.465C249.583,303.493,248.19,307.09,247.982,307.609Zm-5.991-4.769c-.756,4.184-3.14,8.06-5.79,11.32-.389.48-3.914,4.846-4.373,3.737-.4-.975.618-2.572,1.066-3.46,1.111-2.194,2.445-4.259,3.581-6.431.495-.945,3.917-9.759,4.736-9.879C242.8,297.892,242.082,302.337,241.991,302.84Z" fill="#8a6239"/>
      <path id="Caminho_499" data-name="Caminho 499" d="M318.854,365.626c4.395-3.543,7.356-9.881,8.123-17.388a35.163,35.163,0,0,0-1.948-16.464,24.645,24.645,0,0,0-4.449-7.341c-4.25-4.8-10.292-7.409-17.474-7.547-8.614-.166-19.258,4.522-21.057,27.8-.648,8.386,1.317,15.324,6.014,21.2,3.713,4.654,7.363,4.094,11.591,3.446a25.439,25.439,0,0,1,6.841-.4A16.1,16.1,0,0,0,318.854,365.626Zm-18.829-11.553A25.7,25.7,0,0,1,298.04,341.5a12.615,12.615,0,0,1,1.042-3.9c.464-1.042,1.009-3.311,2.128-3.822,1.19-.542.735,2.976.633,3.6A40.775,40.775,0,0,0,302.4,351.7c.241,1.4,1,3.579.377,4.975C301.968,358.488,300.265,354.635,300.025,354.073Zm8.31-.943c-2.647-3.815-3.8-8.649-4.271-13.213-.07-.672-.719-6.765.492-6.264,1.063.443,1.509,2.465,1.848,3.5.836,2.552,1.4,5.177,2.2,7.732.348,1.112,4.511,10.561,3.972,11.287C311.529,357.577,308.653,353.588,308.335,353.13Z" fill="#8a6239"/>
    </g>
    <path id="Caminho_500" data-name="Caminho 500" d="M575.213,276.3a124.914,124.914,0,0,0,13.379-10.42,20.929,20.929,0,0,1-3.18-17.994c2.206-7.741,7.484-15.644,12.043-22.167a54.286,54.286,0,0,1,8.178-9.416c4.844-4.337,11.239-6.966,13.214-13.7a1.521,1.521,0,0,1,2.1-1.025,3.12,3.12,0,0,1,1.5-1.238,1.18,1.18,0,0,1,1.379.337c9.867,12.687,18.33,30.347,14.248,46.743-3.437,13.8-17.928,26.9-32.568,27.076a20.227,20.227,0,0,1-14-5.341,131.169,131.169,0,0,1-13.707,10.621C576.925,278.628,576.078,277.461,575.213,276.3Zm37.276-60.812c-.926.7-1.807,1.415-2.667,2.148,1.6,1.117,2.37,4.08,2.917,5.7.667,1.977,2.008,5.191.828,7.106a.48.48,0,0,1-.754.018c-.8-.786-.815-1.8-1.082-2.86a35.034,35.034,0,0,0-1.248-4.022c-.525-1.367-1.829-3.066-2.151-4.634a57.7,57.7,0,0,0-8.351,9.617c2.416,5.64,3.834,12.127,5.254,18.081a95.771,95.771,0,0,0,14.579-38A32.586,32.586,0,0,1,612.489,215.493Zm14.847-3.379c-.205-.388-2.426-4.261-4.1-6.644A70.908,70.908,0,0,1,622,218.959c.823-.488,1.656-.959,2.474-1.434a20.89,20.89,0,0,1,4.41-2.345C628.378,214.153,627.871,213.126,627.336,212.114Zm4,8.4c-.4-.964-.843-1.909-1.279-2.857a22.893,22.893,0,0,1-4.5,2.324c-1.383.666-2.762,1.35-4.183,1.924a76.729,76.729,0,0,1-5.226,15.069c2.152-1.132,4.346-2.176,6.6-3.162,3.558-1.558,7.642-3.859,11.552-4.023A56.443,56.443,0,0,0,631.333,220.51Zm3.852,21.32a37.333,37.333,0,0,0-.417-9.616c-2.928,1.986-6.837,2.857-10.122,4.056s-6.563,2.442-9.889,3.54a92.926,92.926,0,0,1-10.216,15.645c4.843-.97,9.682-1.945,14.506-3.026,4.6-1.032,9.6-3,14.379-3.326A27.671,27.671,0,0,0,635.185,241.83Zm-33.2,28.5c11.931,2.158,23.792-6.5,29.6-17.247a95.42,95.42,0,0,1-11.1,2.385c-6.015,1.2-12.116,2.128-18.222,2.73a111.939,111.939,0,0,1-8.021,8.43A16.24,16.24,0,0,0,601.99,270.327Zm-8.271-9.356a96.945,96.945,0,0,0,10.624-13.014.831.831,0,0,1-.856-.542,136.46,136.46,0,0,1-5.368-16.037c-.117.185-.237.365-.352.552-3.543,5.72-7.983,12.206-9.15,18.942a17.023,17.023,0,0,0,2.7,12.477C592.126,262.569,592.93,261.783,593.719,260.971Z" fill="#8a6239"/>
    <path id="Caminho_501" data-name="Caminho 501" d="M1376.1,441.093a124.8,124.8,0,0,0,13.378-10.42,20.932,20.932,0,0,1-3.179-17.994c2.206-7.741,7.483-15.644,12.042-22.167a54.332,54.332,0,0,1,8.178-9.416c4.844-4.337,11.24-6.966,13.215-13.7a1.52,1.52,0,0,1,2.1-1.025,3.123,3.123,0,0,1,1.5-1.238,1.179,1.179,0,0,1,1.378.337c9.868,12.687,18.331,30.347,14.248,46.743-3.436,13.8-17.928,26.9-32.568,27.076a20.225,20.225,0,0,1-14-5.341,131.068,131.068,0,0,1-13.708,10.621C1377.811,443.415,1376.965,442.249,1376.1,441.093Zm37.275-60.812c-.926.7-1.807,1.415-2.667,2.148,1.6,1.117,2.37,4.08,2.918,5.7.667,1.977,2.007,5.191.828,7.106a.48.48,0,0,1-.754.018c-.8-.786-.815-1.8-1.082-2.86a35.252,35.252,0,0,0-1.248-4.022c-.525-1.367-1.829-3.066-2.151-4.634a57.76,57.76,0,0,0-8.352,9.617c2.417,5.64,3.835,12.127,5.255,18.081A95.772,95.772,0,0,0,1420.7,373.44,32.569,32.569,0,0,1,1413.375,380.281Zm14.848-3.379c-.205-.388-2.427-4.261-4.1-6.644a70.913,70.913,0,0,1-1.23,13.489c.823-.488,1.655-.959,2.474-1.434a20.886,20.886,0,0,1,4.41-2.345C1429.265,378.941,1428.758,377.914,1428.223,376.9Zm4,8.4c-.4-.964-.843-1.909-1.279-2.857a22.947,22.947,0,0,1-4.5,2.324c-1.383.666-2.762,1.35-4.184,1.924a76.671,76.671,0,0,1-5.225,15.069c2.152-1.132,4.346-2.176,6.6-3.162,3.558-1.558,7.642-3.859,11.552-4.023A56.536,56.536,0,0,0,1432.22,385.3Zm3.851,21.32a37.246,37.246,0,0,0-.417-9.616c-2.927,1.986-6.836,2.857-10.121,4.056s-6.563,2.442-9.889,3.54a92.872,92.872,0,0,1-10.217,15.645c4.844-.97,9.682-1.945,14.506-3.026,4.6-1.032,9.6-3,14.38-3.326A27.71,27.71,0,0,0,1436.071,406.618Zm-33.194,28.5c11.93,2.158,23.792-6.5,29.605-17.247a95.467,95.467,0,0,1-11.1,2.385c-6.015,1.2-12.116,2.128-18.223,2.73a111.914,111.914,0,0,1-8.02,8.43A16.24,16.24,0,0,0,1402.877,435.115Zm-8.271-9.356a96.938,96.938,0,0,0,10.624-13.014.832.832,0,0,1-.857-.542,136.466,136.466,0,0,1-5.367-16.037c-.117.185-.237.365-.353.552-3.543,5.72-7.982,12.206-9.15,18.942a17.028,17.028,0,0,0,2.7,12.477C1393.012,427.357,1393.817,426.571,1394.606,425.759Z" fill="#8a6239"/>
    <g id="Agrupar_135" data-name="Agrupar 135">
      <path id="Caminho_502" data-name="Caminho 502" d="M1847.054,439.231c-.552,5.14,1.635,11.16,6,16.518a32.2,32.2,0,0,0,11.92,9.4,22.6,22.6,0,0,0,7.634,1.873c5.858.354,11.46-1.868,16.2-6.428,5.684-5.47,9.54-15.4-4.365-31.631-5.01-5.849-10.773-9.069-17.623-9.836-5.417-.608-7.418,2.117-9.736,5.274a23.314,23.314,0,0,1-4.17,4.688A14.746,14.746,0,0,0,1847.054,439.231Zm19.67-4.711a23.533,23.533,0,0,1,9.43,6.858,11.542,11.542,0,0,1,1.848,3.2c.375.975,1.49,2.8,1.1,3.852-.419,1.122-2.4-1.451-2.744-1.924a37.335,37.335,0,0,0-9.631-8.916c-1.062-.75-2.964-1.67-3.465-2.977C1862.608,432.919,1866.206,434.312,1866.724,434.52Zm-4.769,5.991c4.184.756,8.06,3.14,11.32,5.79.481.389,4.846,3.914,3.737,4.373-.975.4-2.572-.618-3.46-1.066-2.194-1.111-4.258-2.445-6.43-3.581-.946-.495-9.759-3.917-9.88-4.737C1857.008,439.7,1861.452,440.42,1861.955,440.511Z" fill="#8a6239"/>
      <path id="Caminho_503" data-name="Caminho 503" d="M1924.741,363.648c-3.543-4.4-9.881-7.356-17.388-8.123a35.145,35.145,0,0,0-16.463,1.948,24.657,24.657,0,0,0-7.342,4.448c-4.8,4.251-7.408,10.293-7.547,17.475-.166,8.613,4.522,19.258,27.8,21.057,8.385.648,15.323-1.317,21.2-6.014,4.654-3.713,4.094-7.363,3.446-11.592a25.475,25.475,0,0,1-.4-6.84A16.1,16.1,0,0,0,1924.741,363.648Zm-11.552,18.829a25.7,25.7,0,0,1-12.578,1.985,12.616,12.616,0,0,1-3.9-1.042c-1.042-.464-3.31-1.009-3.821-2.128-.543-1.191,2.976-.735,3.6-.634a40.75,40.75,0,0,0,14.323-.552c1.4-.241,3.579-1,4.976-.377C1917.6,380.534,1913.75,382.237,1913.189,382.477Zm-.944-8.31c-3.815,2.647-8.649,3.8-13.213,4.271-.671.07-6.765.719-6.263-.492.442-1.063,2.464-1.509,3.5-1.848,2.551-.837,5.176-1.4,7.731-2.2,1.112-.348,10.561-4.511,11.287-3.972C1916.693,370.973,1912.7,373.849,1912.245,374.167Z" fill="#8a6239"/>
    </g>
    <path id="Caminho_504" data-name="Caminho 504" d="M1730.91,352.371a124.554,124.554,0,0,0-10.42-13.378,20.931,20.931,0,0,1-17.994,3.179c-7.741-2.206-15.644-7.483-22.166-12.042a54.34,54.34,0,0,1-9.417-8.178c-4.337-4.844-6.966-11.24-13.7-13.215a1.519,1.519,0,0,1-1.024-2.1,3.124,3.124,0,0,1-1.239-1.5,1.182,1.182,0,0,1,.338-1.379c12.687-9.867,30.347-18.33,46.742-14.247,13.8,3.436,26.9,17.928,27.077,32.568a20.234,20.234,0,0,1-5.341,14,130.942,130.942,0,0,1,10.62,13.708C1733.233,350.66,1732.066,351.506,1730.91,352.371ZM1670.1,315.1c.7.926,1.416,1.807,2.149,2.667,1.116-1.6,4.079-2.37,5.7-2.918,1.977-.667,5.19-2.007,7.1-.828a.48.48,0,0,1,.019.754c-.786.8-1.8.815-2.86,1.082a35.233,35.233,0,0,0-4.022,1.248c-1.368.525-3.067,1.829-4.635,2.151a57.756,57.756,0,0,0,9.618,8.352c5.639-2.417,12.126-3.835,18.08-5.255a95.771,95.771,0,0,0-37.995-14.579A32.567,32.567,0,0,1,1670.1,315.1Zm-3.379-14.848c-.388.205-4.261,2.427-6.643,4.105a70.9,70.9,0,0,1,13.488,1.23c-.487-.823-.959-1.655-1.434-2.474a20.884,20.884,0,0,1-2.344-4.41C1668.759,299.206,1667.731,299.713,1666.719,300.248Zm8.4-4c-.964.4-1.909.843-2.857,1.279a22.949,22.949,0,0,1,2.324,4.5c.667,1.383,1.351,2.762,1.924,4.184a76.639,76.639,0,0,1,15.069,5.225c-1.132-2.152-2.175-4.346-3.162-6.6-1.558-3.558-3.859-7.642-4.023-11.552A56.532,56.532,0,0,0,1675.115,296.251Zm21.321-3.851a37.242,37.242,0,0,0-9.616.417c1.985,2.927,2.856,6.836,4.055,10.121s2.443,6.563,3.541,9.889a92.946,92.946,0,0,1,15.645,10.217c-.97-4.844-1.946-9.682-3.027-14.506-1.032-4.6-3-9.6-3.325-14.38A27.719,27.719,0,0,0,1696.436,292.4Zm28.5,33.194c2.158-11.93-6.5-23.792-17.247-29.6a95.244,95.244,0,0,1,2.385,11.1c1.2,6.015,2.129,12.116,2.73,18.223a111.932,111.932,0,0,1,8.431,8.02A16.249,16.249,0,0,0,1724.932,325.594Zm-9.355,8.271a97.012,97.012,0,0,0-13.015-10.624.833.833,0,0,1-.541.857,136.579,136.579,0,0,1-16.037,5.367c.184.117.364.237.551.353,5.72,3.543,12.206,7.982,18.943,9.15a17.029,17.029,0,0,0,12.477-2.7C1717.175,335.459,1716.388,334.654,1715.577,333.865Z" fill="#8a6239"/>
    <path id="Caminho_505" data-name="Caminho 505" d="M551.909,350.79s-95.827,6.853-73.621-35.961c8.365-16.127,28.729-15.871,39.555,6.365C523.879,333.591,528.4,343.234,551.909,350.79Z" fill="#8a6239"/>
    <path id="Caminho_506" data-name="Caminho 506" d="M65.034,411.656S40.445,504.529,7.145,469.64C-5.4,456.5,1.446,437.317,25.992,434.286,39.676,432.6,50.265,431.442,65.034,411.656Z" fill="#8a6239"/>
    <path id="Caminho_507" data-name="Caminho 507" d="M1350.029,299.061s41.715-86.544,67.813-45.985c9.831,15.278-.519,32.817-25.2,31.15C1378.89,283.3,1368.274,282.426,1350.029,299.061Z" fill="#8a6239"/>
  </g>
</svg>
