<svg xmlns="http://www.w3.org/2000/svg" width="41.889" height="34.585" viewBox="0 0 41.889 34.585">
  <g id="icon_compartilhar" transform="translate(-1055.646 -1412.462)" fill="#285011">
    <path d="M 1058.324340820312 1445.892700195312 L 1057.628540039062 1445.702758789062 L 1057.547607421875 1445.6806640625 L 1056.728515625 1445.456909179688 L 1056.81640625 1444.612548828125 C 1056.834350585938 1444.439575195312 1056.8505859375 1444.266479492188 1056.86669921875 1444.09326171875 C 1056.90380859375 1443.696411132812 1056.942260742188 1443.286010742188 1057.002319335938 1442.872314453125 C 1057.4580078125 1439.758911132812 1058.271484375 1437.012817382812 1059.489501953125 1434.476196289062 C 1060.454345703125 1432.467407226562 1061.623046875 1430.701416015625 1062.96337890625 1429.227416992188 C 1064.4052734375 1427.6416015625 1066.097778320312 1426.3349609375 1067.993774414062 1425.34375 C 1070.088256835938 1424.248657226562 1072.39208984375 1423.554077148438 1074.841430664062 1423.279174804688 C 1075.556884765625 1423.19873046875 1076.284423828125 1423.146240234375 1076.987915039062 1423.095336914062 C 1077.006591796875 1423.093994140625 1077.025268554688 1423.092651367188 1077.0439453125 1423.09130859375 L 1077.0439453125 1416.484985351562 L 1077.0439453125 1414.473510742188 L 1078.647583007812 1415.687744140625 C 1081.857666015625 1418.118408203125 1085.04345703125 1420.531127929688 1088.22900390625 1422.943603515625 L 1094.815673828125 1427.931762695312 L 1095.87353515625 1428.732788085938 L 1094.812133789062 1429.528930664062 L 1086.888549804688 1435.472778320312 L 1078.654052734375 1441.64990234375 L 1077.053955078125 1442.850219726562 L 1077.053955078125 1440.849975585938 L 1077.053955078125 1440.451049804688 C 1077.05419921875 1439.775146484375 1077.054077148438 1439.099731445312 1077.053955078125 1438.42431640625 C 1077.053588867188 1436.887573242188 1077.05322265625 1435.304809570312 1077.05859375 1433.736083984375 C 1074.807250976562 1433.802978515625 1072.4384765625 1433.985961914062 1070.150512695312 1434.65478515625 C 1067.62548828125 1435.394409179688 1065.461669921875 1436.7333984375 1063.535888671875 1438.748046875 C 1061.697875976562 1440.671264648438 1060.228881835938 1442.890991210938 1058.915161132812 1445.003051757812 C 1058.866821289062 1445.081298828125 1058.81640625 1445.15576171875 1058.77197265625 1445.221435546875 C 1058.755981445312 1445.245239257812 1058.739990234375 1445.268798828125 1058.72412109375 1445.29248046875 L 1058.324340820312 1445.892700195312 Z" stroke="none"/>
    <path d="M 1078.0439453125 1416.484985351562 L 1078.0439453125 1424.01904296875 C 1076.984985351562 1424.10400390625 1075.965942382812 1424.159057617188 1074.953002929688 1424.27294921875 C 1072.671020507812 1424.529052734375 1070.495971679688 1425.163940429688 1068.45703125 1426.22998046875 C 1064.745971679688 1428.170043945312 1062.180053710938 1431.183959960938 1060.390991210938 1434.909057617188 C 1059.156005859375 1437.48095703125 1058.404052734375 1440.199951171875 1057.991943359375 1443.015991210938 C 1057.910034179688 1443.579956054688 1057.869995117188 1444.149047851562 1057.81103515625 1444.715942382812 L 1057.891967773438 1444.738037109375 C 1057.949951171875 1444.651000976562 1058.010986328125 1444.56396484375 1058.066040039062 1444.474975585938 C 1059.475952148438 1442.2080078125 1060.9599609375 1439.995971679688 1062.81298828125 1438.057006835938 C 1064.787963867188 1435.990966796875 1067.114990234375 1434.501953125 1069.869995117188 1433.694946289062 C 1072.421997070312 1432.948974609375 1075.041015625 1432.776977539062 1077.677001953125 1432.719970703125 C 1077.686645507812 1432.7197265625 1077.696044921875 1432.719604492188 1077.705200195312 1432.719604492188 C 1078.004516601562 1432.719604492188 1078.06201171875 1432.830810546875 1078.06103515625 1433.115966796875 C 1078.050048828125 1435.56103515625 1078.055053710938 1438.005981445312 1078.053955078125 1440.451049804688 C 1078.053955078125 1440.56298828125 1078.053955078125 1440.676025390625 1078.053955078125 1440.849975585938 C 1083.468994140625 1436.787963867188 1088.817016601562 1432.776000976562 1094.212036132812 1428.72900390625 C 1088.81494140625 1424.641967773438 1083.463989257812 1420.588989257812 1078.0439453125 1416.484985351562 M 1076.0439453125 1412.4619140625 L 1079.251220703125 1414.890502929688 C 1082.461303710938 1417.321166992188 1085.647216796875 1419.73388671875 1088.832641601562 1422.146362304688 L 1095.41943359375 1427.134521484375 L 1097.534912109375 1428.736572265625 L 1095.412231445312 1430.328857421875 L 1087.488647460938 1436.272705078125 L 1079.254150390625 1442.449829101562 L 1076.053955078125 1444.850341796875 L 1076.053955078125 1440.849975585938 L 1076.053955078125 1440.451049804688 C 1076.05419921875 1439.77490234375 1076.054077148438 1439.099731445312 1076.053955078125 1438.424560546875 C 1076.053588867188 1437.226806640625 1076.053344726562 1436.001220703125 1076.055786132812 1434.775634765625 C 1074.18994140625 1434.866943359375 1072.272216796875 1435.076416015625 1070.43115234375 1435.614624023438 C 1068.079467773438 1436.303466796875 1066.06005859375 1437.554565429688 1064.258666992188 1439.43896484375 C 1062.483642578125 1441.29638671875 1061.049560546875 1443.464721679688 1059.764404296875 1445.53125 C 1059.70654296875 1445.624755859375 1059.6474609375 1445.7119140625 1059.60009765625 1445.782104492188 C 1059.58544921875 1445.8037109375 1059.57080078125 1445.825439453125 1059.556274414062 1445.847045898438 L 1058.756591796875 1447.047241210938 L 1057.365356445312 1446.66748046875 L 1057.284423828125 1446.645385742188 L 1055.646118164062 1446.1982421875 L 1055.82177734375 1444.509033203125 C 1055.83935546875 1444.339599609375 1055.855224609375 1444.169921875 1055.87109375 1444.000244140625 C 1055.909423828125 1443.5908203125 1055.948974609375 1443.16748046875 1056.0126953125 1442.728515625 C 1056.483276367188 1439.512573242188 1057.32568359375 1436.67236328125 1058.588134765625 1434.043334960938 C 1059.594848632812 1431.947021484375 1060.817993164062 1430.100463867188 1062.223510742188 1428.5546875 C 1063.74462890625 1426.881713867188 1065.530151367188 1425.503295898438 1067.530395507812 1424.45751953125 C 1069.73486328125 1423.304931640625 1072.1572265625 1422.57421875 1074.72998046875 1422.285400390625 C 1075.1689453125 1422.236083984375 1075.60888671875 1422.197143554688 1076.0439453125 1422.162841796875 L 1076.0439453125 1416.484985351562 L 1076.0439453125 1412.4619140625 Z" stroke="none" fill="#fff"/>
  </g>
</svg>
