<svg xmlns="http://www.w3.org/2000/svg" width="46.511" height="54.276" viewBox="0 0 46.511 54.276">
  <g id="icon_arquivos" transform="translate(-1095.81 -227.362)">
    <g id="Agrupar_94" data-name="Agrupar 94">
      <g id="Agrupar_93" data-name="Agrupar 93">
        <path id="Caminho_263" data-name="Caminho 263" d="M1103.269,281.166h35.216a3.369,3.369,0,0,0,3.365-3.365V231.707" fill="none" stroke="#fff" stroke-miterlimit="10" stroke-width="0.943"/>
      </g>
    </g>
    <path id="Caminho_264" data-name="Caminho 264" d="M1136.391,234.124c1.777,1.4,1.973,1.654,3.654,3.163" fill="none" stroke="#fff" stroke-miterlimit="10" stroke-width="0.943"/>
    <path id="Caminho_265" data-name="Caminho 265" d="M1136.116,230.174a35.95,35.95,0,0,1,3.065,2.555" fill="none" stroke="#fff" stroke-miterlimit="10" stroke-width="0.943"/>
    <path id="Caminho_266" data-name="Caminho 266" d="M1136.332,238.25c1.777,1.4,2.032,1.536,3.713,3.045" fill="none" stroke="#fff" stroke-miterlimit="10" stroke-width="0.943"/>
    <path id="Caminho_267" data-name="Caminho 267" d="M1136.332,242.14c1.777,1.4,2.032,1.575,3.713,3.085" fill="none" stroke="#fff" stroke-miterlimit="10" stroke-width="0.943"/>
    <path id="Caminho_268" data-name="Caminho 268" d="M1136.391,246.148c1.777,1.4,1.973,1.261,3.654,2.77" fill="none" stroke="#fff" stroke-miterlimit="10" stroke-width="0.943"/>
    <path id="Caminho_269" data-name="Caminho 269" d="M1136.646,250.313c1.777,1.4,2.032,1.576,3.714,3.085" fill="none" stroke="#fff" stroke-miterlimit="10" stroke-width="0.943"/>
    <path id="Caminho_270" data-name="Caminho 270" d="M1136.391,254.459c1.777,1.4,2.15,1.595,3.831,3.1" fill="none" stroke="#fff" stroke-miterlimit="10" stroke-width="0.943"/>
    <path id="Caminho_271" data-name="Caminho 271" d="M1136.332,257.7c1.777,1.4,2.032,1.732,3.713,3.242" fill="none" stroke="#fff" stroke-miterlimit="10" stroke-width="0.943"/>
    <path id="Caminho_272" data-name="Caminho 272" d="M1136.45,262.593c1.776,1.4,2.032,1.438,3.713,2.947" fill="none" stroke="#fff" stroke-miterlimit="10" stroke-width="0.943"/>
    <path id="Caminho_273" data-name="Caminho 273" d="M1136.332,266.955c1.777,1.4,2.032,1.438,3.713,2.947" fill="none" stroke="#fff" stroke-miterlimit="10" stroke-width="0.943"/>
    <path id="Caminho_274" data-name="Caminho 274" d="M1136.332,271.906a17.2,17.2,0,0,0,3.006,2.476" fill="none" stroke="#fff" stroke-miterlimit="10" stroke-width="0.943"/>
    <path id="Caminho_275" data-name="Caminho 275" d="M1135.389,275.325c1.777,1.4,2.268,1.713,3.949,3.222" fill="none" stroke="#fff" stroke-miterlimit="10" stroke-width="0.943"/>
    <path id="Caminho_276" data-name="Caminho 276" d="M1131.97,276.74a27.712,27.712,0,0,1,2.653,2.3" fill="none" stroke="#fff" stroke-miterlimit="10" stroke-width="0.943"/>
    <path id="Caminho_277" data-name="Caminho 277" d="M1126.37,276.858c1.777,1.395.677.746,2.358,2.255" fill="none" stroke="#fff" stroke-miterlimit="10" stroke-width="0.943"/>
    <path id="Caminho_278" data-name="Caminho 278" d="M1120.476,276.74a22.688,22.688,0,0,1,2.358,2.137" fill="none" stroke="#fff" stroke-miterlimit="10" stroke-width="0.943"/>
    <path id="Caminho_279" data-name="Caminho 279" d="M1115.053,276.858c1.777,1.395.441.51,2.122,2.019" fill="none" stroke="#fff" stroke-miterlimit="10" stroke-width="0.943"/>
    <path id="Caminho_280" data-name="Caminho 280" d="M1109.336,276.8c1.777,1.395.5.569,2.181,2.078" fill="none" stroke="#fff" stroke-miterlimit="10" stroke-width="0.943"/>
    <path id="Caminho_281" data-name="Caminho 281" d="M1104.129,277.172a21.6,21.6,0,0,1,2.358,2.02" fill="none" stroke="#fff" stroke-miterlimit="10" stroke-width="0.943"/>
    <rect id="Retângulo_15" data-name="Retângulo 15" width="40.001" height="48.956" rx="4.263" transform="translate(1096.31 227.862)" fill="none" stroke="#fff" stroke-miterlimit="10" stroke-width="1"/>
    <path id="Caminho_282" data-name="Caminho 282" d="M1115.406,268.8l13.44.267" fill="none" stroke="#fff" stroke-miterlimit="10" stroke-width="1"/>
    <path id="Caminho_283" data-name="Caminho 283" d="M1115.406,264.67l13.44.267" fill="none" stroke="#fff" stroke-miterlimit="10" stroke-width="1"/>
    <path id="Caminho_284" data-name="Caminho 284" d="M1115.406,259.954l13.44.267" fill="none" stroke="#fff" stroke-miterlimit="10" stroke-width="1"/>
    <path id="Caminho_285" data-name="Caminho 285" d="M1115.406,255.239l13.44.267" fill="none" stroke="#c4d52c" stroke-miterlimit="10" stroke-width="0.707"/>
    <path id="Caminho_286" data-name="Caminho 286" d="M1114.816,271.154l13.441.266" fill="none" stroke="#c4d52c" stroke-miterlimit="10" stroke-width="0.707"/>
    <path id="Caminho_287" data-name="Caminho 287" d="M1104.208,269.648c1.309.908,1.509,1.079,2.818,1.987,1.992-2.708,3.076-4.091,4.805-6.527" fill="none" stroke="#fff" stroke-miterlimit="10" stroke-width="1"/>
    <path id="Caminho_288" data-name="Caminho 288" d="M1103.029,260.06c1.309.908,1.509,1.079,2.818,1.987,1.992-2.709,3.076-4.091,4.8-6.527" fill="none" stroke="#fff" stroke-miterlimit="10" stroke-width="1"/>
    <g id="Agrupar_97" data-name="Agrupar 97">
      <g id="Agrupar_96" data-name="Agrupar 96">
        <g id="Agrupar_95" data-name="Agrupar 95">
          <path id="Caminho_289" data-name="Caminho 289" d="M1127.52,232.2h-10.767c-.619,0-1.122.7-1.122,1.57v15.072c0,.867.5,1.57,1.122,1.57h10.767c.619,0,1.121-.7,1.121-1.57V233.77C1128.641,232.9,1128.139,232.2,1127.52,232.2Z" fill="#fff" stroke="#c4d52c" stroke-miterlimit="10" stroke-width="0.943"/>
        </g>
      </g>
    </g>
    <path id="Caminho_290" data-name="Caminho 290" d="M1099.275,244.235l-.008-11.8a1.667,1.667,0,0,1,.144-.833,1.379,1.379,0,0,1,.586-.5,7.8,7.8,0,0,1,3.739-.572l5.438.067" fill="none" stroke="#fff" stroke-miterlimit="10" stroke-width="0.943"/>
  </g>
</svg>
