<svg xmlns="http://www.w3.org/2000/svg" width="32.619" height="35.347" viewBox="0 0 32.619 35.347">
  <g id="icon_porcao" transform="translate(-401.578 -1480.185)">
    <path id="Caminho_547" data-name="Caminho 547" d="M411.846,1515.532h12.089c6.388,0,10.484-8.7,10.24-13.42a1.735,1.735,0,0,0,.022-.283c0-1.435-1.609-2.335-5.385-3.035a65.488,65.488,0,0,0-10.627-.851v-.008c-.1,0-.2.008-.3.008s-.194-.008-.291-.008v.008a63.988,63.988,0,0,0-10.635.851c-3.769.693-5.383,1.6-5.383,3.035a1.857,1.857,0,0,0,.021.283c-.235,4.718,3.853,13.42,10.247,13.42Zm6.041-15.568c8.093.036,12.887,1.137,14.162,1.865-1.275.734-6.069,1.835-14.162,1.864-8.085-.029-12.879-1.13-14.161-1.864,1.282-.728,6.076-1.829,14.161-1.865Zm0,0" fill="#d62e42"/>
    <path id="Caminho_548" data-name="Caminho 548" d="M412.926,1490.93a4.272,4.272,0,0,0,.4.569l.346.422a3.587,3.587,0,0,1,.215.4,3.534,3.534,0,0,1,.278.949,9.742,9.742,0,0,1,.077,1.974c-.084,1.225-.2,2.119-.2,2.119a6.134,6.134,0,0,0,1.178-1.883,5.98,5.98,0,0,0,.333-1.054,4.874,4.874,0,0,0,.146-1.275,4.125,4.125,0,0,0-.236-1.44,4.2,4.2,0,0,0-.339-.715,2.511,2.511,0,0,0-.236-.332l-.124-.167-.064-.076-.012-.019a.5.5,0,0,1,.041.048l-.007-.008-.022-.028a4.277,4.277,0,0,1-.353-.456,2.363,2.363,0,0,1-.172-.369,4.136,4.136,0,0,1-.257-.961,10.18,10.18,0,0,1-.062-1.99c.083-1.226.186-2.119.186-2.119a6.763,6.763,0,0,0-1.662,4.2,4.175,4.175,0,0,0,.2,1.442,3.8,3.8,0,0,0,.346.768Zm0,0" fill="#d62e42"/>
    <path id="Caminho_549" data-name="Caminho 549" d="M416.778,1486.593a4.138,4.138,0,0,0,.4.568l.345.424a2,2,0,0,1,.215.407,3.443,3.443,0,0,1,.278.942,9.218,9.218,0,0,1,.077,1.976c-.077,1.226-.2,2.12-.2,2.12a5.9,5.9,0,0,0,1.177-1.886,5.806,5.806,0,0,0,.334-1.052,4.905,4.905,0,0,0,.152-1.275,4.172,4.172,0,0,0-.236-1.442,5.788,5.788,0,0,0-.338-.713,3.852,3.852,0,0,0-.243-.331l-.125-.16-.063-.083-.013-.022c0,.007.02.022.048.05l-.035-.035a4.166,4.166,0,0,1-.346-.458,2.421,2.421,0,0,1-.174-.367,4.192,4.192,0,0,1-.263-.963,10.74,10.74,0,0,1-.055-1.989c.077-1.225.187-2.119.187-2.119a6.093,6.093,0,0,0-1.171,1.884,6.346,6.346,0,0,0-.5,2.314,4.267,4.267,0,0,0,.207,1.435,3.266,3.266,0,0,0,.346.775Zm0,0" fill="#d62e42"/>
  </g>
</svg>
