<svg xmlns="http://www.w3.org/2000/svg" width="85.473" height="81.763" viewBox="0 0 85.473 81.763">
  <g id="icon_contatos" transform="translate(-105.069 -214.051)">
    <circle id="Elipse_8" data-name="Elipse 8" cx="5.833" cy="5.833" r="5.833" transform="translate(111.316 245.964)" fill="none" stroke="#fff" stroke-miterlimit="10" stroke-width="1.8"/>
    <path id="Caminho_291" data-name="Caminho 291" d="M129.052,269.023a11.8,11.8,0,0,0-12.09-11.1,11.334,11.334,0,0,0-10.987,11.669l11.049.03" fill="none" stroke="#fff" stroke-miterlimit="10" stroke-width="1.8"/>
    <circle id="Elipse_9" data-name="Elipse 9" cx="5.833" cy="5.833" r="5.833" transform="translate(172.629 245.964)" fill="none" stroke="#fff" stroke-miterlimit="10" stroke-width="1.8"/>
    <path id="Caminho_292" data-name="Caminho 292" d="M166.56,269.023a11.8,11.8,0,0,1,12.089-11.1,11.333,11.333,0,0,1,10.987,11.669l-11.049.03" fill="none" stroke="#fff" stroke-miterlimit="10" stroke-width="1.8"/>
    <path id="Caminho_293" data-name="Caminho 293" d="M148.966,216.659c0-.648-.013-1.29-.04-1.938-.018-.411-.681-.328-.694.089-.106,3.4-.1,9.994.152,13.452.022.3.636.3.647-.023C149.1,226.287,148.965,217.064,148.966,216.659Z" fill="#fff" stroke="#fff" stroke-miterlimit="10" stroke-width="0.8"/>
    <path id="Caminho_294" data-name="Caminho 294" d="M140.777,218.779c-.177-.374-.722-.084-.544.3,2.814,6,1.707,3.364,4.866,9.167a.22.22,0,1,0,.386-.21C142.712,222.122,143.618,224.771,140.777,218.779Z" fill="#fff" stroke="#fff" stroke-miterlimit="10" stroke-width="0.5"/>
    <path id="Caminho_295" data-name="Caminho 295" d="M156.565,219.459c.208-.357-.34-.642-.552-.28-3.353,5.72-1.806,3.312-4.8,9.2a.219.219,0,1,0,.391.2C154.9,223.018,153.236,225.2,156.565,219.459Z" fill="#fff" stroke="#fff" stroke-miterlimit="10" stroke-width="0.5"/>
    <path id="Caminho_296" data-name="Caminho 296" d="M160.516,223.628c.228-.224-.194-.67-.426-.444-3.676,3.581-2.013,2.125-5.407,5.986-.151.172.136.476.3.316C158.586,226.014,156.859,227.232,160.516,223.628Z" fill="#fff" stroke="#fff" stroke-miterlimit="10" stroke-width="0.439"/>
    <path id="Caminho_297" data-name="Caminho 297" d="M162.09,229.939c.231-.018.25-.63.016-.614-3.694.258-2.107.264-5.806.916-.165.029-.178.445-.012.435C159.888,230.452,158.393,230.225,162.09,229.939Z" fill="#fff" stroke="#fff" stroke-miterlimit="10" stroke-width="0.371"/>
    <path id="Caminho_298" data-name="Caminho 298" d="M134.352,229.439c-.23-.018-.25-.63-.016-.614,3.7.258,2.108.264,5.807.916.164.029.177.445.011.435C136.554,229.952,138.049,229.725,134.352,229.439Z" fill="#fff" stroke="#fff" stroke-miterlimit="10" stroke-width="0.371"/>
    <path id="Caminho_299" data-name="Caminho 299" d="M136.706,223.128c-.228-.224.194-.67.426-.444,3.675,3.581,2.013,2.125,5.407,5.986.151.172-.136.476-.3.316C138.636,225.514,140.362,226.732,136.706,223.128Z" fill="#fff" stroke="#fff" stroke-miterlimit="10" stroke-width="0.439"/>
    <circle id="Elipse_10" data-name="Elipse 10" cx="22.5" cy="22.5" r="22.5" transform="translate(125.587 231.247)" fill="none" stroke="#fff" stroke-miterlimit="10" stroke-width="1.8"/>
    <circle id="Elipse_11" data-name="Elipse 11" cx="17.586" cy="17.586" r="17.586" transform="translate(130.502 236.162)" fill="none" stroke="#fff" stroke-miterlimit="10" stroke-width="1.8"/>
    <g id="Agrupar_99" data-name="Agrupar 99">
      <circle id="Elipse_12" data-name="Elipse 12" cx="5.833" cy="5.833" r="5.833" transform="translate(142.254 245.214)" fill="#fff"/>
      <path id="Caminho_300" data-name="Caminho 300" d="M159.421,267.5a11.334,11.334,0,0,0-22.667,0s4.708,4.25,10.833,3.875A29.463,29.463,0,0,0,159.421,267.5Z" fill="#fff"/>
    </g>
    <path id="Caminho_301" data-name="Caminho 301" d="M138.386,274.38l-16.412,19.387a3.8,3.8,0,0,1-5.341.111l-.76-.644a3.8,3.8,0,0,1-.763-5.288l16.648-19.6" fill="none" stroke="#fff" stroke-miterlimit="10" stroke-width="1.8"/>
  </g>
</svg>
