<svg xmlns="http://www.w3.org/2000/svg" width="65.995" height="56.419" viewBox="0 0 65.995 56.419">
  <g id="icon_eventos" transform="translate(-605.964 -221.164)">
    <path id="Caminho_243" data-name="Caminho 243" d="M615.8,253.046c.2.252.688-.119.489-.375-3.154-4.048-.326-.645-3.789-4.445-.154-.169-.488.083-.347.266C615.2,252.454,612.621,249.014,615.8,253.046Z" fill="#fff" stroke="#fff" stroke-miterlimit="10" stroke-width="0.25"/>
    <path id="Caminho_244" data-name="Caminho 244" d="M614.011,255.4c.269.173.61-.338.338-.514-4.309-2.788-.52-.5-5.039-2.954-.2-.109-.433.239-.24.365C613.254,255.036,609.684,252.635,614.011,255.4Z" fill="#fff" stroke="#fff" stroke-miterlimit="10" stroke-width="0.25"/>
    <path id="Caminho_245" data-name="Caminho 245" d="M607.36,255.345c-.3-.123-.542.44-.243.566,4.732,1.987.6.4,5.48,2.022.217.072.384-.311.172-.4C608.168,255.57,612.1,257.306,607.36,255.345Z" fill="#fff" stroke="#fff" stroke-miterlimit="10" stroke-width="0.25"/>
    <path id="Caminho_246" data-name="Caminho 246" d="M606.753,259.512c-.319-.037-.4.571-.079.61,5.095.615.688.224,5.824.443.229.01.285-.4.056-.433C607.592,259.507,611.853,260.1,606.753,259.512Z" fill="#fff" stroke="#fff" stroke-miterlimit="10" stroke-width="0.25"/>
    <path id="Caminho_247" data-name="Caminho 247" d="M606.283,263.961c-.314.06-.212.665.107.606,5.047-.928.723.01,5.693-1.308.221-.058.151-.471-.076-.43C607.083,263.707,611.328,263,606.283,263.961Z" fill="#fff" stroke="#fff" stroke-miterlimit="10" stroke-width="0.25"/>
    <path id="Caminho_248" data-name="Caminho 248" d="M607.143,267.683c-.285.147-.015.7.274.551,4.576-2.323.7-.2,5.087-2.871.195-.119.011-.494-.2-.391C607.837,267.212,611.707,265.333,607.143,267.683Z" fill="#fff" stroke="#fff" stroke-miterlimit="10" stroke-width="0.25"/>
    <path id="Caminho_249" data-name="Caminho 249" d="M609.9,271.932c-.22.233.218.663.442.429,3.541-3.715.591-.417,3.84-4.4.144-.177-.154-.47-.314-.3C610.4,271.257,613.422,268.2,609.9,271.932Z" fill="#fff" stroke="#fff" stroke-miterlimit="10" stroke-width="0.25"/>
    <g id="Agrupar_65" data-name="Agrupar 65">
      <g id="Agrupar_64" data-name="Agrupar 64">
        <g id="Agrupar_63" data-name="Agrupar 63">
          <g id="Agrupar_62" data-name="Agrupar 62">
            <path id="Caminho_250" data-name="Caminho 250" d="M640.525,256.743a4.657,4.657,0,1,0,4.645,4.885,4.737,4.737,0,0,0-4.645-4.885c-.609-.033-.607.914,0,.947,4.748.257,4.793,7.421,0,7.421s-4.752-7.164,0-7.421C641.131,257.657,641.135,256.71,640.525,256.743Z" fill="#fff"/>
          </g>
        </g>
      </g>
    </g>
    <g id="Agrupar_69" data-name="Agrupar 69">
      <g id="Agrupar_68" data-name="Agrupar 68">
        <g id="Agrupar_67" data-name="Agrupar 67">
          <g id="Agrupar_66" data-name="Agrupar 66">
            <path id="Caminho_251" data-name="Caminho 251" d="M650.8,256.743a4.657,4.657,0,1,0,4.645,4.885,4.737,4.737,0,0,0-4.645-4.885c-.609-.033-.607.914,0,.947,4.748.257,4.793,7.421,0,7.421s-4.752-7.164,0-7.421C651.407,257.657,651.411,256.71,650.8,256.743Z" fill="#fff"/>
          </g>
        </g>
      </g>
    </g>
    <g id="Agrupar_73" data-name="Agrupar 73">
      <g id="Agrupar_72" data-name="Agrupar 72">
        <g id="Agrupar_71" data-name="Agrupar 71">
          <g id="Agrupar_70" data-name="Agrupar 70">
            <path id="Caminho_252" data-name="Caminho 252" d="M661.077,256.743a4.657,4.657,0,1,0,4.645,4.885,4.737,4.737,0,0,0-4.645-4.885c-.609-.033-.607.914,0,.947,4.748.257,4.793,7.421,0,7.421s-4.752-7.164,0-7.421C661.683,257.657,661.687,256.71,661.077,256.743Z" fill="#fff"/>
          </g>
        </g>
      </g>
    </g>
    <g id="Agrupar_77" data-name="Agrupar 77">
      <g id="Agrupar_76" data-name="Agrupar 76">
        <g id="Agrupar_75" data-name="Agrupar 75">
          <g id="Agrupar_74" data-name="Agrupar 74">
            <path id="Caminho_253" data-name="Caminho 253" d="M650.8,245.293a4.657,4.657,0,1,0,4.645,4.885,4.736,4.736,0,0,0-4.645-4.885c-.609-.033-.607.914,0,.947,4.748.256,4.793,7.421,0,7.421s-4.752-7.165,0-7.421C651.407,246.207,651.411,245.26,650.8,245.293Z" fill="#fff"/>
          </g>
        </g>
      </g>
    </g>
    <g id="Agrupar_81" data-name="Agrupar 81">
      <g id="Agrupar_80" data-name="Agrupar 80">
        <g id="Agrupar_79" data-name="Agrupar 79">
          <g id="Agrupar_78" data-name="Agrupar 78">
            <path id="Caminho_254" data-name="Caminho 254" d="M661.077,245.293a4.657,4.657,0,1,0,4.645,4.885,4.736,4.736,0,0,0-4.645-4.885c-.609-.033-.607.914,0,.947,4.748.256,4.793,7.421,0,7.421s-4.752-7.165,0-7.421C661.683,246.207,661.687,245.26,661.077,245.293Z" fill="#fff"/>
          </g>
        </g>
      </g>
    </g>
    <g id="Agrupar_83" data-name="Agrupar 83">
      <g id="Agrupar_82" data-name="Agrupar 82">
        <path id="Caminho_255" data-name="Caminho 255" d="M640.525,245.766a4.184,4.184,0,1,0,4.184,4.184A4.189,4.189,0,0,0,640.525,245.766Z" fill="#fff"/>
      </g>
    </g>
    <g id="Agrupar_85" data-name="Agrupar 85">
      <g id="Agrupar_84" data-name="Agrupar 84">
        <path id="Caminho_256" data-name="Caminho 256" d="M630.249,234.879a4.184,4.184,0,1,0,4.184,4.184A4.188,4.188,0,0,0,630.249,234.879Z" fill="#fff"/>
      </g>
    </g>
    <g id="Agrupar_87" data-name="Agrupar 87">
      <g id="Agrupar_86" data-name="Agrupar 86">
        <path id="Caminho_257" data-name="Caminho 257" d="M650.8,234.879a4.184,4.184,0,1,0,4.184,4.184A4.189,4.189,0,0,0,650.8,234.879Z" fill="#fff"/>
      </g>
    </g>
    <g id="Agrupar_89" data-name="Agrupar 89">
      <g id="Agrupar_88" data-name="Agrupar 88">
        <path id="Caminho_258" data-name="Caminho 258" d="M661.077,234.879a4.184,4.184,0,1,0,4.184,4.184A4.189,4.189,0,0,0,661.077,234.879Z" fill="#fff"/>
      </g>
    </g>
    <g id="Agrupar_91" data-name="Agrupar 91">
      <g id="Agrupar_90" data-name="Agrupar 90">
        <path id="Caminho_259" data-name="Caminho 259" d="M640.525,234.879a4.184,4.184,0,1,0,4.184,4.184A4.189,4.189,0,0,0,640.525,234.879Z" fill="#fff"/>
      </g>
    </g>
    <path id="Caminho_260" data-name="Caminho 260" d="M618.027,262.249c1.314.911,1.515,1.083,2.829,1.994,2-2.719,3.088-4.106,4.824-6.552" fill="none" stroke="#fff" stroke-miterlimit="10" stroke-width="1.8"/>
    <path id="Caminho_261" data-name="Caminho 261" d="M620.354,250.63V231.815s0-4.852,4.379-4.852H666.68c4.379,0,4.379,4.852,4.379,4.852V250.63L671,271.813s.119,4.852-5.8,4.852H620.354s-3.905.473-3.905-6.035" fill="none" stroke="#fff" stroke-miterlimit="10" stroke-width="1.8"/>
    <circle id="Elipse_7" data-name="Elipse 7" cx="7.929" cy="7.929" r="7.929" transform="translate(614.111 253.442)" fill="none" stroke="#fff" stroke-miterlimit="10" stroke-width="1.42"/>
    <path id="Caminho_262" data-name="Caminho 262" d="M666.98,271.7c-.416.077-5.44.333-16.331.355-4.714.009-16.212.236-22.839,0" fill="none" stroke="#fff" stroke-miterlimit="10" stroke-width="1.8"/>
    <rect id="Ret창ngulo_13" data-name="Ret창ngulo 13" width="4.734" height="11.834" rx="2.367" transform="translate(625.68 221.164)" fill="#fff"/>
    <rect id="Ret창ngulo_14" data-name="Ret창ngulo 14" width="4.734" height="11.834" rx="2.367" transform="translate(660.945 221.164)" fill="#fff"/>
  </g>
</svg>
