<svg xmlns="http://www.w3.org/2000/svg" width="30.304" height="30.304" viewBox="0 0 30.304 30.304">
  <g id="icon_tempopreparo" transform="translate(-400.662 -1527.542)">
    <path id="Caminho_550" data-name="Caminho 550" d="M415.814,1557.846a15.152,15.152,0,1,1,10.714-4.438A15.049,15.049,0,0,1,415.814,1557.846Zm0-27.856a12.7,12.7,0,1,0,12.7,12.7A12.718,12.718,0,0,0,415.814,1529.99Z" fill="#d62e42"/>
    <path id="Caminho_551" data-name="Caminho 551" d="M419.992,1548.1a1.222,1.222,0,0,1-.866-.359l-4.178-4.178a1.227,1.227,0,0,1-.358-.866v-8.357a1.224,1.224,0,0,1,2.448,0v7.85l3.82,3.82a1.225,1.225,0,0,1-.866,2.09Z" fill="#d62e42"/>
  </g>
</svg>
