<svg xmlns="http://www.w3.org/2000/svg" width="39.885" height="61.624" viewBox="0 0 39.885 61.624">
  <g id="icon_historia_ativo" transform="translate(-360.134 -192.333)">
    <g id="Agrupar_142" data-name="Agrupar 142">
      <path id="Caminho_526" data-name="Caminho 526" d="M396.584,252.554h-2.1v-2.8h-3.5v-7.16a5.64,5.64,0,0,0-2.514-4.7l-7.434-4.953,7.434-4.953a5.641,5.641,0,0,0,2.514-4.7v-7.16h3.5v-2.8h2.1a.7.7,0,1,0,0-1.4H362.958a.7.7,0,1,0,0,1.4h2.1v2.8h3.5v7.16a5.641,5.641,0,0,0,2.514,4.7l7.434,4.953-7.434,4.953a5.64,5.64,0,0,0-2.514,4.7v7.16h-3.5v2.8h-2.1a.7.7,0,1,0,0,1.4h33.626a.7.7,0,1,0,0-1.4Zm-30.123-37.83v-1.4h26.62v1.4Zm5,12.231a4.449,4.449,0,0,1-1.982-3.71v-7.516h20.59v7.516a4.449,4.449,0,0,1-1.982,3.71l-8.313,5.54Zm-2.029,15.3a4.434,4.434,0,0,1,1.976-3.7l8.288-5.524,8.288,5.524a4.434,4.434,0,0,1,1.976,3.7v7.493H369.429Zm-2.968,8.9h26.62v1.4h-26.62Zm0,0" fill="#fff"/>
    </g>
    <g id="Agrupar_143" data-name="Agrupar 143">
      <path id="Caminho_527" data-name="Caminho 527" d="M380.392,200.069c-.122-2.49-.064-5.042-.3-7.517-.028-.295-.372-.291-.386.01-.12,2.477.112,5.041.226,7.518.116,2.5.222,5.021.535,7.5.027.217.3.228.294-.007C380.716,205.07,380.515,202.57,380.392,200.069Z" fill="#fff"/>
      <path id="Caminho_528" data-name="Caminho 528" d="M376.934,192.857c-.038-.3-.476-.218-.439.082.593,4.747,1.008,9.606,1.883,14.292a.159.159,0,1,0,.312-.058C378.36,202.386,377.549,197.6,376.934,192.857Z" fill="#fff"/>
      <path id="Caminho_529" data-name="Caminho 529" d="M374.211,193.708c-.115-.3-.528-.074-.438.234.67,2.275,1.427,4.5,2.034,6.807s1.1,4.634,1.686,6.94a.1.1,0,1,0,.188-.035A58.846,58.846,0,0,0,374.211,193.708Z" fill="#fff"/>
      <path id="Caminho_530" data-name="Caminho 530" d="M376.206,207.269c-.9-2.061-1.922-4.047-2.838-6.1s-1.665-4.224-2.634-6.224c-.122-.251-.479-.072-.394.21a49.985,49.985,0,0,0,2.5,6.087,59.353,59.353,0,0,0,3.116,6.212C376.066,207.637,376.3,207.472,376.206,207.269Z" fill="#fff"/>
      <path id="Caminho_531" data-name="Caminho 531" d="M374.69,208.187a48.429,48.429,0,0,0-3.635-5.85c-1.158-1.783-2.212-3.714-3.462-5.4-.14-.189-.391.064-.283.273,1.06,2.053,2.43,3.936,3.656,5.851a35.7,35.7,0,0,0,3.64,5.21C374.652,208.318,374.721,208.253,374.69,208.187Z" fill="#fff"/>
      <path id="Caminho_532" data-name="Caminho 532" d="M372.225,207.835c-2.254-2.888-4.738-5.51-6.99-8.406-.218-.28-.565.153-.344.429a69.7,69.7,0,0,0,7.177,8.172C372.182,208.134,372.326,207.965,372.225,207.835Z" fill="#fff"/>
      <path id="Caminho_533" data-name="Caminho 533" d="M369.726,208.564c-2.1-2.249-4.3-4.373-6.493-6.49-.222-.215-.534.166-.31.387,2.179,2.152,4.363,4.3,6.63,6.319C369.678,208.891,369.849,208.7,369.726,208.564Z" fill="#fff"/>
      <path id="Caminho_534" data-name="Caminho 534" d="M366.328,208.535c-1.573-1.589-3.287-2.953-4.834-4.588-.252-.267-.615.183-.363.452a21.561,21.561,0,0,0,5.08,4.326C366.307,208.776,366.42,208.628,366.328,208.535Z" fill="#fff"/>
      <path id="Caminho_535" data-name="Caminho 535" d="M362.5,208.517a8.765,8.765,0,0,0-1.007-.934c-.333-.267-.712-.684-1.114-.754a.224.224,0,0,0-.209.339,3.015,3.015,0,0,0,1.019.865,8.5,8.5,0,0,0,1.2.717C362.5,208.8,362.575,208.6,362.5,208.517Z" fill="#fff"/>
      <path id="Caminho_536" data-name="Caminho 536" d="M382.76,192.718a.223.223,0,1,1,.442.061c-.435,4.772-.689,9.647-1.408,14.371a.158.158,0,1,1-.313-.044C381.652,202.308,382.3,197.489,382.76,192.718Z" fill="#fff"/>
      <path id="Caminho_537" data-name="Caminho 537" d="M385.51,193.439c.1-.3.525-.1.445.212-.594,2.3-1.276,4.568-1.807,6.9s-.948,4.683-1.454,7.015a.1.1,0,1,1-.189-.026A59.412,59.412,0,0,1,385.51,193.439Z" fill="#fff"/>
      <path id="Caminho_538" data-name="Caminho 538" d="M383.966,207.084c.834-2.1,1.786-4.136,2.634-6.231s1.523-4.3,2.425-6.345c.113-.256.476-.094.4.192a50.878,50.878,0,0,1-2.295,6.2,60.333,60.333,0,0,1-2.908,6.355C384.119,207.445,383.884,207.291,383.966,207.084Z" fill="#fff"/>
      <path id="Caminho_539" data-name="Caminho 539" d="M385.511,207.929a49.437,49.437,0,0,1,3.438-6.019c1.1-1.836,2.088-3.817,3.281-5.564.133-.195.392.046.292.259-.992,2.1-2.3,4.05-3.459,6.022a36.52,36.52,0,0,1-3.465,5.379C385.553,208.058,385.483,208,385.511,207.929Z" fill="#fff"/>
      <path id="Caminho_540" data-name="Caminho 540" d="M387.963,207.46c2.156-2.993,4.551-5.732,6.7-8.733.208-.29.57.126.358.413a71.277,71.277,0,0,1-6.9,8.507C388.015,207.756,387.866,207.6,387.963,207.46Z" fill="#fff"/>
      <path id="Caminho_541" data-name="Caminho 541" d="M390.484,208.069c2.027-2.347,4.149-4.574,6.272-6.795.216-.225.54.141.323.373-2.105,2.254-4.217,4.5-6.415,6.63C390.543,208.394,390.365,208.207,390.484,208.069Z" fill="#fff"/>
      <path id="Caminho_542" data-name="Caminho 542" d="M393.878,207.878c1.519-1.663,3.186-3.107,4.678-4.815.243-.279.621.153.378.435A22,22,0,0,1,394,208.062C393.907,208.118,393.789,207.975,393.878,207.878Z" fill="#fff"/>
      <path id="Caminho_543" data-name="Caminho 543" d="M397.706,207.677a9.045,9.045,0,0,1,.976-.981c.324-.283.689-.718,1.088-.807a.221.221,0,0,1,.22.329,3.067,3.067,0,0,1-.99.913,8.592,8.592,0,0,1-1.178.774C397.714,207.962,397.63,207.768,397.706,207.677Z" fill="#fff"/>
    </g>
    <path id="Caminho_544" data-name="Caminho 544" d="M372.174,219.049l-.009,1.86a5.631,5.631,0,0,0,.244,2.047,5.5,5.5,0,0,0,1.512,1.933q.68.637,1.367,1.263" fill="none" stroke="#fff" stroke-miterlimit="10" stroke-width="0.175"/>
    <path id="Caminho_545" data-name="Caminho 545" d="M388.03,247.327l.009-1.86a5.635,5.635,0,0,0-.244-2.047,5.5,5.5,0,0,0-1.513-1.933q-.678-.638-1.367-1.263" fill="none" stroke="#fff" stroke-miterlimit="10" stroke-width="0.175"/>
    <rect id="Retângulo_27" data-name="Retângulo 27" width="27.038" height="1.861" transform="translate(366.367 250.717)" fill="#fff"/>
  </g>
</svg>
