<svg xmlns="http://www.w3.org/2000/svg" width="64.488" height="68.958" viewBox="0 0 64.488 68.958">
  <g id="icon_cart" transform="translate(-1747.995 -31.643)">
    <path id="Caminho_27" data-name="Caminho 27" d="M1806.957,74.391c-.727,6.71-1.488,13.227-2.12,19.757-.427,4.4-2.507,6.45-6.877,6.451q-17.812,0-35.624,0c-4.038,0-6.247-2.081-6.661-6.122-.681-6.641-1.416-13.276-2.122-19.852-.165-.123-.25-.242-.347-.251-4.4-.446-5.2-1.32-5.2-5.717,0-1.153-.036-2.308.017-3.458a3.853,3.853,0,0,1,3.707-3.819c.516-.042,1.037-.031,1.555-.031q26.975,0,53.95,0c4.023,0,5.24,1.228,5.243,5.269,0,1.038.009,2.075,0,3.112-.028,3.076-1.428,4.475-4.551,4.569-.276.008-.551.052-.97.093m-50.476.007c.742,6.759,1.437,13.394,2.212,20.019.3,2.541,1.3,3.306,3.917,3.316,5.937.021,11.873.055,17.809.055,5.878,0,11.757-.03,17.636-.057,2.387-.011,3.373-.84,3.719-3.152.18-1.194.293-2.4.424-3.6.6-5.484,1.2-10.968,1.811-16.581Zm23.749-2.966c9.046,0,18.092-.023,27.137.02,1.6.008,2.4-.5,2.252-2.193-.074-.858-.011-1.727-.014-2.592-.008-2.292-.136-2.42-2.475-2.42q-25.752,0-51.5.007c-5.338.006-4.718-.709-4.744,4.811-.009,2.155.21,2.364,2.384,2.365q13.482.006,26.964,0" fill="#333"/>
    <path id="Caminho_28" data-name="Caminho 28" d="M1785.852,46.435c1.732,0,3.276-.077,4.8.038.595.044,1.532.415,1.643.82a2.388,2.388,0,0,1-.55,1.945c-3.321,3.433-6.731,6.78-10.1,10.168a1.732,1.732,0,0,1-2.82,0c-3.369-3.387-6.782-6.732-10.1-10.163a2.374,2.374,0,0,1-.54-1.945c.113-.408,1.052-.784,1.643-.82,1.769-.107,3.548-.038,5.556-.038V40.828c0-2.3.054-4.607-.019-6.906-.049-1.59.5-2.347,2.189-2.274,2.067.09,4.144.08,6.212,0,1.6-.06,2.126.66,2.1,2.176-.055,3.511-.017,7.022-.017,10.534Zm-5.776,9.7c2.28-2.244,4.588-4.514,6.9-6.788-.4,0-.9,0-1.411,0-2.4-.012-2.578-.18-2.583-2.537q-.008-4.317,0-8.634V34.668h-4.68v1.986c0,3.453.012,6.907-.005,10.361-.011,2.028-.313,2.318-2.284,2.334-.884.007-1.769,0-2.825,0l6.893,6.788" fill="#333"/>
    <path id="Caminho_29" data-name="Caminho 29" d="M1767.786,86.2q0,2.589,0,5.178c0,1-.2,1.9-1.428,1.954-1.373.062-1.56-.924-1.563-1.978q-.015-5.178,0-10.356c.005-1,.273-1.914,1.5-1.885,1.179.027,1.495.87,1.489,1.909-.01,1.726,0,3.452,0,5.178" fill="#333"/>
    <path id="Caminho_30" data-name="Caminho 30" d="M1792.7,86.176c0-1.725,0-3.451,0-5.177,0-1.042.326-1.877,1.507-1.886,1.226-.01,1.478.91,1.481,1.906q.019,5.264,0,10.525c-.005.932-.255,1.767-1.407,1.791-1.206.025-1.567-.767-1.573-1.81-.011-1.783,0-3.566,0-5.349" fill="#333"/>
    <path id="Caminho_31" data-name="Caminho 31" d="M1774.72,86.283c0,1.78,0,3.56,0,5.34,0,1-.364,1.706-1.466,1.709-1.133,0-1.426-.757-1.425-1.733q0-5.34,0-10.679c0-.948.231-1.787,1.361-1.809,1.182-.022,1.542.767,1.532,1.833-.017,1.779,0,3.559-.005,5.339" fill="#333"/>
    <path id="Caminho_32" data-name="Caminho 32" d="M1785.767,86.106c0-1.721.01-3.442-.007-5.163-.01-1.065.349-1.854,1.53-1.832,1.128.02,1.364.859,1.363,1.805-.008,3.612.04,7.228-.088,10.837-.019.544-.859,1.059-1.32,1.587-.492-.519-1.356-1-1.409-1.562-.178-1.875-.067-3.78-.069-5.672" fill="#333"/>
    <path id="Caminho_33" data-name="Caminho 33" d="M1781.679,86.371c0,1.722-.01,3.445.006,5.167.008.973-.257,1.749-1.379,1.785-1.235.04-1.509-.782-1.505-1.828q.016-5.251,0-10.505c0-1.034.243-1.894,1.462-1.878s1.432.9,1.42,1.92c-.021,1.78-.006,3.559-.005,5.339" fill="#333"/>
  </g>
</svg>
