<svg xmlns="http://www.w3.org/2000/svg" width="48.22" height="54.279" viewBox="0 0 48.22 54.279">
  <g id="icon_politicas" transform="translate(-1579.13 -246.538)">
    <path id="Caminho_302" data-name="Caminho 302" d="M1603.495,281.408l16.135.321" fill="none" stroke="#fff" stroke-miterlimit="10" stroke-width="1"/>
    <path id="Caminho_303" data-name="Caminho 303" d="M1603.306,276.5l16.135.321" fill="none" stroke="#fff" stroke-miterlimit="10" stroke-width="1"/>
    <path id="Caminho_304" data-name="Caminho 304" d="M1603.306,270.841l16.135.321" fill="none" stroke="#fff" stroke-miterlimit="10" stroke-width="1"/>
    <path id="Caminho_305" data-name="Caminho 305" d="M1603.306,266.508l16.135.32" fill="none" stroke="#fff" stroke-miterlimit="10" stroke-width="1"/>
    <g id="Agrupar_101" data-name="Agrupar 101">
      <path id="Caminho_306" data-name="Caminho 306" d="M1602.022,262.714a2.683,2.683,0,0,0-.456-.97,3.169,3.169,0,0,1-.581-1.365,3.223,3.223,0,0,1,.192-1.278c.032-.111.065-.223.093-.334a1.226,1.226,0,0,0-.109-1.068,1.493,1.493,0,0,0-.446-.271,1.762,1.762,0,0,1-1.168-1.785,1.7,1.7,0,0,0-.272-.906,1.726,1.726,0,0,0-1.164-.332,2.29,2.29,0,0,1-1.7-.6,2.265,2.265,0,0,1-.362-.647,2.735,2.735,0,0,0-.138-.3,1.273,1.273,0,0,0-1.533-.519,3.041,3.041,0,0,0-.533.33,2.315,2.315,0,0,1-1.177.529,2.417,2.417,0,0,1-1.512-.588c-.39-.267-.726-.5-1.051-.427-.406.088-.574.452-.814,1.037a2.284,2.284,0,0,1-1.193,1.475,2.482,2.482,0,0,1-1.093.082,1.454,1.454,0,0,0-.815.069c-.1.057-.4.23-.338,1.05a2.308,2.308,0,0,1-.191,1.412,1.641,1.641,0,0,1-.533.529c-.118.078-.244.147-.369.216l-.193.108a1.554,1.554,0,0,0-.614.567c-.177.332-.075.49.245.9.09.115.182.232.265.358a1.849,1.849,0,0,1,.274,1.317,3.213,3.213,0,0,1-.571,1.215c-.062.094-.125.188-.183.284a1.215,1.215,0,0,0-.224.952.861.861,0,0,0,.531.492l.18.076c.775.324,1.577.66,1.765,1.84.033.209.049.42.064.632a4.447,4.447,0,0,0,.1.774c.149.592.369.638.464.658a1.86,1.86,0,0,0,.691-.06,4.75,4.75,0,0,1,.975-.141,1.593,1.593,0,0,1,.759.176,2.037,2.037,0,0,1,.85,1.142c.146.346.271.645.5.752.366.171.883-.22,1.158-.469a2.349,2.349,0,0,1,1.844-.87,2.533,2.533,0,0,1,1.242.717c.425.37.648.534.874.445.2-.081.283-.333.4-.737a2.651,2.651,0,0,1,.428-.964,2.079,2.079,0,0,1,1.632-.639l.249-.013c.144-.007.288-.014.431-.024a1.387,1.387,0,0,0,.929-.308,1.676,1.676,0,0,0,.308-1.135v-.221a4.363,4.363,0,0,1,.083-1.026,1.7,1.7,0,0,1,1.3-1.275l.161-.062A.741.741,0,0,0,1602.022,262.714Zm-4.563-3.792c-1.614,2.266-3.3,4.481-4.949,6.721a.475.475,0,0,1-.637.167c-.971-.677-1.93-1.369-2.9-2.046-.488-.341-.022-1.147.47-.8.859.6,1.709,1.207,2.566,1.809,1.554-2.1,3.131-4.188,4.648-6.318C1597,257.967,1597.807,258.432,1597.459,258.922Z" fill="#fff"/>
      <path id="Caminho_307" data-name="Caminho 307" d="M1598.288,268.35l-.048,0c0,4.034-.05,7.981-.212,12.1-1.7-.951-3.007-1.774-4.734-2.671-.028-.014-.178-.205-.2-.2.015-.157-.129-.23-.283-.121-.878.618-1.769,1.123-2.671,1.7-.836.534-1.578.96-2.428,1.457-.256-3.971-.169-7.793-.082-11.684a2.474,2.474,0,0,1-.841.052c.018,4.022.121,8.043.381,12.056a.219.219,0,0,0,.345.183c1.946-.512,3.782-1.983,5.429-3.2a.156.156,0,0,0,.066.1,47.426,47.426,0,0,0,5.262,3.051.2.2,0,0,0,.284-.166.217.217,0,0,0,.12-.2c.182-4.161.244-8.328.252-12.494l-.37.018Z" fill="#fff"/>
      <path id="Caminho_308" data-name="Caminho 308" d="M1596.655,258.451c-1.517,2.13-3.094,4.215-4.648,6.318-.857-.6-1.707-1.211-2.566-1.809-.492-.343-.958.463-.47.8.972.677,1.931,1.369,2.9,2.046a.475.475,0,0,0,.637-.167c1.651-2.24,3.335-4.455,4.949-6.721C1597.807,258.432,1597,257.967,1596.655,258.451Z" fill="#c4d52c"/>
    </g>
    <rect id="Ret창ngulo_20" data-name="Ret창ngulo 20" width="43.182" height="48.715" rx="3.384" transform="translate(1581.649 249.32)" fill="none" stroke="#fff" stroke-miterlimit="10" stroke-width="0.849"/>
    <path id="Caminho_309" data-name="Caminho 309" d="M1604.358,291.847c-.674-1.283.475-2.919,2.158-3.375a5.059,5.059,0,0,1,4.683,1.224,9.985,9.985,0,0,0,1.814,1.862,6.279,6.279,0,0,0,1.671.6,5.089,5.089,0,0,0,2.512.2,3.556,3.556,0,0,0,2.234-2.7" fill="none" stroke="#f5f8f3" stroke-miterlimit="10" stroke-width="1"/>
    <rect id="Ret창ngulo_21" data-name="Ret창ngulo 21" width="47.29" height="53.349" rx="3.706" transform="translate(1579.595 247.003)" fill="none" stroke="#fff" stroke-miterlimit="10" stroke-width="0.93"/>
  </g>
</svg>
