<svg xmlns="http://www.w3.org/2000/svg" xmlns:xlink="http://www.w3.org/1999/xlink" width="24.229" height="75.709" viewBox="0 0 24.229 75.709">
  <defs>
    <clipPath id="clip-path">
      <path id="Caminho_523" data-name="Caminho 523" d="M1335.611,200.78a4.387,4.387,0,0,0,3.41,2.1,4.49,4.49,0,0,0,3.312-1.955l1.994.184v5.923a74.8,74.8,0,0,0-10.612,0l-.026-5.923Z" fill="none" stroke="#285011" stroke-width="1"/>
    </clipPath>
  </defs>
  <g id="icon_cepera_ativo" transform="translate(-1326.967 -186.574)">
    <g id="Agrupar_141" data-name="Agrupar 141">
      <path id="Caminho_518" data-name="Caminho 518" d="M1333.715,198.824l.089,8.678h10.554v-8.678A17.422,17.422,0,0,0,1333.715,198.824Z" fill="#fff"/>
      <path id="Caminho_519" data-name="Caminho 519" d="M1339.008,261.781h.267l7.286-.066c5,.066,4.042-3.815,4.042-3.815-.319-1.543-1.437-8.306-1.437-8.306-.563-2.534.451-10.248.827-12.525.5-3.045,1.064-6.039.394-9.113a8.811,8.811,0,0,0-1.38-3.382,7.846,7.846,0,0,0-1.175-1.3,8.39,8.39,0,0,1-2.128-2.335,9.336,9.336,0,0,1-.96-2.921,49.54,49.54,0,0,1-.7-6.231,21.972,21.972,0,0,0-.259-2.588c1.4-.01,1.183-.625,1.183-.625.037-.5-1.268-.422-1.268-.422v-.56l.657-.092v-.349l.09-.119v-8.21c-.179-.6-4.488-.742-5.306-.717h-.121c-.818-.025-5.128.119-5.306.717v8.21l.089.119v.349l.657.092v.56s-1.305-.074-1.267.422c0,0-.216.615,1.183.625a21.757,21.757,0,0,0-.26,2.588,49.34,49.34,0,0,1-.7,6.231,9.307,9.307,0,0,1-.961,2.921,8.4,8.4,0,0,1-2.127,2.335,7.841,7.841,0,0,0-1.175,1.3,8.813,8.813,0,0,0-1.38,3.382c-.67,3.074-.108,6.068.394,9.113.375,2.277,1.39,9.991.826,12.525,0,0-1.118,6.763-1.437,8.306,0,0-.957,3.881,4.043,3.815l7.285.066h.121Z" fill="none" stroke="#fff" stroke-linecap="round" stroke-linejoin="round" stroke-width="1"/>
      <path id="Caminho_520" data-name="Caminho 520" d="M1329.679,230.322a13.573,13.573,0,0,1,18.513,0" fill="none" stroke="#fff" stroke-linecap="round" stroke-linejoin="round" stroke-width="0.747"/>
      <path id="Caminho_521" data-name="Caminho 521" d="M1347.475,253.829c-.2.178-2.761,3.036-8.419,3.036,0,0-5.471,0-8.489-3.22" fill="none" stroke="#fff" stroke-linecap="round" stroke-linejoin="round" stroke-width="0.627"/>
      <path id="Caminho_522" data-name="Caminho 522" d="M1333.715,200.927a45.164,45.164,0,0,1,10.612,0" fill="none" stroke="#285011" stroke-miterlimit="10" stroke-width="0.747"/>
      <g id="Agrupar_140" data-name="Agrupar 140">
        <g id="Agrupar_139" data-name="Agrupar 139" clip-path="url(#clip-path)">
          <g id="Agrupar_138" data-name="Agrupar 138">
            <line id="Linha_3" data-name="Linha 3" y2="6.04" transform="translate(1334.108 200.874)" fill="none" stroke="#285011" stroke-miterlimit="10" stroke-width="0.373"/>
            <line id="Linha_4" data-name="Linha 4" y2="6.04" transform="translate(1335.006 200.874)" fill="none" stroke="#285011" stroke-miterlimit="10" stroke-width="0.373"/>
            <line id="Linha_5" data-name="Linha 5" y2="6.04" transform="translate(1335.904 200.874)" fill="none" stroke="#285011" stroke-miterlimit="10" stroke-width="0.373"/>
            <line id="Linha_6" data-name="Linha 6" y2="6.04" transform="translate(1336.802 200.874)" fill="none" stroke="#285011" stroke-miterlimit="10" stroke-width="0.373"/>
            <line id="Linha_7" data-name="Linha 7" y2="6.04" transform="translate(1337.7 200.874)" fill="none" stroke="#285011" stroke-miterlimit="10" stroke-width="0.373"/>
            <line id="Linha_8" data-name="Linha 8" y2="6.04" transform="translate(1338.598 200.874)" fill="none" stroke="#285011" stroke-miterlimit="10" stroke-width="0.373"/>
            <line id="Linha_9" data-name="Linha 9" y2="6.04" transform="translate(1339.496 200.874)" fill="none" stroke="#285011" stroke-miterlimit="10" stroke-width="0.373"/>
            <line id="Linha_10" data-name="Linha 10" y2="6.04" transform="translate(1340.394 200.874)" fill="none" stroke="#285011" stroke-miterlimit="10" stroke-width="0.373"/>
            <line id="Linha_11" data-name="Linha 11" y2="6.04" transform="translate(1341.292 200.874)" fill="none" stroke="#285011" stroke-miterlimit="10" stroke-width="0.373"/>
            <line id="Linha_12" data-name="Linha 12" y2="6.04" transform="translate(1342.19 200.874)" fill="none" stroke="#285011" stroke-miterlimit="10" stroke-width="0.373"/>
            <line id="Linha_13" data-name="Linha 13" y2="6.04" transform="translate(1343.088 200.874)" fill="none" stroke="#285011" stroke-miterlimit="10" stroke-width="0.373"/>
            <line id="Linha_14" data-name="Linha 14" y2="6.04" transform="translate(1343.986 200.874)" fill="none" stroke="#285011" stroke-miterlimit="10" stroke-width="0.373"/>
          </g>
        </g>
      </g>
      <path id="Caminho_524" data-name="Caminho 524" d="M1347.441,233.874a9.841,9.841,0,0,0-8.6-4.429,10.183,10.183,0,0,0-8.406,4.429c-.245.372.5,4.985,1.095,8.6a37.664,37.664,0,0,1,.178,8.073c2.047,3.519,6.442,3.523,7.232,3.494.79.029,5.186.025,7.233-3.494a37.673,37.673,0,0,1,.178-8.073C1346.939,238.859,1347.653,234.177,1347.441,233.874Z" fill="#fff" stroke="#fff" stroke-linecap="round" stroke-linejoin="round" stroke-width="0.261"/>
    </g>
    <path id="Caminho_525" data-name="Caminho 525" d="M1344.8,190.75a31.53,31.53,0,0,0-2.911,1.845c-.936-1.923-1.877-3.845-2.8-5.771-.149-.312-.922-.353-1.039,0-.693,2.09-1.458,4.17-2.277,6.241-1.068-.535-2.166-1.032-3.329-1.489-.45-.176-.952.114-.847.422.436,1.283.893,2.564,1.4,3.837-.254.162-.165.489.3.5,3.465.106,6.966.036,10.43-.066a.571.571,0,0,0,.523-.251.479.479,0,0,0,.291-.23,11.761,11.761,0,0,0,1.218-4.785C1345.764,190.673,1345.144,190.555,1344.8,190.75Zm-.921,4.979c-3.318,0-6.956-.034-10.265.155-.271-1.151-1.072-2.6-1.391-3.749.989.446,2.477.964,3.406,1.49.327.185.714.2.833-.125.764-2.057,1.491-4.258,2.136-6.333.861,1.913,2.05,4.21,2.906,6.125.119.266.52.2.813-.032.822-.664,2.055-1.376,2.968-1.968A18.461,18.461,0,0,1,1343.875,195.729Z" fill="#fff"/>
  </g>
</svg>
