<svg xmlns="http://www.w3.org/2000/svg" width="614.7" height="696.22" viewBox="0 0 614.7 696.22">
  <g id="cepera_1971_folhas" transform="translate(-163.522 -1271.512)">
    <path id="Caminho_395" data-name="Caminho 395" d="M355.446,1673.767s94,18.58,67.942,49.569c-9.817,11.673-29.615,6.259-37.848-15.541C380.95,1695.642,377.545,1686.232,355.446,1673.767Z" fill="#d30a2a"/>
    <path id="Caminho_396" data-name="Caminho 396" d="M525.519,1370.61c-3.148-4.079-8.874-6.9-15.71-7.75a32.092,32.092,0,0,0-15.062,1.458,22.5,22.5,0,0,0-6.786,3.917c-4.46,3.786-6.96,9.249-7.226,15.8-.318,7.857,3.753,17.662,24.959,19.755,7.64.754,14.009-.9,19.467-5.077,4.319-3.3,3.879-6.64,3.37-10.511a23.244,23.244,0,0,1-.233-6.25A14.7,14.7,0,0,0,525.519,1370.61Zm-10.907,16.959a23.46,23.46,0,0,1-11.517,1.567,11.493,11.493,0,0,1-3.536-1.026c-.942-.444-3-.985-3.446-2.016-.472-1.1,2.73-.613,3.3-.509a37.193,37.193,0,0,0,13.081-.226c1.282-.193,3.285-.842,4.548-.247C518.678,1385.881,515.129,1387.361,514.612,1387.569Zm-.7-7.6c-3.533,2.342-7.967,3.3-12.141,3.641-.614.051-6.187.525-5.706-.57.424-.962,2.278-1.329,3.226-1.619,2.345-.714,4.751-1.178,7.1-1.858,1.022-.3,9.726-3.912,10.377-3.406C518.032,1377.139,514.336,1379.686,513.912,1379.967Z" fill="#d30a2a"/>
    <path id="Caminho_397" data-name="Caminho 397" d="M732.011,1924.572c-2.808-7.277-9.9-13.844-19.451-18.019a48.576,48.576,0,0,0-22.481-4.379,34.094,34.094,0,0,0-11.535,2.757c-8.1,3.569-14.086,10.418-17.3,19.808-3.849,11.263-2.17,27.244,27.693,39.424,10.759,4.389,20.715,4.729,30.433,1.029,7.689-2.923,8.492-7.961,9.422-13.8a35.162,35.162,0,0,1,2.358-9.169C733.891,1936.132,734.18,1930.192,732.011,1924.572Zm-23.137,19.9a35.5,35.5,0,0,1-17.385-2.691,17.428,17.428,0,0,1-4.688-3.013c-1.175-1.05-3.929-2.724-4.13-4.412-.212-1.795,4.225.288,5.01.687a56.332,56.332,0,0,0,19.076,5.312c1.944.273,5.13.194,6.7,1.6C715.5,1943.778,709.714,1944.394,708.874,1944.472Zm2.263-11.33c-6.136,1.874-12.982,1.351-19.185.047-.913-.19-9.2-1.906-8.033-3.287,1.03-1.213,3.878-.946,5.378-.958,3.71-.024,7.4.339,11.1.365,1.61.01,15.8-1.482,16.524-.467C718.334,1930.815,711.874,1932.917,711.137,1933.142Z" fill="#d30a2a"/>
    <path id="Caminho_398" data-name="Caminho 398" d="M261.7,1272.408a138.872,138.872,0,0,1-16.169,9.749,23.3,23.3,0,0,0-17.435-10.485c-8.926-.8-19.247,1.536-27.846,3.673a60.456,60.456,0,0,0-13.051,4.743c-6.44,3.3-11.725,8.9-19.514,8.269a1.693,1.693,0,0,0-1.9,1.772,3.478,3.478,0,0,0-1.886,1.065,1.315,1.315,0,0,0-.2,1.568c9.251,15.318,24.23,31.161,42.9,33.46,15.72,1.935,35.112-7.9,41.14-23.049a22.528,22.528,0,0,0,.035-16.686,145.926,145.926,0,0,0,16.509-10.01C263.429,1275.114,262.554,1273.768,261.7,1272.408Zm-78.083,14.481c1.092-.685,2.192-1.313,3.3-1.915.522,2.111,3.295,4.092,4.761,5.307,1.789,1.483,4.594,4.158,7.055,3.7a.535.535,0,0,0,.32-.776c-.5-1.148-1.543-1.565-2.541-2.266a39.339,39.339,0,0,1-3.683-2.9c-1.212-1.091-2.457-3.125-3.959-4.085a64.291,64.291,0,0,1,13.33-4.844c4.9,4.762,11.075,8.825,16.7,12.676a106.617,106.617,0,0,1-45.311-.006C177.1,1290.87,180.249,1289,183.614,1286.889Zm-9.437,14.085c-.322-.368-3.461-4.222-5.268-6.917a78.964,78.964,0,0,0,14.512,4.1c-.835.661-1.657,1.338-2.478,2a23.272,23.272,0,0,0-4.2,3.649C175.881,1302.871,175.016,1301.934,174.177,1300.974Zm7.132,7.505c-.843-.8-1.647-1.638-2.459-2.47a25.492,25.492,0,0,0,4.21-3.748c1.245-1.171,2.506-2.332,3.67-3.58a85.424,85.424,0,0,0,17.748.58c-2.036,1.786-4,3.65-5.919,5.6-3.039,3.076-7.061,6.4-8.791,10.4A62.971,62.971,0,0,1,181.309,1308.479Zm20.625,12.51a41.5,41.5,0,0,1-9.829-4.27c3.232-2.251,5.7-5.967,8.254-8.9s5.158-5.847,7.626-8.865a103.524,103.524,0,0,0,20.339-4.378c-2.941,4.648-5.886,9.288-8.934,13.871-2.91,4.375-6.947,8.778-9.195,13.619A30.83,30.83,0,0,1,201.934,1320.989Zm42.865-23.133c-2.517,13.262-16.251,22.136-29.739,23.891,2.649-3.256,4.749-7.163,6.906-10.583,3.644-5.775,7.047-11.745,10.109-17.852a124.884,124.884,0,0,0,11.963-4.973A18.073,18.073,0,0,1,244.8,1297.856Zm-6.424-12.33a107.979,107.979,0,0,1-17.767,5.85.924.924,0,0,0-.221-1.106c-4.566-4.039-9.4-8.484-14.528-11.979.239-.047.474-.1.714-.146,7.359-1.4,15.873-3.427,23.341-1.953a18.96,18.96,0,0,1,11.891,7.786C240.672,1284.507,239.533,1285.029,238.375,1285.526Z" fill="#d30a2a"/>
    <path id="Caminho_399" data-name="Caminho 399" d="M775.376,1540.376a101.613,101.613,0,0,1-8.369,10.961,17.024,17.024,0,0,0-14.658-2.446c-6.278,1.855-12.664,6.208-17.933,9.966a44.2,44.2,0,0,0-7.594,6.724c-3.489,3.973-5.577,9.195-11.039,10.853a1.237,1.237,0,0,0-.816,1.715,2.538,2.538,0,0,0-1,1.229.962.962,0,0,0,.285,1.119c10.4,7.925,24.822,14.669,38.123,11.222,11.2-2.9,21.734-14.789,21.766-26.7a16.455,16.455,0,0,0-4.453-11.346,106.349,106.349,0,0,0,8.53-11.23C777.278,1541.749,776.323,1541.07,775.376,1540.376Zm-49.163,30.787c.558-.758,1.137-1.48,1.726-2.185.921,1.294,3.336,1.9,4.659,2.328,1.613.527,4.236,1.592,5.784.618a.391.391,0,0,0,.009-.614,4.326,4.326,0,0,0-2.334-.857,28.766,28.766,0,0,1-3.28-.984c-1.116-.416-2.508-1.464-3.786-1.713a46.973,46.973,0,0,1,7.756-6.867c4.6,1.922,9.892,3.024,14.745,4.133a77.894,77.894,0,0,1-30.785,12.152A26.5,26.5,0,0,0,726.213,1571.163Zm-2.632,12.1c-.318-.164-3.484-1.94-5.435-3.287a57.592,57.592,0,0,0,10.96-1.105c-.39.673-.767,1.354-1.147,2.023a16.954,16.954,0,0,0-1.872,3.6C725.248,1584.095,724.408,1583.691,723.581,1583.264Zm6.859,3.185c-.787-.317-1.559-.671-2.334-1.018a18.568,18.568,0,0,0,1.855-3.676c.532-1.13,1.077-2.257,1.532-3.417a62.354,62.354,0,0,0,12.214-4.367c-.9,1.759-1.735,3.551-2.52,5.39-1.239,2.905-3.079,6.244-3.182,9.425A45.977,45.977,0,0,1,730.44,1586.449Zm17.368,2.966a30.343,30.343,0,0,1-7.823-.264c1.592-2.4,2.27-5.582,3.219-8.263s1.935-5.356,2.8-8.069a75.6,75.6,0,0,0,12.643-8.431c-.75,3.947-1.506,7.889-2.347,11.82-.8,3.753-2.365,7.828-2.593,11.72A22.555,22.555,0,0,1,747.808,1589.415Zm22.915-27.217c1.849,9.686-5.1,19.4-13.794,24.21a77.824,77.824,0,0,0,1.853-9.043c.925-4.9,1.636-9.87,2.078-14.84a91.094,91.094,0,0,0,6.793-6.588A13.2,13.2,0,0,1,770.723,1562.2Zm-7.672-6.653a78.835,78.835,0,0,1-10.5,8.741.676.676,0,0,0-.447-.692,111.172,111.172,0,0,0-13.084-4.241c.15-.1.3-.2.446-.29,4.624-2.926,9.864-6.587,15.333-7.589a13.851,13.851,0,0,1,10.168,2.1C764.338,1554.236,763.705,1554.9,763.051,1555.545Z" fill="#d30a2a"/>
  </g>
</svg>
