<svg xmlns="http://www.w3.org/2000/svg" width="438.255" height="626.104" viewBox="0 0 438.255 626.104">
  <g id="_1947_folhas" data-name="1947_folhas" transform="translate(-258.34 -430.267)">
    <path id="Caminho_392" data-name="Caminho 392" d="M693.989,670.838c-2.466-3.2-6.953-5.41-12.309-6.073a25.138,25.138,0,0,0-11.8,1.143,17.657,17.657,0,0,0-5.317,3.069,16.592,16.592,0,0,0-5.662,12.38c-.249,6.157,2.941,13.839,19.556,15.479,5.986.591,10.977-.708,15.254-3.977,3.384-2.585,3.039-5.2,2.64-8.236a18.19,18.19,0,0,1-.182-4.9A11.515,11.515,0,0,0,693.989,670.838Zm-8.546,13.287a18.372,18.372,0,0,1-9.024,1.229,9.027,9.027,0,0,1-2.77-.8c-.739-.348-2.352-.772-2.7-1.58-.369-.86,2.14-.48,2.588-.4a29.149,29.149,0,0,0,10.249-.178c1.005-.151,2.574-.66,3.564-.193C688.629,682.8,685.848,683.963,685.443,684.125Zm-.548-5.956a20.3,20.3,0,0,1-9.513,2.853c-.481.04-4.848.411-4.471-.446.332-.754,1.785-1.042,2.527-1.269,1.838-.559,3.723-.923,5.562-1.456.8-.232,7.62-3.065,8.131-2.668C688.123,675.953,685.227,677.949,684.9,678.169Z" fill="#e8c82a"/>
    <path id="Caminho_393" data-name="Caminho 393" d="M258.539,452.564a114.055,114.055,0,0,1,15.5-.423,19.138,19.138,0,0,0,8.215,14.547c6.057,4.181,14.375,6.691,21.383,8.644a49.658,49.658,0,0,0,11.245,1.892c5.939.245,11.981-1.617,17.29,1.988a1.389,1.389,0,0,0,2.076-.5,2.849,2.849,0,0,0,1.778,0,1.077,1.077,0,0,0,.777-1.039c-.411-14.689-4.7-32.071-17.114-41.269-10.449-7.744-28.287-8.561-38.723-.178a18.5,18.5,0,0,0-6.777,11.909,119.666,119.666,0,0,0-15.847.472C258.4,449.93,258.477,451.245,258.539,452.564Zm61.653,21.25c-1.057.047-2.1.051-3.131.034.482-1.72-.7-4.257-1.254-5.719-.678-1.783-1.6-4.829-3.546-5.495-.294-.1-.515.169-.543.425-.109,1.021.47,1.742.9,2.647a32.058,32.058,0,0,1,1.457,3.564c.425,1.27.492,3.227,1.176,4.521a52.811,52.811,0,0,1-11.484-1.933c-1.572-5.385-4.343-10.787-6.8-15.814a87.542,87.542,0,0,1,32.373,18.34A29.751,29.751,0,0,0,320.192,473.814Zm12.443-6.246c.081.393.764,4.418.964,7.075a64.8,64.8,0,0,0-8.708-8.8c.864-.135,1.726-.286,2.579-.426a19.117,19.117,0,0,0,4.475-.909C332.184,465.523,332.424,466.543,332.635,467.568Zm-2.06-8.248c.279.912.515,1.837.758,2.76a20.918,20.918,0,0,0-4.525.974c-1.364.333-2.734.652-4.071,1.074a70.124,70.124,0,0,0-12.447-7.6c2.177-.452,4.332-.99,6.494-1.6,3.417-.968,7.636-1.718,10.491-3.875A51.6,51.6,0,0,1,330.575,459.32ZM320.9,442.035a34.092,34.092,0,0,1,5.3,7.028c-3.221.3-6.486,1.958-9.5,3.021s-6.051,2.091-9.036,3.25a85.017,85.017,0,0,0-16.3-5.1c3.982-2.131,7.963-4.255,12-6.3,3.85-1.948,8.516-3.461,12.081-6.011A25.281,25.281,0,0,1,320.9,442.035Zm-39.989-.816c7.165-8.458,20.569-9.241,30.917-5.037a87.179,87.179,0,0,0-9.217,4.767c-4.941,2.652-9.788,5.541-14.447,8.665a102.516,102.516,0,0,0-10.561-1.287A14.847,14.847,0,0,1,280.911,441.219Zm-.4,11.409a88.687,88.687,0,0,1,15.062,3.01.761.761,0,0,0-.29.88,124.945,124.945,0,0,0,5.534,14.438c-.19-.063-.379-.12-.569-.185-5.825-1.977-12.729-3.974-17.468-8.05a15.567,15.567,0,0,1-5.347-10.374C278.458,452.427,279.483,452.514,280.512,452.628Z" fill="#e8c82a"/>
    <path id="Caminho_394" data-name="Caminho 394" d="M504.782,1053.678a116.07,116.07,0,0,1-10.28-11.945,19.455,19.455,0,0,0,6.195-15.812c-.591-7.457-3.951-15.625-6.91-22.4a50.407,50.407,0,0,0-5.725-10.078c-3.618-4.839-8.964-8.407-9.528-14.905a1.414,1.414,0,0,0-1.725-1.318,2.9,2.9,0,0,0-1.139-1.4,1.1,1.1,0,0,0-1.318.054c-11.315,9.751-22.262,24.29-21.548,39.976.6,13.207,11.405,27.792,24.711,30.639a18.807,18.807,0,0,0,13.737-2.3,121.665,121.665,0,0,0,10.542,12.188C502.8,1055.481,503.782,1054.573,504.782,1053.678Zm-22.817-62.237c.716.8,1.387,1.621,2.036,2.446-1.664.724-2.907,3.282-3.7,4.659-.971,1.679-2.781,4.36-2.057,6.322a.447.447,0,0,0,.683.155c.876-.57,1.072-1.489,1.51-2.408a32.729,32.729,0,0,1,1.875-3.436c.728-1.149,2.228-2.458,2.809-3.828a53.669,53.669,0,0,1,5.846,10.293c-3.235,4.7-5.716,10.346-8.1,15.511a89,89,0,0,1-6.319-37.289A30.252,30.252,0,0,0,481.965,991.441Zm-12.908-5.8c.258-.316,2.991-3.438,4.957-5.3a65.97,65.97,0,0,0-1.351,12.515c-.66-.595-1.333-1.177-1.991-1.76a19.42,19.42,0,0,0-3.589-2.944C467.734,987.308,468.384,986.465,469.057,985.641Zm-5.181,6.917c.54-.8,1.118-1.585,1.689-2.369a21.256,21.256,0,0,0,3.672,2.942c1.138.861,2.27,1.737,3.459,2.52a71.362,71.362,0,0,0,2,14.687c-1.754-1.426-3.561-2.779-5.432-4.09-2.956-2.072-6.255-4.917-9.787-5.783A52.545,52.545,0,0,1,463.876,992.558Zm-7.416,18.719a34.636,34.636,0,0,1,2.142-8.684c2.3,2.345,5.706,3.855,8.479,5.55s5.531,3.428,8.36,5.038a86.324,86.324,0,0,0,6.442,16.126c-4.236-1.771-8.465-3.547-12.662-5.416-4.007-1.784-8.194-4.491-12.492-5.665A25.7,25.7,0,0,1,456.46,1011.277Zm25.021,32.047c-11.266-.22-20.485-10.284-23.812-21.139a88.529,88.529,0,0,0,9.673,4.206c5.261,2.192,10.649,4.16,16.1,5.827a103.881,103.881,0,0,0,5.763,9.151A15.093,15.093,0,0,1,481.481,1043.324Zm9.25-7.008a90.073,90.073,0,0,1-7.294-13.805.771.771,0,0,0,.879-.336,126.854,126.854,0,0,0,7.83-13.628c.072.19.149.376.22.567,2.18,5.861,5.036,12.585,4.865,18.936a15.826,15.826,0,0,1-4.747,10.873C491.89,1038.064,491.3,1037.2,490.731,1036.316Z" fill="#e8c82a"/>
  </g>
</svg>
