<svg xmlns="http://www.w3.org/2000/svg" width="480.181" height="416.552" viewBox="0 0 480.181 416.552">
  <g id="cepera_1980_folhas" transform="translate(-258.964 -3083.575)">
    <g id="Agrupar_117" data-name="Agrupar 117">
      <path id="Caminho_416" data-name="Caminho 416" d="M714.749,3414.1c4.506.484,9.785-1.433,14.482-5.26a28.213,28.213,0,0,0,8.24-10.451,19.77,19.77,0,0,0,1.642-6.693c.311-5.137-1.637-10.049-5.635-14.205-4.8-4.983-13.5-8.365-27.734,3.827-5.129,4.392-7.952,9.446-8.624,15.451-.534,4.75,1.856,6.5,4.624,8.537a20.437,20.437,0,0,1,4.111,3.656A12.928,12.928,0,0,0,714.749,3414.1Zm-4.131-17.247a20.635,20.635,0,0,1,6.013-8.267,10.108,10.108,0,0,1,2.8-1.621c.855-.328,2.452-1.306,3.377-.961.984.368-1.272,2.107-1.686,2.406a32.754,32.754,0,0,0-7.818,8.444c-.657.932-1.464,2.6-2.61,3.039C709.215,3400.464,710.435,3397.309,710.618,3396.854Zm5.253,4.182a22.768,22.768,0,0,1,5.077-9.925c.341-.422,3.432-4.249,3.834-3.277.353.855-.542,2.256-.935,3.034-.974,1.923-2.143,3.734-3.14,5.638-.433.829-3.434,8.557-4.153,8.662C715.159,3405.374,715.791,3401.477,715.871,3401.036Z" fill="#ffe83f"/>
      <path id="Caminho_417" data-name="Caminho 417" d="M648.478,3345.986c-3.853,3.107-6.449,8.663-7.122,15.246a30.826,30.826,0,0,0,1.708,14.435,21.607,21.607,0,0,0,3.9,6.437c3.726,4.206,9.024,6.5,15.321,6.617,7.552.145,16.885-3.965,18.462-24.373.569-7.352-1.154-13.435-5.272-18.592-3.256-4.08-6.456-3.589-10.164-3.021a22.346,22.346,0,0,1-6,.351A14.119,14.119,0,0,0,648.478,3345.986Zm16.509,10.129a22.523,22.523,0,0,1,1.741,11.028,11.078,11.078,0,0,1-.913,3.417c-.407.914-.886,2.9-1.867,3.35-1.043.476-.644-2.609-.555-3.16a35.762,35.762,0,0,0-.484-12.558c-.212-1.228-.876-3.138-.331-4.363C663.284,3352.244,664.777,3355.623,664.987,3356.115Zm-7.286.827c2.321,3.345,3.331,7.584,3.745,11.586.062.588.63,5.931-.431,5.491-.932-.388-1.323-2.161-1.621-3.065-.733-2.238-1.228-4.539-1.929-6.779-.306-.975-3.956-9.26-3.483-9.9C654.9,3353.043,657.422,3356.54,657.7,3356.942Z" fill="#ffe83f"/>
    </g>
    <g id="Agrupar_119" data-name="Agrupar 119">
      <path id="Caminho_418" data-name="Caminho 418" d="M337.954,3441.61l2.61-4.872-30.435-13.171-1.3,2.435-1.3,2.436,27.825,18.042-3.7,6.9c-2.275,4.245.567,6.819,2.5,7.853l4.514,2.418.04-.076a5.24,5.24,0,0,0,2.473,6.327l20.88,11.186,18.212,9.758,16.161,8.657a5.251,5.251,0,0,0,7.111-2.149l17.156-32.026a5.252,5.252,0,0,0-2.15-7.111l-16.16-8.658-18.213-9.755-20.879-11.186a5.241,5.241,0,0,0-6.638,1.446l.04-.074-4.513-2.418c-1.927-1.036-5.645-1.973-7.92,2.27Zm9.513,5.419.132-.25.135-.249Z" fill="#ffe83f"/>
      <g id="Agrupar_118" data-name="Agrupar 118">
        <path id="Caminho_419" data-name="Caminho 419" d="M306.026,3424.238c-4.9-2.623-1.258-9.413-6.154-12.036s-8.534,4.166-13.429,1.543-1.264-9.415-6.164-12.04-8.541,4.162-13.445,1.535-1.266-9.416-6.171-12.044" fill="none" stroke="#ffe83f" stroke-linecap="round" stroke-linejoin="round" stroke-width="3.399"/>
      </g>
    </g>
    <path id="Caminho_420" data-name="Caminho 420" d="M442.829,3149.4s24.589-92.873,57.889-57.984c12.544,13.143,5.7,32.323-18.847,35.354C468.187,3128.458,457.6,3129.612,442.829,3149.4Z" fill="#ffe83f"/>
  </g>
</svg>
