<svg xmlns="http://www.w3.org/2000/svg" width="619.488" height="619.722" viewBox="0 0 619.488 619.722">
  <g id="cepera_2019_folhas" transform="translate(-217.221 -6597.801)">
    <g id="Agrupar_123" data-name="Agrupar 123">
      <path id="Caminho_441" data-name="Caminho 441" d="M513.736,7125.562c.552-5.139-1.635-11.16-6-16.517a32.182,32.182,0,0,0-11.92-9.4,22.559,22.559,0,0,0-7.634-1.873c-5.858-.355-11.46,1.867-16.2,6.427-5.684,5.47-9.541,15.4,4.364,31.632,5.01,5.849,10.774,9.068,17.623,9.835,5.417.609,7.418-2.117,9.736-5.274a23.314,23.314,0,0,1,4.17-4.688A14.742,14.742,0,0,0,513.736,7125.562Zm-19.67,4.711a23.523,23.523,0,0,1-9.429-6.858,11.538,11.538,0,0,1-1.849-3.2c-.374-.975-1.49-2.8-1.1-3.852.419-1.123,2.4,1.451,2.744,1.923a37.336,37.336,0,0,0,9.631,8.916c1.063.75,2.964,1.67,3.465,2.977C498.182,7131.874,494.585,7130.482,494.066,7130.273Zm4.769-5.991c-4.184-.756-8.06-3.14-11.32-5.79-.48-.389-4.846-3.914-3.737-4.373.975-.4,2.572.619,3.46,1.067,2.194,1.11,4.259,2.444,6.431,3.581.945.494,9.759,3.917,9.879,4.736C503.783,7125.094,499.338,7124.373,498.835,7124.282Z" fill="#bfd429"/>
      <path id="Caminho_442" data-name="Caminho 442" d="M436.049,7201.145c3.543,4.4,9.881,7.356,17.388,8.123a35.133,35.133,0,0,0,16.464-1.948,24.657,24.657,0,0,0,7.341-4.448c4.8-4.25,7.409-10.293,7.547-17.475.166-8.613-4.522-19.258-27.8-21.057-8.386-.648-15.324,1.317-21.205,6.014-4.654,3.714-4.094,7.363-3.446,11.592a25.476,25.476,0,0,1,.4,6.84A16.1,16.1,0,0,0,436.049,7201.145Zm11.552-18.828a25.7,25.7,0,0,1,12.578-1.986,12.616,12.616,0,0,1,3.9,1.042c1.042.464,3.31,1.009,3.822,2.128.542,1.191-2.977.735-3.605.634a40.777,40.777,0,0,0-14.323.552c-1.4.241-3.579,1-4.975.377C443.186,7184.259,447.04,7182.556,447.6,7182.317Zm.944,8.31c3.815-2.648,8.649-3.8,13.213-4.271.672-.071,6.765-.719,6.264.491-.443,1.063-2.465,1.509-3.5,1.849-2.552.836-5.177,1.4-7.732,2.2-1.112.349-10.561,4.512-11.287,3.972C444.1,7193.82,448.087,7190.944,448.545,7190.627Z" fill="#bfd429"/>
    </g>
    <path id="Caminho_443" data-name="Caminho 443" d="M408.776,6597.8a124.848,124.848,0,0,0,10.419,13.378,20.936,20.936,0,0,1,17.994-3.18c7.742,2.206,15.645,7.484,22.167,12.043a54.324,54.324,0,0,1,9.417,8.178c4.336,4.844,6.965,11.24,13.7,13.214a1.521,1.521,0,0,1,1.024,2.1,3.112,3.112,0,0,1,1.238,1.5,1.179,1.179,0,0,1-.337,1.378c-12.687,9.867-30.347,18.33-46.742,14.248-13.8-3.437-26.9-17.928-27.077-32.568a20.237,20.237,0,0,1,5.341-14,130.933,130.933,0,0,1-10.62-13.707C406.453,6599.512,407.619,6598.665,408.776,6597.8Zm60.811,37.275c-.7-.926-1.415-1.807-2.148-2.667-1.117,1.6-4.079,2.37-5.7,2.917-1.977.668-5.19,2.008-7.105.828a.48.48,0,0,1-.019-.754c.786-.8,1.8-.815,2.86-1.082a34.913,34.913,0,0,0,4.022-1.248c1.368-.524,3.067-1.829,4.635-2.151a57.711,57.711,0,0,0-9.618-8.351c-5.639,2.417-12.127,3.834-18.081,5.254a95.752,95.752,0,0,0,37.995,14.579A32.554,32.554,0,0,1,469.587,6635.076Zm3.38,14.847c.388-.205,4.261-2.426,6.643-4.1a70.962,70.962,0,0,1-13.488-1.231c.487.823.958,1.656,1.434,2.474a20.95,20.95,0,0,1,2.344,4.41C470.927,6650.965,471.954,6650.458,472.967,6649.923Zm-8.4,4c.964-.4,1.908-.844,2.857-1.28a22.836,22.836,0,0,1-2.324-4.5c-.667-1.383-1.351-2.762-1.925-4.183a76.731,76.731,0,0,1-15.069-5.226c1.133,2.152,2.176,4.346,3.162,6.6,1.558,3.558,3.86,7.642,4.024,11.552A56.636,56.636,0,0,0,464.571,6653.921Zm-21.321,3.851a37.282,37.282,0,0,0,9.616-.417c-1.986-2.928-2.856-6.837-4.056-10.122s-2.442-6.562-3.54-9.888a92.982,92.982,0,0,1-15.645-10.217c.97,4.843,1.945,9.682,3.026,14.506,1.032,4.6,3,9.6,3.326,14.379A27.678,27.678,0,0,0,443.25,6657.772Zm-28.5-33.195c-2.159,11.931,6.5,23.792,17.246,29.6a95.2,95.2,0,0,1-2.384-11.1c-1.2-6.016-2.129-12.117-2.73-18.223a111.892,111.892,0,0,1-8.431-8.021A16.236,16.236,0,0,0,414.754,6624.577Zm9.355-8.27a97.1,97.1,0,0,0,13.015,10.623.831.831,0,0,1,.541-.856,136.608,136.608,0,0,1,16.037-5.368c-.185-.117-.364-.236-.551-.352-5.72-3.543-12.207-7.983-18.943-9.15a17.028,17.028,0,0,0-12.477,2.7C422.511,6614.713,423.3,6615.517,424.109,6616.307Z" fill="#bfd429"/>
    <path id="Caminho_444" data-name="Caminho 444" d="M760.65,7153.614a124.852,124.852,0,0,0,10.419,13.378,20.937,20.937,0,0,1,18-3.18c7.741,2.206,15.644,7.484,22.166,12.043a54.288,54.288,0,0,1,9.417,8.178c4.336,4.844,6.966,11.24,13.7,13.214a1.521,1.521,0,0,1,1.024,2.1,3.119,3.119,0,0,1,1.239,1.5,1.181,1.181,0,0,1-.338,1.378c-12.687,9.867-30.347,18.33-46.742,14.248-13.8-3.437-26.9-17.928-27.077-32.568a20.237,20.237,0,0,1,5.341-14,130.835,130.835,0,0,1-10.62-13.707C758.327,7155.325,759.493,7154.478,760.65,7153.614Zm60.812,37.275c-.7-.926-1.416-1.807-2.149-2.667-1.117,1.6-4.079,2.37-5.7,2.917-1.977.668-5.19,2.008-7.1.828a.48.48,0,0,1-.019-.754c.786-.8,1.8-.815,2.86-1.082a34.91,34.91,0,0,0,4.022-1.248c1.368-.524,3.067-1.829,4.635-2.151a57.733,57.733,0,0,0-9.618-8.351c-5.639,2.417-12.127,3.834-18.081,5.254a95.758,95.758,0,0,0,37.995,14.579A32.574,32.574,0,0,1,821.462,7190.889Zm3.379,14.848c.388-.2,4.261-2.427,6.643-4.1A70.884,70.884,0,0,1,818,7200.4c.487.823.959,1.656,1.434,2.474a20.886,20.886,0,0,1,2.344,4.411C822.8,7206.778,823.829,7206.271,824.841,7205.737Zm-8.4,4c.964-.4,1.909-.844,2.857-1.28a22.834,22.834,0,0,1-2.324-4.5c-.667-1.383-1.351-2.762-1.924-4.183a76.738,76.738,0,0,1-15.07-5.226c1.133,2.153,2.176,4.347,3.162,6.6,1.559,3.558,3.86,7.642,4.024,11.552A56.464,56.464,0,0,0,816.445,7209.734Zm-21.321,3.851a37.239,37.239,0,0,0,9.616-.417c-1.985-2.928-2.856-6.837-4.055-10.122s-2.443-6.562-3.541-9.888a92.979,92.979,0,0,1-15.645-10.217c.97,4.843,1.946,9.682,3.026,14.506,1.033,4.6,3,9.6,3.326,14.379A27.688,27.688,0,0,0,795.124,7213.585Zm-28.5-33.195c-2.159,11.931,6.5,23.792,17.246,29.6a95.4,95.4,0,0,1-2.384-11.1c-1.2-6.016-2.129-12.117-2.73-18.223a111.7,111.7,0,0,1-8.431-8.021A16.246,16.246,0,0,0,766.628,7180.39Zm9.355-8.27A96.95,96.95,0,0,0,789,7182.743a.831.831,0,0,1,.541-.856,136.669,136.669,0,0,1,16.037-5.368c-.185-.116-.364-.236-.551-.352-5.72-3.543-12.207-7.983-18.943-9.15a17.028,17.028,0,0,0-12.477,2.7C774.385,7170.526,775.172,7171.33,775.983,7172.12Z" fill="#bfd429"/>
    <path id="Caminho_445" data-name="Caminho 445" d="M447.333,6975.441s-92.873-24.588-57.984-57.889c13.143-12.544,32.323-5.7,35.354,18.847C426.393,6950.084,427.547,6960.673,447.333,6975.441Z" fill="#bfd429"/>
    <path id="Caminho_446" data-name="Caminho 446" d="M283.044,6751.929s-92.873-24.589-57.984-57.889c13.143-12.544,32.323-5.7,35.354,18.847C262.1,6726.571,263.258,6737.16,283.044,6751.929Z" fill="#bfd429"/>
    <path id="Caminho_447" data-name="Caminho 447" d="M685.169,6876.6s53.024-80.115,73.4-36.4c7.677,16.466-4.948,32.446-29.172,27.461C715.9,6864.881,705.494,6862.585,685.169,6876.6Z" fill="#bfd429"/>
  </g>
</svg>
