<svg xmlns="http://www.w3.org/2000/svg" width="517.316" height="553.999" viewBox="0 0 517.316 553.999">
  <g id="cepera_2012_folhas" transform="translate(-292.597 -5741.532)">
    <g id="Agrupar_122" data-name="Agrupar 122">
      <path id="Caminho_435" data-name="Caminho 435" d="M676.525,5919.617c-5.14-.552-11.16,1.634-16.517,6a32.182,32.182,0,0,0-9.4,11.921,22.592,22.592,0,0,0-1.873,7.633c-.354,5.859,1.868,11.461,6.428,16.2,5.47,5.684,15.4,9.541,31.631-4.365,5.849-5.009,9.069-10.773,9.836-17.622.609-5.418-2.117-7.419-5.274-9.737a23.3,23.3,0,0,1-4.688-4.17A14.743,14.743,0,0,0,676.525,5919.617Zm4.711,19.67a23.521,23.521,0,0,1-6.858,9.429,11.548,11.548,0,0,1-3.2,1.849c-.976.374-2.8,1.489-3.853,1.1-1.122-.42,1.451-2.4,1.924-2.744a37.349,37.349,0,0,0,8.916-9.631c.75-1.063,1.67-2.965,2.977-3.466C682.837,5935.17,681.445,5938.768,681.236,5939.287Zm-5.991-4.77c-.756,4.184-3.14,8.06-5.79,11.321-.389.48-3.914,4.845-4.373,3.737-.4-.975.618-2.573,1.066-3.461,1.111-2.193,2.445-4.258,3.581-6.43.495-.946,3.917-9.759,4.737-9.88C676.057,5929.57,675.336,5934.015,675.245,5934.517Z" fill="#bfd429"/>
      <path id="Caminho_436" data-name="Caminho 436" d="M752.108,5997.3c4.4-3.543,7.356-9.88,8.123-17.388a35.147,35.147,0,0,0-1.948-16.463,24.684,24.684,0,0,0-4.448-7.342c-4.25-4.8-10.293-7.408-17.475-7.547-8.613-.165-19.258,4.522-21.057,27.8-.648,8.386,1.317,15.323,6.014,21.2,3.713,4.654,7.363,4.1,11.592,3.447a25.385,25.385,0,0,1,6.84-.4A16.1,16.1,0,0,0,752.108,5997.3Zm-18.829-11.552a25.711,25.711,0,0,1-1.985-12.578,12.623,12.623,0,0,1,1.042-3.9c.464-1.042,1.009-3.31,2.128-3.821,1.191-.543.735,2.976.634,3.6a40.764,40.764,0,0,0,.552,14.322c.241,1.4,1,3.579.377,4.976C735.222,5990.166,733.519,5986.313,733.279,5985.751Zm8.31-.943c-2.647-3.815-3.8-8.65-4.271-13.214-.07-.671-.718-6.765.492-6.263,1.063.442,1.509,2.464,1.849,3.5.836,2.552,1.4,5.176,2.2,7.731.348,1.112,4.511,10.562,3.972,11.287C744.783,5989.255,741.907,5985.266,741.589,5984.808Z" fill="#bfd429"/>
    </g>
    <path id="Caminho_437" data-name="Caminho 437" d="M356.631,6176.817a124.525,124.525,0,0,0,13.378-10.42,20.931,20.931,0,0,1-3.179-17.994c2.206-7.741,7.483-15.644,12.042-22.166a54.322,54.322,0,0,1,8.179-9.417c4.844-4.337,11.239-6.966,13.214-13.7a1.519,1.519,0,0,1,2.1-1.024,3.124,3.124,0,0,1,1.5-1.239,1.181,1.181,0,0,1,1.379.338c9.867,12.687,18.33,30.347,14.247,46.742-3.436,13.8-17.928,26.9-32.567,27.077a20.233,20.233,0,0,1-14-5.342,130.788,130.788,0,0,1-13.708,10.621C358.342,6179.14,357.5,6177.973,356.631,6176.817ZM393.906,6116c-.925.7-1.807,1.416-2.666,2.149,1.6,1.116,2.369,4.079,2.917,5.7.667,1.977,2.007,5.19.828,7.1a.481.481,0,0,1-.754.019c-.8-.787-.815-1.8-1.082-2.86a35.179,35.179,0,0,0-1.248-4.022c-.525-1.368-1.829-3.067-2.151-4.635a57.752,57.752,0,0,0-8.352,9.618c2.417,5.639,3.835,12.126,5.255,18.08a95.773,95.773,0,0,0,14.579-38A32.577,32.577,0,0,1,393.906,6116Zm14.848-3.379c-.2-.388-2.426-4.261-4.105-6.643a70.9,70.9,0,0,1-1.23,13.488c.823-.487,1.655-.959,2.474-1.434a20.879,20.879,0,0,1,4.41-2.344C409.8,6114.666,409.289,6113.638,408.754,6112.626Zm4,8.4c-.4-.964-.843-1.909-1.279-2.857a22.906,22.906,0,0,1-4.5,2.324c-1.383.667-2.762,1.351-4.184,1.924a76.646,76.646,0,0,1-5.225,15.069c2.152-1.132,4.346-2.176,6.6-3.162,3.558-1.558,7.642-3.859,11.552-4.023A56.541,56.541,0,0,0,412.751,6121.022Zm3.851,21.321a37.237,37.237,0,0,0-.417-9.616c-2.927,1.985-6.836,2.856-10.121,4.055s-6.563,2.443-9.889,3.541a92.954,92.954,0,0,1-10.217,15.645c4.844-.97,9.682-1.946,14.506-3.027,4.606-1.032,9.6-3,14.38-3.325A27.683,27.683,0,0,0,416.6,6142.343Zm-33.194,28.5c11.931,2.158,23.792-6.5,29.605-17.247a95.2,95.2,0,0,1-11.1,2.385c-6.015,1.2-12.116,2.129-18.223,2.73a111.935,111.935,0,0,1-8.02,8.431A16.249,16.249,0,0,0,383.408,6170.839Zm-8.271-9.355a97.017,97.017,0,0,0,10.624-13.015.833.833,0,0,1-.857-.541,136.623,136.623,0,0,1-5.367-16.037c-.117.184-.237.364-.353.551-3.543,5.72-7.982,12.206-9.15,18.943a17.029,17.029,0,0,0,2.7,12.477C373.543,6163.082,374.348,6162.295,375.137,6161.484Z" fill="#bfd429"/>
    <path id="Caminho_438" data-name="Caminho 438" d="M675.486,5817.592a124.763,124.763,0,0,0,13.379-10.42,20.927,20.927,0,0,1-3.18-17.994c2.206-7.741,7.484-15.644,12.043-22.166a54.237,54.237,0,0,1,8.178-9.417c4.844-4.337,11.239-6.966,13.214-13.7a1.52,1.52,0,0,1,2.1-1.025,3.127,3.127,0,0,1,1.5-1.238,1.18,1.18,0,0,1,1.379.337c9.867,12.688,18.33,30.347,14.248,46.743-3.437,13.8-17.928,26.9-32.568,27.077a20.231,20.231,0,0,1-14-5.342,130.788,130.788,0,0,1-13.708,10.621C677.2,5819.915,676.351,5818.748,675.486,5817.592Zm37.276-60.812c-.926.7-1.807,1.416-2.667,2.148,1.6,1.117,2.37,4.08,2.917,5.7.667,1.977,2.008,5.19.828,7.1a.48.48,0,0,1-.754.018c-.8-.786-.815-1.8-1.082-2.86a35.313,35.313,0,0,0-1.248-4.022c-.525-1.367-1.829-3.066-2.151-4.634a57.7,57.7,0,0,0-8.351,9.618c2.416,5.639,3.834,12.126,5.254,18.08a95.773,95.773,0,0,0,14.579-38A32.571,32.571,0,0,1,712.762,5756.78Zm14.847-3.379c-.205-.388-2.426-4.261-4.1-6.644a70.907,70.907,0,0,1-1.23,13.489c.823-.488,1.656-.959,2.474-1.434a20.858,20.858,0,0,1,4.41-2.344C728.651,5755.441,728.144,5754.413,727.609,5753.4Zm4,8.4c-.4-.964-.843-1.909-1.279-2.857a22.908,22.908,0,0,1-4.5,2.324c-1.383.667-2.762,1.35-4.183,1.924a76.721,76.721,0,0,1-5.226,15.069c2.152-1.132,4.346-2.176,6.6-3.162,3.558-1.558,7.642-3.859,11.552-4.023A56.441,56.441,0,0,0,731.606,5761.8Zm3.851,21.32a37.278,37.278,0,0,0-.416-9.615c-2.928,1.985-6.837,2.856-10.122,4.055s-6.563,2.442-9.889,3.541a92.911,92.911,0,0,1-10.217,15.644c4.844-.969,9.683-1.945,14.507-3.026,4.6-1.032,9.6-3,14.379-3.326A27.675,27.675,0,0,0,735.457,5783.117Zm-33.194,28.5c11.931,2.158,23.792-6.5,29.6-17.247a95.3,95.3,0,0,1-11.1,2.385c-6.015,1.2-12.116,2.128-18.222,2.73a111.948,111.948,0,0,1-8.021,8.43A16.237,16.237,0,0,0,702.263,5811.614Zm-8.271-9.356a96.919,96.919,0,0,0,10.624-13.014.832.832,0,0,1-.856-.542,136.47,136.47,0,0,1-5.368-16.037c-.117.185-.237.365-.352.552-3.543,5.72-7.983,12.206-9.151,18.943a17.027,17.027,0,0,0,2.7,12.476C692.4,5803.856,693.2,5803.07,693.992,5802.258Z" fill="#bfd429"/>
    <path id="Caminho_439" data-name="Caminho 439" d="M809.913,6229.709s-24.589,92.872-57.889,57.983c-12.544-13.142-5.7-32.322,18.847-35.354C784.555,6250.648,795.144,6249.494,809.913,6229.709Z" fill="#bfd429"/>
    <path id="Caminho_440" data-name="Caminho 440" d="M356.631,5741.533s-24.589,92.872-57.889,57.983c-12.544-13.142-5.7-32.323,18.847-35.354C331.273,5762.472,341.863,5761.318,356.631,5741.533Z" fill="#bfd429"/>
  </g>
</svg>
