<svg xmlns="http://www.w3.org/2000/svg" width="577.267" height="565.231" viewBox="0 0 577.267 565.231">
  <g id="cepera_2011_folhas" transform="translate(-265.206 -4818.872)">
    <g id="Agrupar_121" data-name="Agrupar 121">
      <path id="Caminho_429" data-name="Caminho 429" d="M624.621,5202.8c.552-5.14-1.634-11.16-6-16.517a32.176,32.176,0,0,0-11.921-9.4,22.578,22.578,0,0,0-7.633-1.874c-5.859-.354-11.461,1.868-16.2,6.428-5.684,5.47-9.541,15.4,4.365,31.631,5.009,5.849,10.773,9.069,17.622,9.836,5.418.609,7.419-2.117,9.737-5.274a23.3,23.3,0,0,1,4.17-4.688A14.743,14.743,0,0,0,624.621,5202.8Zm-19.67,4.711a23.524,23.524,0,0,1-9.429-6.858,11.55,11.55,0,0,1-1.849-3.2c-.374-.976-1.489-2.8-1.1-3.853.42-1.122,2.4,1.451,2.744,1.924a37.327,37.327,0,0,0,9.631,8.916c1.063.75,2.964,1.67,3.466,2.977C609.068,5209.112,605.47,5207.72,604.951,5207.511Zm4.77-5.991c-4.185-.756-8.061-3.14-11.321-5.79-.48-.389-4.845-3.914-3.737-4.373.975-.4,2.573.618,3.461,1.066,2.193,1.111,4.258,2.445,6.43,3.581.946.5,9.759,3.918,9.88,4.737C614.668,5202.332,610.223,5201.611,609.721,5201.52Z" fill="#bfd429"/>
      <path id="Caminho_430" data-name="Caminho 430" d="M546.935,5278.383c3.543,4.4,9.88,7.356,17.388,8.123a35.147,35.147,0,0,0,16.463-1.948,24.676,24.676,0,0,0,7.342-4.448c4.8-4.25,7.408-10.293,7.547-17.475.165-8.613-4.522-19.258-27.8-21.057-8.386-.648-15.323,1.317-21.2,6.014-4.654,3.713-4.095,7.363-3.447,11.592a25.39,25.39,0,0,1,.4,6.84A16.1,16.1,0,0,0,546.935,5278.383Zm11.552-18.828a25.7,25.7,0,0,1,12.578-1.986,12.637,12.637,0,0,1,3.9,1.042c1.042.464,3.31,1.009,3.821,2.128.543,1.191-2.976.735-3.605.634a40.77,40.77,0,0,0-14.322.552c-1.4.241-3.579,1-4.976.377C554.072,5261.5,557.925,5259.794,558.487,5259.555Zm.943,8.31c3.815-2.648,8.65-3.8,13.214-4.271.671-.071,6.765-.719,6.263.491-.442,1.063-2.464,1.509-3.5,1.849-2.552.836-5.176,1.4-7.731,2.2-1.112.348-10.562,4.511-11.287,3.972C554.983,5271.058,558.972,5268.182,559.43,5267.865Z" fill="#bfd429"/>
    </g>
    <path id="Caminho_431" data-name="Caminho 431" d="M420.256,4950.125a124.9,124.9,0,0,0,10.419,13.378,20.934,20.934,0,0,1,17.994-3.18c7.741,2.206,15.645,7.484,22.167,12.043a54.28,54.28,0,0,1,9.416,8.178c4.337,4.844,6.966,11.24,13.7,13.214a1.521,1.521,0,0,1,1.025,2.1,3.117,3.117,0,0,1,1.238,1.5,1.179,1.179,0,0,1-.337,1.378c-12.687,9.867-30.347,18.33-46.743,14.248-13.8-3.437-26.9-17.928-27.076-32.568a20.23,20.23,0,0,1,5.341-14,130.972,130.972,0,0,1-10.621-13.707C417.933,4951.836,419.1,4950.989,420.256,4950.125Zm60.811,37.275c-.695-.926-1.415-1.807-2.148-2.667-1.117,1.6-4.08,2.37-5.7,2.917-1.977.668-5.19,2.008-7.106.828a.481.481,0,0,1-.018-.754c.786-.8,1.8-.815,2.86-1.082a35.1,35.1,0,0,0,4.022-1.248c1.367-.524,3.067-1.829,4.634-2.151a57.68,57.68,0,0,0-9.617-8.351c-5.639,2.417-12.127,3.834-18.081,5.254a95.752,95.752,0,0,0,37.995,14.579A32.568,32.568,0,0,1,481.067,4987.4Zm3.38,14.848c.388-.206,4.261-2.427,6.643-4.1a70.923,70.923,0,0,1-13.488-1.231c.487.823.958,1.656,1.434,2.474a20.931,20.931,0,0,1,2.344,4.411C482.407,5003.289,483.434,5002.782,484.447,5002.248Zm-8.4,4c.964-.4,1.909-.844,2.858-1.28a22.782,22.782,0,0,1-2.324-4.5c-.667-1.383-1.351-2.762-1.925-4.183a76.73,76.73,0,0,1-15.069-5.226c1.132,2.153,2.176,4.347,3.162,6.6,1.558,3.558,3.859,7.642,4.024,11.552A56.547,56.547,0,0,0,476.05,5006.245Zm-21.32,3.851a37.262,37.262,0,0,0,9.616-.417c-1.986-2.928-2.856-6.837-4.056-10.122s-2.442-6.562-3.54-9.888a92.947,92.947,0,0,1-15.645-10.217c.97,4.843,1.945,9.682,3.026,14.506,1.032,4.6,3,9.6,3.326,14.379A27.68,27.68,0,0,0,454.73,5010.1Zm-28.5-33.2c-2.158,11.931,6.5,23.792,17.247,29.6a95.4,95.4,0,0,1-2.385-11.1c-1.2-6.016-2.128-12.117-2.729-18.223a111.6,111.6,0,0,1-8.431-8.021A16.245,16.245,0,0,0,426.233,4976.9Zm9.356-8.27a96.975,96.975,0,0,0,13.014,10.623.832.832,0,0,1,.542-.856,136.7,136.7,0,0,1,16.037-5.368c-.185-.117-.365-.236-.551-.352-5.72-3.543-12.207-7.983-18.943-9.15a17.03,17.03,0,0,0-12.477,2.7C433.991,4967.037,434.777,4967.841,435.589,4968.631Z" fill="#bfd429"/>
    <path id="Caminho_432" data-name="Caminho 432" d="M766.413,5320.194a124.9,124.9,0,0,0,10.42,13.379,20.931,20.931,0,0,1,17.994-3.18c7.741,2.206,15.644,7.484,22.167,12.043a54.278,54.278,0,0,1,9.416,8.178c4.337,4.844,6.966,11.239,13.7,13.214a1.521,1.521,0,0,1,1.025,2.1,3.124,3.124,0,0,1,1.238,1.5,1.181,1.181,0,0,1-.337,1.379c-12.687,9.867-30.347,18.33-46.743,14.248-13.8-3.437-26.9-17.928-27.076-32.568a20.227,20.227,0,0,1,5.341-14,131.173,131.173,0,0,1-10.621-13.707C764.09,5321.906,765.257,5321.059,766.413,5320.194Zm60.812,37.276c-.695-.926-1.415-1.807-2.148-2.667-1.117,1.6-4.08,2.37-5.7,2.917-1.977.668-5.191,2.008-7.106.828a.48.48,0,0,1-.018-.754c.786-.8,1.8-.815,2.86-1.082a35.007,35.007,0,0,0,4.022-1.248c1.367-.524,3.066-1.829,4.634-2.151a57.7,57.7,0,0,0-9.617-8.351c-5.64,2.416-12.127,3.834-18.081,5.254a95.767,95.767,0,0,0,37.995,14.579A32.577,32.577,0,0,1,827.225,5357.47Zm3.379,14.847c.388-.205,4.261-2.426,6.644-4.1a70.894,70.894,0,0,1-13.489-1.23c.488.823.959,1.656,1.434,2.474a20.884,20.884,0,0,1,2.345,4.41C828.565,5373.359,829.592,5372.852,830.6,5372.317Zm-8.4,4c.964-.4,1.909-.844,2.857-1.28a22.887,22.887,0,0,1-2.324-4.5c-.666-1.383-1.35-2.762-1.924-4.183a76.73,76.73,0,0,1-15.069-5.226c1.132,2.152,2.176,4.346,3.162,6.6,1.558,3.557,3.859,7.641,4.023,11.551A56.508,56.508,0,0,0,822.208,5376.315Zm-21.32,3.851a37.328,37.328,0,0,0,9.616-.417c-1.986-2.928-2.857-6.837-4.056-10.122s-2.442-6.562-3.54-9.888a92.967,92.967,0,0,1-15.645-10.217c.97,4.843,1.945,9.682,3.026,14.506,1.032,4.6,3,9.6,3.326,14.379A27.678,27.678,0,0,0,800.888,5380.166Zm-28.5-33.195c-2.158,11.931,6.5,23.792,17.247,29.6a95.419,95.419,0,0,1-2.385-11.1c-1.2-6.015-2.128-12.116-2.73-18.222a111.872,111.872,0,0,1-8.43-8.021A16.243,16.243,0,0,0,772.391,5346.971Zm9.356-8.271a96.959,96.959,0,0,0,13.014,10.624.832.832,0,0,1,.542-.856,136.426,136.426,0,0,1,16.037-5.368c-.185-.117-.365-.237-.552-.352-5.72-3.543-12.206-7.983-18.942-9.15a17.022,17.022,0,0,0-12.477,2.7C780.149,5337.107,780.935,5337.911,781.747,5338.7Z" fill="#bfd429"/>
    <path id="Caminho_433" data-name="Caminho 433" d="M331.028,5229.389s-92.872-24.589-57.983-57.889c13.142-12.544,32.322-5.7,35.354,18.847C310.089,5204.031,311.243,5214.62,331.028,5229.389Z" fill="#bfd429"/>
    <path id="Caminho_434" data-name="Caminho 434" d="M802.705,4882.906s-92.872-24.589-57.983-57.889c13.142-12.544,32.323-5.7,35.354,18.847C781.766,4857.549,782.92,4868.138,802.705,4882.906Z" fill="#bfd429"/>
  </g>
</svg>
