<svg xmlns="http://www.w3.org/2000/svg" width="621.213" height="604.422" viewBox="0 0 621.213 604.422">
  <g id="cepera_2000_folhas" transform="translate(-251.966 -3943.325)">
    <g id="Agrupar_120" data-name="Agrupar 120">
      <path id="Caminho_421" data-name="Caminho 421" d="M489.251,4303.183c5.14.552,11.16-1.635,16.518-6a32.2,32.2,0,0,0,9.4-11.92,22.6,22.6,0,0,0,1.873-7.634c.355-5.858-1.867-11.461-6.428-16.2-5.47-5.684-15.4-9.54-31.631,4.365-5.849,5.009-9.069,10.773-9.835,17.622-.609,5.418,2.116,7.419,5.273,9.737a23.256,23.256,0,0,1,4.688,4.17A14.748,14.748,0,0,0,489.251,4303.183Zm-4.711-19.671a23.532,23.532,0,0,1,6.858-9.429,11.547,11.547,0,0,1,3.2-1.848c.975-.375,2.8-1.49,3.852-1.1,1.122.419-1.451,2.4-1.924,2.744a37.336,37.336,0,0,0-8.916,9.631c-.75,1.062-1.67,2.964-2.977,3.465C482.939,4287.629,484.332,4284.031,484.54,4283.512Zm5.991,4.77c.756-4.184,3.14-8.06,5.79-11.32.389-.481,3.915-4.846,4.374-3.738.4.975-.619,2.573-1.067,3.461-1.111,2.194-2.445,4.258-3.581,6.43-.495.946-3.917,9.759-4.736,9.88C489.72,4293.229,490.44,4288.784,490.531,4288.282Z" fill="#b53934"/>
      <path id="Caminho_422" data-name="Caminho 422" d="M413.668,4225.5c-4.395,3.543-7.356,9.881-8.123,17.388a35.159,35.159,0,0,0,1.948,16.463,24.65,24.65,0,0,0,4.449,7.342c4.25,4.8,10.292,7.408,17.474,7.547,8.614.165,19.258-4.522,21.057-27.8.648-8.385-1.317-15.323-6.014-21.2-3.713-4.654-7.363-4.094-11.591-3.446a25.475,25.475,0,0,1-6.841.4A16.1,16.1,0,0,0,413.668,4225.5Zm18.829,11.552a25.7,25.7,0,0,1,1.985,12.578,12.583,12.583,0,0,1-1.041,3.9c-.464,1.042-1.01,3.31-2.129,3.821-1.19.543-.735-2.976-.633-3.6a40.776,40.776,0,0,0-.553-14.323c-.241-1.4-1-3.579-.377-4.976C430.554,4232.633,432.257,4236.487,432.5,4237.048Zm-8.31.943c2.647,3.816,3.8,8.65,4.271,13.214.07.671.719,6.765-.492,6.263-1.063-.442-1.509-2.464-1.848-3.5-.836-2.552-1.4-5.176-2.2-7.731-.348-1.112-4.511-10.561-3.972-11.287C420.993,4233.544,423.869,4237.533,424.187,4237.991Z" fill="#b53934"/>
    </g>
    <path id="Caminho_423" data-name="Caminho 423" d="M741.927,4098.817a124.817,124.817,0,0,0-13.379,10.419,20.931,20.931,0,0,1,3.18,18c-2.206,7.741-7.484,15.644-12.043,22.166a54.239,54.239,0,0,1-8.178,9.417c-4.844,4.336-11.239,6.966-13.214,13.7a1.52,1.52,0,0,1-2.1,1.024,3.128,3.128,0,0,1-1.5,1.239,1.182,1.182,0,0,1-1.379-.338c-9.867-12.687-18.33-30.347-14.248-46.742,3.437-13.8,17.928-26.9,32.568-27.077a20.236,20.236,0,0,1,14,5.341,130.942,130.942,0,0,1,13.708-10.62C740.216,4096.494,741.062,4097.66,741.927,4098.817Zm-37.276,60.812c.926-.7,1.807-1.416,2.667-2.149-1.6-1.117-2.37-4.079-2.917-5.7-.667-1.977-2.008-5.19-.828-7.1a.481.481,0,0,1,.754-.019c.8.786.815,1.8,1.082,2.86a35.252,35.252,0,0,0,1.248,4.022c.525,1.368,1.829,3.067,2.151,4.635a57.718,57.718,0,0,0,8.351-9.618c-2.416-5.639-3.834-12.127-5.254-18.081a95.776,95.776,0,0,0-14.579,38A32.6,32.6,0,0,1,704.651,4159.629Zm-14.847,3.379c.2.388,2.426,4.261,4.1,6.643a70.9,70.9,0,0,1,1.23-13.488c-.823.487-1.656.959-2.474,1.434a20.9,20.9,0,0,1-4.41,2.344C688.762,4160.968,689.269,4162,689.8,4163.008Zm-4-8.4c.4.964.843,1.909,1.279,2.857a22.829,22.829,0,0,1,4.5-2.324c1.383-.667,2.762-1.351,4.183-1.924a76.739,76.739,0,0,1,5.226-15.07c-2.152,1.133-4.346,2.176-6.6,3.162-3.558,1.559-7.642,3.86-11.552,4.024A56.433,56.433,0,0,0,685.807,4154.612Zm-3.851-21.321a37.287,37.287,0,0,0,.416,9.616c2.928-1.985,6.837-2.856,10.122-4.055s6.563-2.443,9.889-3.541a92.9,92.9,0,0,1,10.217-15.645c-4.844.97-9.683,1.946-14.507,3.026-4.605,1.033-9.6,3-14.379,3.326A27.675,27.675,0,0,0,681.956,4133.291Zm33.194-28.5c-11.931-2.159-23.792,6.5-29.605,17.246a95.492,95.492,0,0,1,11.1-2.384c6.015-1.2,12.116-2.129,18.222-2.73a111.943,111.943,0,0,1,8.021-8.431A16.241,16.241,0,0,0,715.15,4104.795Zm8.271,9.355a97.023,97.023,0,0,0-10.624,13.015.831.831,0,0,1,.856.541,136.5,136.5,0,0,1,5.368,16.037c.117-.185.237-.364.352-.551,3.543-5.72,7.983-12.207,9.151-18.943a17.03,17.03,0,0,0-2.7-12.477C725.014,4112.552,724.21,4113.339,723.421,4114.15Z" fill="#b53934"/>
    <path id="Caminho_424" data-name="Caminho 424" d="M371.857,4444.975a124.7,124.7,0,0,0-13.378,10.419,20.932,20.932,0,0,1,3.179,17.994c-2.206,7.741-7.483,15.645-12.042,22.167a54.352,54.352,0,0,1-8.178,9.416c-4.844,4.337-11.24,6.966-13.215,13.7a1.519,1.519,0,0,1-2.1,1.025,3.117,3.117,0,0,1-1.5,1.238,1.181,1.181,0,0,1-1.379-.337c-9.867-12.687-18.33-30.347-14.247-46.742,3.436-13.8,17.928-26.9,32.568-27.077a20.232,20.232,0,0,1,14,5.341,131.052,131.052,0,0,1,13.708-10.621C370.146,4442.652,370.992,4443.818,371.857,4444.975Zm-37.275,60.811c.925-.7,1.807-1.415,2.667-2.148-1.6-1.117-2.37-4.079-2.918-5.7-.667-1.977-2.007-5.19-.828-7.106a.481.481,0,0,1,.754-.018c.8.786.815,1.8,1.082,2.86a35.185,35.185,0,0,0,1.248,4.022c.525,1.367,1.829,3.067,2.151,4.635a57.791,57.791,0,0,0,8.352-9.618c-2.417-5.639-3.835-12.127-5.255-18.081a95.773,95.773,0,0,0-14.579,38A32.577,32.577,0,0,1,334.582,4505.786Zm-14.848,3.38c.2.388,2.426,4.261,4.1,6.643a70.9,70.9,0,0,1,1.23-13.488c-.823.487-1.655.958-2.474,1.434a20.925,20.925,0,0,1-4.41,2.344C318.692,4507.126,319.2,4508.153,319.734,4509.166Zm-4-8.4c.4.964.843,1.909,1.279,2.858a22.8,22.8,0,0,1,4.5-2.324c1.383-.667,2.762-1.351,4.184-1.925a76.668,76.668,0,0,1,5.225-15.069c-2.152,1.133-4.346,2.176-6.6,3.162-3.558,1.558-7.642,3.859-11.552,4.024A56.527,56.527,0,0,0,315.737,4500.769Zm-3.851-21.32a37.24,37.24,0,0,0,.417,9.616c2.927-1.986,6.836-2.856,10.121-4.056s6.563-2.442,9.889-3.54a92.9,92.9,0,0,1,10.217-15.645c-4.844.97-9.682,1.945-14.506,3.026-4.606,1.032-9.6,3-14.38,3.326A27.714,27.714,0,0,0,311.886,4479.449Zm33.194-28.5c-11.93-2.158-23.792,6.5-29.6,17.247a95.193,95.193,0,0,1,11.1-2.384c6.015-1.2,12.116-2.129,18.223-2.73a111.935,111.935,0,0,1,8.02-8.431A16.242,16.242,0,0,0,345.08,4450.952Zm8.271,9.356a96.931,96.931,0,0,0-10.624,13.015.831.831,0,0,1,.857.541,136.5,136.5,0,0,1,5.367,16.037c.117-.185.237-.365.353-.551,3.543-5.72,7.982-12.207,9.15-18.943a17.029,17.029,0,0,0-2.7-12.477C354.945,4458.71,354.14,4459.5,353.351,4460.308Z" fill="#b53934"/>
    <path id="Caminho_425" data-name="Caminho 425" d="M462.662,4009.589s24.589-92.872,57.889-57.983c12.544,13.142,5.7,32.323-18.847,35.354C488.02,3988.65,477.431,3989.8,462.662,4009.589Z" fill="#b53934" stroke="#945b01" stroke-linecap="round" stroke-linejoin="round" stroke-width="0.85"/>
    <path id="Caminho_426" data-name="Caminho 426" d="M332.456,4303.256s-70.783,64.958-80.017,17.62c-3.478-17.832,12.628-30.294,34.935-19.613C299.81,4307.218,309.35,4311.956,332.456,4303.256Z" fill="#b53934"/>
    <path id="Caminho_427" data-name="Caminho 427" d="M809.145,4481.267s24.589-92.873,57.889-57.984c12.544,13.143,5.7,32.323-18.847,35.354C834.5,4460.327,823.914,4461.481,809.145,4481.267Z" fill="#b53934"/>
    <path id="Caminho_428" data-name="Caminho 428" d="M634.2,4467.4s23.946,93.04-22.159,78.881c-17.367-5.333-20.771-25.412-.839-40.055C622.311,4498.063,630.985,4491.88,634.2,4467.4Z" fill="#b53934"/>
  </g>
</svg>
