<svg xmlns="http://www.w3.org/2000/svg" width="589.982" height="660.346" viewBox="0 0 589.982 660.346">
  <g id="cepera_1975_folhas" transform="translate(-223.94 -2176.543)">
    <g id="Agrupar_114" data-name="Agrupar 114">
      <path id="Caminho_400" data-name="Caminho 400" d="M694.527,2461.783c2.866-2.464,4.714-6.768,5.068-11.808A23.53,23.53,0,0,0,697.943,2439a16.509,16.509,0,0,0-3.132-4.819,15.535,15.535,0,0,0-11.855-4.681c-5.768.071-12.793,3.434-13.5,19.049-.256,5.626,1.206,10.227,4.474,14.064,2.583,3.036,5.014,2.584,7.83,2.061a17.064,17.064,0,0,1,4.57-.413A10.777,10.777,0,0,0,694.527,2461.783Zm-12.846-7.332a17.211,17.211,0,0,1-1.6-8.376,8.449,8.449,0,0,1,.615-2.63c.289-.707.606-2.237,1.344-2.6.785-.389.554,1.976.5,2.4a27.276,27.276,0,0,0,.673,9.573c.191.932.744,2.374.357,3.322C683.075,2457.364,681.854,2454.822,681.681,2454.451Zm5.542-.807a18.994,18.994,0,0,1-3.138-8.753c-.062-.448-.624-4.512.2-4.2.721.273,1.062,1.617,1.311,2.3.614,1.69,1.047,3.435,1.637,5.128.256.737,3.242,6.973,2.9,7.47C689.454,2456.552,687.445,2453.944,687.223,2453.644Z" fill="#ffe83f"/>
      <path id="Caminho_401" data-name="Caminho 401" d="M615.279,2463.2c-.311,4.116,1.586,8.867,5.205,13.033a25.7,25.7,0,0,0,9.753,7.2,18.04,18.04,0,0,0,6.14,1.3,16.966,16.966,0,0,0,12.77-5.54c4.4-4.51,7.227-12.531-4.282-25.139-4.147-4.543-8.829-6.967-14.316-7.406-4.34-.35-5.868,1.876-7.639,4.455a18.626,18.626,0,0,1-3.21,3.848A11.77,11.77,0,0,0,615.279,2463.2Zm15.582-4.258a18.8,18.8,0,0,1,7.7,5.237,9.181,9.181,0,0,1,1.556,2.506c.324.769,1.26,2.2.973,3.047-.307.906-1.955-1.1-2.239-1.466a29.816,29.816,0,0,0-7.913-6.874c-.867-.572-2.409-1.258-2.842-2.289C627.535,2457.771,630.442,2458.791,630.861,2458.944Zm-3.656,4.9a20.744,20.744,0,0,1,9.183,4.336c.393.3,3.966,3,3.093,3.4-.768.345-2.069-.429-2.789-.764-1.779-.831-3.461-1.844-5.223-2.7-.768-.371-7.889-2.881-8.006-3.532C623.236,2463.324,626.8,2463.787,627.205,2463.847Z" fill="#ffe83f"/>
    </g>
    <path id="Caminho_402" data-name="Caminho 402" d="M659.1,2283.1a104.11,104.11,0,0,0-1.3,14.083,17.46,17.46,0,0,1,12.757,8.338c3.448,5.76,5.242,13.48,6.606,19.976a45.289,45.289,0,0,1,1.058,10.348c-.128,5.421-2.18,10.811.788,15.856a1.268,1.268,0,0,1-.574,1.861,2.605,2.605,0,0,1-.1,1.619.987.987,0,0,1-.992.646c-13.348-1.242-28.917-6.176-36.557-18.017-6.433-9.97-6.123-26.256,2.124-35.261a16.877,16.877,0,0,1,11.242-5.466,109.154,109.154,0,0,1,1.365-14.4C656.713,2282.814,657.906,2282.965,659.1,2283.1Zm15.7,57.379c.106-.96.171-1.907.216-2.848-1.594.337-3.834-.887-5.132-1.48-1.583-.722-4.3-1.741-4.793-3.552-.075-.274.184-.459.419-.469a4.434,4.434,0,0,1,2.357.975,29.346,29.346,0,0,0,3.158,1.536c1.131.462,2.909.639,4.046,1.338a48.167,48.167,0,0,0-1.081-10.569c-4.809-1.749-9.563-4.59-13.995-7.125a79.879,79.879,0,0,0,14.783,30.553A27.184,27.184,0,0,1,674.8,2340.478Zm-6.42,10.958c.353.1,3.976.956,6.383,1.3a59.134,59.134,0,0,1-7.5-8.448c-.174.779-.363,1.554-.541,2.323a17.406,17.406,0,0,1-1.092,4.02C666.55,2350.905,667.464,2351.183,668.385,2351.436ZM661,2349.074c.814.308,1.642.577,2.468.853a19.115,19.115,0,0,1,1.154-4.062c.384-1.222.756-2.451,1.218-3.642a64.036,64.036,0,0,1-6.181-11.78c-.54,1.955-1.157,3.885-1.843,5.817-1.083,3.053-2.015,6.85-4.147,9.321A47.12,47.12,0,0,0,661,2349.074Zm-15.163-9.828a31.075,31.075,0,0,0,6.085,5.235c.464-2.914,2.166-5.788,3.312-8.47s2.261-5.385,3.491-8.034a77.483,77.483,0,0,1-3.681-15.143c-2.175,3.5-4.344,7-6.44,10.548-2,3.39-3.654,7.548-6.186,10.643A23.1,23.1,0,0,0,645.834,2339.246Zm1.619-36.452c-8.122,6.023-9.627,18.179-6.411,27.848a79.418,79.418,0,0,1,4.884-8.11c2.706-4.34,5.622-8.583,8.742-12.639a93.375,93.375,0,0,1-.549-9.69A13.559,13.559,0,0,0,647.453,2302.794Zm10.41.311a80.875,80.875,0,0,0,1.85,13.889.694.694,0,0,1,.818-.212,114.014,114.014,0,0,1,12.816,5.89c-.045-.176-.086-.352-.134-.529-1.456-5.419-2.866-11.822-6.3-16.377a14.2,14.2,0,0,0-9.128-5.479C657.8,2301.224,657.82,2302.162,657.863,2303.1Z" fill="#ffe83f"/>
    <path id="Caminho_403" data-name="Caminho 403" d="M287.118,2288.891c3.413-.172,4.928,3.963,1.474,4.173a354.75,354.75,0,0,1-62.925-1.31c-2.32-.271-2.278-2.8-.017-2.733C246.287,2289.642,266.771,2289.923,287.118,2288.891Z" fill="#ffe83f"/>
    <path id="Caminho_404" data-name="Caminho 404" d="M287.135,2274.877c3.283.947,3.369,5.351.035,4.425a354.891,354.891,0,0,1-59.071-21.725c-2.1-1.012-1.242-3.39.874-2.59C248.284,2262.293,267.56,2269.228,287.135,2274.877Z" fill="#ffe83f"/>
    <path id="Caminho_405" data-name="Caminho 405" d="M291.713,2261.631c2.795,1.965,1.443,6.157-1.407,4.2a354.832,354.832,0,0,1-48.78-39.773c-1.661-1.642-.07-3.61,1.67-2.164C259.075,2237.084,275.044,2249.917,291.713,2261.631Z" fill="#ffe83f"/>
    <path id="Caminho_406" data-name="Caminho 406" d="M300.354,2250.6c2,2.768-.64,6.291-2.7,3.509a354.885,354.885,0,0,1-33.173-53.487c-1.036-2.094,1.109-3.436,2.284-1.5C277.486,2216.763,288.407,2234.095,300.354,2250.6Z" fill="#ffe83f"/>
    <path id="Caminho_407" data-name="Caminho 407" d="M312.117,2242.979c.993,3.269-2.654,5.74-3.693,2.44a354.884,354.884,0,0,1-13.952-61.373c-.3-2.317,2.167-2.888,2.648-.678C301.511,2203.542,306.193,2223.486,312.117,2242.979Z" fill="#ffe83f"/>
    <path id="Caminho_408" data-name="Caminho 408" d="M325.719,2239.6c-.126,3.414-4.378,4.563-4.286,1.1a354.85,354.85,0,0,1,6.79-62.571c.472-2.288,2.989-2.026,2.724.221C328.53,2198.863,326.464,2219.245,325.719,2239.6Z" fill="#ffe83f"/>
    <path id="Caminho_409" data-name="Caminho 409" d="M339.678,2240.842c-1.23,3.188-5.624,2.891-4.411-.35a354.809,354.809,0,0,1,26.791-56.953c1.191-2.009,3.485-.941,2.5,1.1C355.6,2203.236,347.012,2221.835,339.678,2240.842Z" fill="#ffe83f"/>
    <path id="Caminho_410" data-name="Caminho 410" d="M352.474,2246.558c-2.2,2.613-6.259.9-4.057-1.768a354.988,354.988,0,0,1,43.873-45.128c1.781-1.512,3.6.245,2.011,1.852C379.773,2216.184,365.6,2230.973,352.474,2246.558Z" fill="#ffe83f"/>
    <path id="Caminho_411" data-name="Caminho 411" d="M362.713,2256.128c-2.932,1.754-6.212-1.186-3.261-2.993a354.945,354.945,0,0,1,56.175-28.385c2.176-.85,3.327,1.4,1.3,2.406C398.412,2236.3,380.194,2245.664,362.713,2256.128Z" fill="#ffe83f"/>
    <g id="Agrupar_116" data-name="Agrupar 116">
      <path id="Caminho_412" data-name="Caminho 412" d="M549.621,2813.944l-1.473-4.368-25.382,10.989.736,2.184.737,2.184,26.854-6.622,2.085,6.185c1.284,3.806,4.471,3.548,6.2,2.965l4.047-1.365-.023-.068a4.371,4.371,0,0,0,5.259,2.108l18.72-6.312,16.33-5.5,14.489-4.885a4.381,4.381,0,0,0,2.752-5.552l-9.682-28.713a4.381,4.381,0,0,0-5.551-2.752l-14.489,4.885-16.329,5.507-18.72,6.311a4.371,4.371,0,0,0-2.909,4.862l-.022-.066-4.047,1.365c-1.73.58-4.423,2.306-3.141,6.111Zm8.725-2.691-.076-.224-.074-.224Z" fill="#ffe83f"/>
      <g id="Agrupar_115" data-name="Agrupar 115">
        <path id="Caminho_413" data-name="Caminho 413" d="M520.832,2823.443c-4.389,1.48-6.442-4.608-10.831-3.128s-2.338,7.568-6.728,9.047-6.446-4.6-10.84-3.124-2.344,7.569-6.741,9.052-6.449-4.6-10.846-3.122" fill="none" stroke="#ffe83f" stroke-linecap="round" stroke-linejoin="round" stroke-width="2.835"/>
      </g>
    </g>
    <path id="Caminho_414" data-name="Caminho 414" d="M356.979,2529.866s68.711,14.578,49.293,37.026c-7.314,8.456-21.77,4.285-27.582-11.777C375.45,2546.16,373.05,2539.228,356.979,2529.866Z" fill="#ffe83f"/>
    <path id="Caminho_415" data-name="Caminho 415" d="M813.923,2706.2s-18.748,67.692-39.968,46.939c-7.993-7.817-2.947-21.991,13.44-26.811C796.532,2723.639,803.6,2721.667,813.923,2706.2Z" fill="#ffe83f"/>
  </g>
</svg>
