<svg id="carousel_prev" xmlns="http://www.w3.org/2000/svg" width="33.309" height="69.727" viewBox="0 0 33.309 69.727">
  <g id="Agrupar_102" data-name="Agrupar 102">
    <path id="Caminho_311" data-name="Caminho 311" d="M1841.13,1529.92a130.507,130.507,0,0,1-24.5,28.708c-.734.633-2.5,1.654-2.479,2.5.023.963,2.55,3.419,3.106,4.154l6.484,8.577L1837,1591.406c2.2,2.911-2.72,5.739-4.9,2.862l-14.147-18.714-7.073-9.357c-1.983-2.623-3.868-5.607-1.5-8.676,1.82-2.36,4.744-4.174,6.924-6.222q3.673-3.453,7.046-7.206a130.322,130.322,0,0,0,12.881-17.035c1.96-3.064,6.869-.224,4.9,2.862Z" transform="translate(-1808.279 -1525.742)" fill="#fff"/>
  </g>
</svg>
